<?xml version="1.0" encoding="utf-8"?>
<!-- Generator: Adobe Illustrator 23.0.6, SVG Export Plug-In . SVG Version: 6.00 Build 0)  -->
<svg version="1.1" id="Layer_1" xmlns="http://www.w3.org/2000/svg" xmlns:xlink="http://www.w3.org/1999/xlink" x="0px" y="0px"
	 viewBox="0 0 623.7 346" style="enable-background:new 0 0 623.7 346;" xml:space="preserve">
<style type="text/css">
	.st0{clip-path:url(#SVGID_2_);fill:#FF0000;}
	.st1{clip-path:url(#SVGID_2_);fill:none;stroke:#FF0000;stroke-linejoin:round;stroke-miterlimit:10;}
	.st2{clip-path:url(#SVGID_4_);fill:#800080;}
	.st3{clip-path:url(#SVGID_4_);fill:none;stroke:#800080;stroke-width:1.5;stroke-linejoin:round;stroke-miterlimit:10;}
	.st4{fill:none;stroke:#000000;stroke-width:0.8;stroke-linejoin:round;stroke-miterlimit:10;}
	.st5{clip-path:url(#SVGID_6_);}
	.st6{clip-path:url(#SVGID_10_);}
	.st7{clip-path:url(#SVGID_12_);fill:none;stroke:#808080;stroke-linejoin:round;stroke-miterlimit:10;stroke-dasharray:3.7,1.6;}
	.st8{clip-path:url(#SVGID_14_);fill:none;stroke:#808080;stroke-linejoin:round;stroke-miterlimit:10;stroke-dasharray:3.7,1.6;}
	.st9{clip-path:url(#SVGID_16_);fill:none;stroke:#00BFFF;stroke-width:1.5;stroke-linejoin:round;stroke-miterlimit:10;}
	
		.st10{clip-path:url(#SVGID_18_);fill:none;stroke:#00BFFF;stroke-width:1.5;stroke-linejoin:round;stroke-miterlimit:10;stroke-dasharray:5.55,2.4;}
	.st11{clip-path:url(#SVGID_20_);fill:none;stroke:#808080;stroke-linejoin:round;stroke-miterlimit:10;stroke-dasharray:3.7,1.6;}
	.st12{clip-path:url(#SVGID_22_);fill:none;stroke:#808080;stroke-linejoin:round;stroke-miterlimit:10;stroke-dasharray:3.7,1.6;}
	.st13{fill:none;stroke:#000000;stroke-width:0.8;stroke-linecap:square;stroke-miterlimit:10;}
	.st14{clip-path:url(#SVGID_24_);}
	.st15{clip-path:url(#SVGID_26_);}
	.st16{clip-path:url(#SVGID_28_);}
	.st17{clip-path:url(#SVGID_30_);}
	.st18{clip-path:url(#SVGID_32_);}
</style>
<g>
	<defs>
		<rect id="SVGID_1_" x="58.5" y="-42.5" width="558" height="434.9"/>
	</defs>
	<clipPath id="SVGID_2_">
		<use xlink:href="#SVGID_1_"  style="overflow:visible;"/>
	</clipPath>
	<polygon class="st0" points="295.3,159 298.3,153 292.3,153 	"/>
	<polygon class="st1" points="295.3,159 298.3,153 292.3,153 	"/>
	<polygon class="st0" points="393.3,92.8 396.3,86.8 390.3,86.8 	"/>
	<polygon class="st1" points="393.3,92.8 396.3,86.8 390.3,86.8 	"/>
</g>
<g>
	<defs>
		<rect id="SVGID_3_" x="58.5" y="-42.5" width="558" height="434.9"/>
	</defs>
	<clipPath id="SVGID_4_">
		<use xlink:href="#SVGID_3_"  style="overflow:visible;"/>
	</clipPath>
	<path class="st2" d="M285.8,172.3l6,6 M285.8,178.3l6-6"/>
	<path class="st3" d="M285.8,172.3l6,6 M285.8,178.3l6-6"/>
</g>
<line x1="58.5" y1="288.4" x2="58.5" y2="291.9"/>
<line class="st4" x1="58.5" y1="288.4" x2="58.5" y2="291.9"/>
<path d="M50.6,295.6c0.8,0,1.4,0.3,1.9,1c0.4,0.7,0.7,1.6,0.7,2.8c0,1.2-0.2,2.2-0.7,2.8c-0.4,0.6-1.1,1-1.9,1c-0.8,0-1.4-0.3-1.9-1
	c-0.4-0.6-0.6-1.6-0.6-2.8c0-1.2,0.2-2.2,0.6-2.8C49.1,295.9,49.7,295.6,50.6,295.6z M50.6,296.4c-0.5,0-0.9,0.2-1.2,0.8
	c-0.3,0.5-0.4,1.2-0.4,2.2s0.1,1.8,0.4,2.2c0.3,0.5,0.6,0.8,1.2,0.8s0.9-0.2,1.2-0.8c0.2-0.5,0.4-1.2,0.4-2.2s-0.1-1.8-0.4-2.2
	C51.4,296.6,51.1,296.4,50.6,296.4z"/>
<rect x="54.8" y="301.8" width="1" height="1.2"/>
<path d="M60.1,295.6c0.8,0,1.4,0.3,1.9,1c0.4,0.7,0.7,1.6,0.7,2.8c0,1.2-0.2,2.2-0.7,2.8c-0.4,0.6-1.1,1-1.9,1c-0.8,0-1.4-0.3-1.9-1
	c-0.4-0.6-0.6-1.6-0.6-2.8c0-1.2,0.2-2.2,0.6-2.8C58.6,295.9,59.3,295.6,60.1,295.6z M60.1,296.4c-0.5,0-0.9,0.2-1.2,0.8
	c-0.3,0.5-0.4,1.2-0.4,2.2s0.1,1.8,0.4,2.2c0.3,0.5,0.6,0.8,1.2,0.8s0.9-0.2,1.2-0.8c0.2-0.5,0.4-1.2,0.4-2.2s-0.1-1.8-0.4-2.2
	C61,296.6,60.6,296.4,60.1,296.4z"/>
<path d="M66.5,295.6c0.8,0,1.4,0.3,1.9,1c0.4,0.7,0.7,1.6,0.7,2.8c0,1.2-0.2,2.2-0.7,2.8c-0.4,0.6-1.1,1-1.9,1s-1.4-0.3-1.9-1
	c-0.4-0.6-0.6-1.6-0.6-2.8c0-1.2,0.2-2.2,0.6-2.8C65,295.9,65.6,295.6,66.5,295.6z M66.5,296.4c-0.5,0-0.9,0.2-1.2,0.8
	c-0.3,0.5-0.4,1.2-0.4,2.2s0.1,1.8,0.4,2.2c0.3,0.5,0.6,0.8,1.2,0.8c0.5,0,0.9-0.2,1.1-0.8c0.2-0.5,0.4-1.2,0.4-2.2
	s-0.1-1.8-0.4-2.2C67.3,296.6,67,296.4,66.5,296.4z"/>
<line x1="155.2" y1="288.4" x2="155.2" y2="291.9"/>
<line class="st4" x1="155.2" y1="288.4" x2="155.2" y2="291.9"/>
<path d="M147.2,295.6c0.8,0,1.4,0.3,1.9,1c0.4,0.7,0.6,1.6,0.6,2.8c0,1.2-0.2,2.2-0.6,2.8c-0.4,0.6-1.1,1-1.9,1
	c-0.8,0-1.4-0.3-1.9-1c-0.4-0.6-0.6-1.6-0.6-2.8c0-1.2,0.2-2.2,0.6-2.8C145.8,295.9,146.4,295.6,147.2,295.6z M147.2,296.4
	c-0.5,0-0.9,0.2-1.2,0.8s-0.4,1.2-0.4,2.2s0.1,1.8,0.4,2.2s0.6,0.8,1.2,0.8c0.5,0,0.9-0.2,1.1-0.8c0.2-0.5,0.4-1.2,0.4-2.2
	s-0.1-1.8-0.4-2.2C148.1,296.6,147.7,296.4,147.2,296.4z"/>
<rect x="151.5" y="301.8" width="1" height="1.2"/>
<path d="M156.7,295.6c0.8,0,1.4,0.3,1.9,1c0.4,0.7,0.6,1.6,0.6,2.8c0,1.2-0.2,2.2-0.6,2.8c-0.4,0.6-1.1,1-1.9,1
	c-0.8,0-1.4-0.3-1.9-1c-0.4-0.6-0.6-1.6-0.6-2.8c0-1.2,0.2-2.2,0.6-2.8C155.3,295.9,155.9,295.6,156.7,295.6z M156.7,296.4
	c-0.5,0-0.9,0.2-1.2,0.8s-0.4,1.2-0.4,2.2s0.1,1.8,0.4,2.2s0.6,0.8,1.2,0.8c0.5,0,0.9-0.2,1.1-0.8c0.2-0.5,0.4-1.2,0.4-2.2
	s-0.1-1.8-0.4-2.2C157.6,296.6,157.3,296.4,156.7,296.4z"/>
<path d="M161,295.7h3.9v0.8h-3v1.8c0.1-0.1,0.3-0.1,0.4-0.1s0.3,0,0.4,0c0.8,0,1.4,0.2,1.9,0.7c0.5,0.4,0.7,1,0.7,1.8
	c0,0.8-0.2,1.4-0.7,1.8s-1.2,0.6-2.1,0.6c-0.3,0-0.6,0-0.9-0.1c-0.3,0-0.6-0.1-1-0.2v-1c0.3,0.2,0.6,0.3,0.9,0.4
	c0.3,0.1,0.6,0.1,1,0.1c0.6,0,1-0.1,1.3-0.4c0.3-0.3,0.5-0.7,0.5-1.2c0-0.5-0.2-0.9-0.5-1.2c-0.3-0.3-0.8-0.4-1.3-0.4
	c-0.3,0-0.5,0-0.8,0.1c-0.3,0.1-0.5,0.1-0.8,0.3V295.7z"/>
<line x1="251.8" y1="288.4" x2="251.8" y2="291.9"/>
<line class="st4" x1="251.8" y1="288.4" x2="251.8" y2="291.9"/>
<path d="M243.9,295.6c0.8,0,1.4,0.3,1.9,1c0.4,0.7,0.6,1.6,0.6,2.8c0,1.2-0.2,2.2-0.6,2.8c-0.4,0.6-1.1,1-1.9,1
	c-0.8,0-1.4-0.3-1.9-1c-0.4-0.6-0.6-1.6-0.6-2.8c0-1.2,0.2-2.2,0.6-2.8C242.4,295.9,243,295.6,243.9,295.6z M243.9,296.4
	c-0.5,0-0.9,0.2-1.2,0.8s-0.4,1.2-0.4,2.2s0.1,1.8,0.4,2.2s0.6,0.8,1.2,0.8c0.5,0,0.9-0.2,1.1-0.8c0.2-0.5,0.4-1.2,0.4-2.2
	s-0.1-1.8-0.4-2.2C244.7,296.6,244.4,296.4,243.9,296.4z"/>
<rect x="248.1" y="301.8" width="1" height="1.2"/>
<polygon points="251.5,302.2 253.1,302.2 253.1,296.6 251.3,297 251.3,296.1 253.1,295.7 254,295.7 254,302.2 255.7,302.2 
	255.7,303 251.5,303 "/>
<path d="M259.8,295.6c0.8,0,1.4,0.3,1.9,1c0.4,0.7,0.7,1.6,0.7,2.8c0,1.2-0.2,2.2-0.7,2.8c-0.4,0.6-1.1,1-1.9,1
	c-0.8,0-1.4-0.3-1.9-1c-0.4-0.6-0.6-1.6-0.6-2.8c0-1.2,0.2-2.2,0.6-2.8C258.3,295.9,258.9,295.6,259.8,295.6z M259.8,296.4
	c-0.5,0-0.9,0.2-1.1,0.8s-0.4,1.2-0.4,2.2s0.1,1.8,0.4,2.2s0.6,0.8,1.1,0.8c0.5,0,0.9-0.2,1.1-0.8c0.2-0.5,0.4-1.2,0.4-2.2
	s-0.1-1.8-0.4-2.2C260.6,296.6,260.3,296.4,259.8,296.4z"/>
<line x1="348.5" y1="288.4" x2="348.5" y2="291.9"/>
<line class="st4" x1="348.5" y1="288.4" x2="348.5" y2="291.9"/>
<path d="M340.5,295.6c0.8,0,1.4,0.3,1.9,1c0.4,0.7,0.7,1.6,0.7,2.8c0,1.2-0.2,2.2-0.7,2.8c-0.4,0.6-1.1,1-1.9,1
	c-0.8,0-1.4-0.3-1.9-1c-0.4-0.6-0.6-1.6-0.6-2.8c0-1.2,0.2-2.2,0.6-2.8C339.1,295.9,339.7,295.6,340.5,295.6z M340.5,296.4
	c-0.5,0-0.9,0.2-1.1,0.8s-0.4,1.2-0.4,2.2s0.1,1.8,0.4,2.2s0.6,0.8,1.1,0.8c0.5,0,0.9-0.2,1.1-0.8c0.2-0.5,0.4-1.2,0.4-2.2
	s-0.1-1.8-0.4-2.2C341.4,296.6,341,296.4,340.5,296.4z"/>
<rect x="344.8" y="301.8" width="1" height="1.2"/>
<polygon points="348.1,302.2 349.7,302.2 349.7,296.6 348,297 348,296.1 349.7,295.7 350.7,295.7 350.7,302.2 352.3,302.2 
	352.3,303 348.1,303 "/>
<path d="M354.3,295.7h3.9v0.8h-3v1.8c0.1-0.1,0.3-0.1,0.4-0.1c0.1,0,0.3,0,0.4,0c0.8,0,1.5,0.2,1.9,0.7c0.5,0.4,0.7,1,0.7,1.8
	c0,0.8-0.2,1.4-0.7,1.8s-1.2,0.6-2.1,0.6c-0.3,0-0.6,0-0.9-0.1c-0.3,0-0.6-0.1-1-0.2v-1c0.3,0.2,0.6,0.3,0.9,0.4
	c0.3,0.1,0.6,0.1,1,0.1c0.6,0,1-0.1,1.3-0.4c0.3-0.3,0.5-0.7,0.5-1.2c0-0.5-0.2-0.9-0.5-1.2c-0.3-0.3-0.8-0.4-1.3-0.4
	c-0.3,0-0.5,0-0.8,0.1s-0.5,0.1-0.8,0.3V295.7z"/>
<line x1="445.1" y1="288.4" x2="445.1" y2="291.9"/>
<line class="st4" x1="445.1" y1="288.4" x2="445.1" y2="291.9"/>
<path d="M437.2,295.6c0.8,0,1.4,0.3,1.9,1c0.4,0.7,0.7,1.6,0.7,2.8c0,1.2-0.2,2.2-0.7,2.8c-0.4,0.6-1.1,1-1.9,1
	c-0.8,0-1.4-0.3-1.9-1c-0.4-0.6-0.6-1.6-0.6-2.8c0-1.2,0.2-2.2,0.6-2.8C435.7,295.9,436.3,295.6,437.2,295.6z M437.2,296.4
	c-0.5,0-0.9,0.2-1.1,0.8s-0.4,1.2-0.4,2.2s0.1,1.8,0.4,2.2s0.6,0.8,1.1,0.8c0.5,0,0.9-0.2,1.1-0.8c0.2-0.5,0.4-1.2,0.4-2.2
	s-0.1-1.8-0.4-2.2C438,296.6,437.7,296.4,437.2,296.4z"/>
<rect x="441.4" y="301.8" width="1" height="1.2"/>
<path d="M445.4,302.2h3.4v0.8h-4.6v-0.8c0.4-0.4,0.9-0.9,1.5-1.6c0.6-0.6,1-1.1,1.2-1.3c0.3-0.4,0.5-0.6,0.7-0.9
	c0.1-0.2,0.2-0.5,0.2-0.7c0-0.4-0.1-0.7-0.4-0.9c-0.3-0.2-0.6-0.4-1.1-0.4c-0.3,0-0.6,0.1-1,0.2c-0.3,0.1-0.7,0.3-1.1,0.5v-1
	c0.4-0.2,0.8-0.3,1.1-0.4c0.3-0.1,0.7-0.1,0.9-0.1c0.8,0,1.4,0.2,1.8,0.6c0.4,0.4,0.7,0.9,0.7,1.5c0,0.3-0.1,0.6-0.2,0.9
	c-0.1,0.3-0.3,0.6-0.6,0.9c-0.1,0.1-0.3,0.4-0.8,0.8C446.8,300.8,446.2,301.4,445.4,302.2z"/>
<path d="M453.1,295.6c0.8,0,1.4,0.3,1.9,1c0.4,0.7,0.7,1.6,0.7,2.8c0,1.2-0.2,2.2-0.7,2.8c-0.4,0.6-1.1,1-1.9,1
	c-0.8,0-1.4-0.3-1.9-1c-0.4-0.6-0.6-1.6-0.6-2.8c0-1.2,0.2-2.2,0.6-2.8C451.6,295.9,452.2,295.6,453.1,295.6z M453.1,296.4
	c-0.5,0-0.9,0.2-1.1,0.8s-0.4,1.2-0.4,2.2s0.1,1.8,0.4,2.2s0.6,0.8,1.1,0.8c0.5,0,0.9-0.2,1.1-0.8c0.2-0.5,0.4-1.2,0.4-2.2
	s-0.1-1.8-0.4-2.2C453.9,296.6,453.6,296.4,453.1,296.4z"/>
<line x1="541.8" y1="288.4" x2="541.8" y2="291.9"/>
<line class="st4" x1="541.8" y1="288.4" x2="541.8" y2="291.9"/>
<path d="M533.8,295.6c0.8,0,1.4,0.3,1.9,1c0.4,0.7,0.7,1.6,0.7,2.8c0,1.2-0.2,2.2-0.7,2.8c-0.4,0.6-1.1,1-1.9,1s-1.4-0.3-1.9-1
	c-0.4-0.6-0.6-1.6-0.6-2.8c0-1.2,0.2-2.2,0.6-2.8C532.4,295.9,533,295.6,533.8,295.6z M533.8,296.4c-0.5,0-0.9,0.2-1.1,0.8
	c-0.3,0.5-0.4,1.2-0.4,2.2s0.1,1.8,0.4,2.2c0.3,0.5,0.6,0.8,1.1,0.8s0.9-0.2,1.2-0.8c0.2-0.5,0.4-1.2,0.4-2.2s-0.1-1.8-0.4-2.2
	C534.7,296.6,534.3,296.4,533.8,296.4z"/>
<rect x="538.1" y="301.8" width="1" height="1.2"/>
<path d="M542.1,302.2h3.4v0.8h-4.6v-0.8c0.4-0.4,0.9-0.9,1.5-1.6c0.6-0.6,1-1.1,1.2-1.3c0.3-0.4,0.5-0.6,0.7-0.9
	c0.1-0.2,0.2-0.5,0.2-0.7c0-0.4-0.1-0.7-0.4-0.9c-0.3-0.2-0.6-0.4-1.1-0.4c-0.3,0-0.6,0.1-1,0.2c-0.3,0.1-0.7,0.3-1.1,0.5v-1
	c0.4-0.2,0.8-0.3,1.1-0.4c0.3-0.1,0.7-0.1,1-0.1c0.8,0,1.3,0.2,1.8,0.6s0.7,0.9,0.7,1.5c0,0.3-0.1,0.6-0.2,0.9
	c-0.1,0.3-0.3,0.6-0.6,0.9c-0.1,0.1-0.3,0.4-0.8,0.8C543.5,300.8,542.9,301.4,542.1,302.2z"/>
<path d="M547.6,295.7h3.9v0.8h-3v1.8c0.1-0.1,0.3-0.1,0.4-0.1c0.1,0,0.3,0,0.4,0c0.8,0,1.4,0.2,1.9,0.7c0.5,0.4,0.7,1,0.7,1.8
	c0,0.8-0.2,1.4-0.7,1.8s-1.2,0.6-2.1,0.6c-0.3,0-0.6,0-0.9-0.1c-0.3,0-0.6-0.1-1-0.2v-1c0.3,0.2,0.6,0.3,0.9,0.4
	c0.3,0.1,0.6,0.1,1,0.1c0.6,0,1-0.1,1.3-0.4c0.3-0.3,0.5-0.7,0.5-1.2c0-0.5-0.2-0.9-0.5-1.2c-0.3-0.3-0.8-0.4-1.3-0.4
	c-0.3,0-0.5,0-0.8,0.1s-0.5,0.1-0.8,0.3V295.7z"/>
<path d="M285.9,309.6v1c-0.4-0.2-0.7-0.3-1.1-0.4c-0.3-0.1-0.7-0.1-1-0.1c-0.5,0-1,0.1-1.2,0.3c-0.3,0.2-0.4,0.5-0.4,0.9
	c0,0.3,0.1,0.6,0.3,0.7c0.2,0.2,0.6,0.3,1.1,0.4l0.6,0.1c0.7,0.1,1.3,0.4,1.6,0.7c0.3,0.4,0.5,0.8,0.5,1.4c0,0.7-0.2,1.2-0.7,1.6
	c-0.5,0.4-1.2,0.5-2.1,0.5c-0.4,0-0.7,0-1.1-0.1c-0.4-0.1-0.8-0.2-1.2-0.3v-1c0.4,0.2,0.8,0.4,1.2,0.5c0.4,0.1,0.8,0.2,1.1,0.2
	c0.6,0,1-0.1,1.3-0.3c0.3-0.2,0.5-0.5,0.5-1c0-0.4-0.1-0.6-0.3-0.8c-0.2-0.2-0.6-0.4-1.1-0.5l-0.6-0.1c-0.7-0.1-1.3-0.4-1.6-0.7
	c-0.3-0.3-0.5-0.7-0.5-1.3c0-0.6,0.2-1.1,0.7-1.5c0.5-0.4,1.1-0.6,1.9-0.6c0.3,0,0.7,0,1,0.1C285.2,309.4,285.5,309.5,285.9,309.6z"
	/>
<path d="M288.7,309.7v1.6h1.9v0.7h-1.9v3c0,0.4,0.1,0.7,0.2,0.9c0.1,0.1,0.4,0.2,0.8,0.2h0.9v0.8h-0.9c-0.7,0-1.2-0.1-1.4-0.4
	c-0.3-0.3-0.4-0.7-0.4-1.4v-3h-0.7v-0.7h0.7v-1.6H288.7z"/>
<path d="M296,313.6v3.1h-0.9v-0.8c-0.2,0.3-0.5,0.6-0.8,0.7c-0.3,0.1-0.7,0.2-1.1,0.2c-0.6,0-1-0.1-1.3-0.5
	c-0.3-0.3-0.5-0.7-0.5-1.3c0-0.6,0.2-1.1,0.6-1.4c0.4-0.3,1-0.5,1.8-0.5h1.3v-0.1c0-0.4-0.1-0.7-0.4-1c-0.3-0.2-0.6-0.3-1.1-0.3
	c-0.3,0-0.6,0-0.9,0.1c-0.3,0.1-0.6,0.2-0.9,0.3v-0.8c0.3-0.1,0.6-0.2,1-0.3s0.6-0.1,0.9-0.1c0.8,0,1.4,0.2,1.8,0.6
	C295.8,312.1,296,312.7,296,313.6z M294.3,313.9c-0.7,0-1.2,0.1-1.5,0.2c-0.3,0.2-0.4,0.5-0.4,0.9c0,0.3,0.1,0.6,0.3,0.8
	c0.2,0.2,0.5,0.3,0.9,0.3c0.5,0,0.9-0.2,1.2-0.5c0.3-0.3,0.5-0.8,0.5-1.4v-0.2H294.3z"/>
<path d="M302.4,313.4v3.3h-0.9v-3.3c0-0.5-0.1-0.9-0.3-1.2s-0.5-0.4-0.9-0.4c-0.5,0-0.9,0.2-1.1,0.5s-0.4,0.7-0.4,1.3v3.1h-0.9v-5.5
	h0.9v0.9c0.2-0.3,0.5-0.6,0.8-0.7c0.3-0.2,0.6-0.2,1-0.2c0.6,0,1.1,0.2,1.4,0.6C302.3,312.1,302.4,312.6,302.4,313.4z"/>
<path d="M304.8,314c0,0.7,0.1,1.2,0.4,1.6c0.3,0.4,0.6,0.6,1.1,0.6s0.9-0.2,1.1-0.6c0.3-0.4,0.4-0.9,0.4-1.6s-0.1-1.2-0.4-1.5
	c-0.3-0.4-0.6-0.6-1.1-0.6s-0.9,0.2-1.1,0.6C304.9,312.8,304.8,313.3,304.8,314z M307.8,312.1v-3h0.9v7.6h-0.9v-0.8
	c-0.2,0.3-0.4,0.6-0.7,0.7c-0.3,0.1-0.6,0.2-1,0.2c-0.7,0-1.2-0.3-1.6-0.8c-0.4-0.5-0.6-1.2-0.6-2.1c0-0.9,0.2-1.5,0.6-2.1
	c0.4-0.5,1-0.8,1.6-0.8c0.4,0,0.7,0.1,1,0.2C307.4,311.5,307.6,311.7,307.8,312.1z"/>
<path d="M314.9,313.6v3.1H314v-0.8c-0.2,0.3-0.5,0.6-0.8,0.7c-0.3,0.1-0.7,0.2-1.1,0.2c-0.6,0-1-0.1-1.3-0.5
	c-0.3-0.3-0.5-0.7-0.5-1.3c0-0.6,0.2-1.1,0.6-1.4c0.4-0.3,1-0.5,1.8-0.5h1.3v-0.1c0-0.4-0.1-0.7-0.4-1c-0.3-0.2-0.6-0.3-1.1-0.3
	c-0.3,0-0.6,0-0.9,0.1c-0.3,0.1-0.6,0.2-0.9,0.3v-0.8c0.3-0.1,0.6-0.2,1-0.3s0.6-0.1,0.9-0.1c0.8,0,1.4,0.2,1.8,0.6
	C314.7,312.1,314.9,312.7,314.9,313.6z M313.1,313.9c-0.7,0-1.2,0.1-1.5,0.2c-0.3,0.2-0.4,0.5-0.4,0.9c0,0.3,0.1,0.6,0.3,0.8
	c0.2,0.2,0.5,0.3,0.9,0.3c0.5,0,0.9-0.2,1.2-0.5c0.3-0.3,0.5-0.8,0.5-1.4v-0.2H313.1z"/>
<path d="M319.9,312.1c-0.1-0.1-0.2-0.1-0.3-0.1c-0.1,0-0.2,0-0.4,0c-0.5,0-0.9,0.2-1.2,0.5c-0.3,0.3-0.4,0.8-0.4,1.4v2.9h-0.9v-5.5
	h0.9v0.9c0.2-0.3,0.4-0.6,0.7-0.7c0.3-0.2,0.7-0.2,1.1-0.2c0.1,0,0.1,0,0.2,0c0.1,0,0.2,0,0.2,0V312.1z"/>
<path d="M321.2,314c0,0.7,0.1,1.2,0.4,1.6c0.3,0.4,0.6,0.6,1.1,0.6s0.9-0.2,1.1-0.6c0.3-0.4,0.4-0.9,0.4-1.6s-0.1-1.2-0.4-1.5
	c-0.3-0.4-0.6-0.6-1.1-0.6s-0.9,0.2-1.1,0.6C321.3,312.8,321.2,313.3,321.2,314z M324.2,312.1v-3h0.9v7.6h-0.9v-0.8
	c-0.2,0.3-0.4,0.6-0.7,0.7c-0.3,0.1-0.6,0.2-1,0.2c-0.7,0-1.2-0.3-1.6-0.8c-0.4-0.5-0.6-1.2-0.6-2.1c0-0.9,0.2-1.5,0.6-2.1
	c0.4-0.5,1-0.8,1.6-0.8c0.4,0,0.7,0.1,1,0.2C323.8,311.5,324.1,311.7,324.2,312.1z"/>
<path d="M330.2,309.4h2c1.4,0,2.4,0.3,3.1,0.9c0.7,0.6,1,1.5,1,2.8c0,1.3-0.3,2.2-1,2.8c-0.7,0.6-1.7,0.9-3.1,0.9h-2V309.4z
	 M331.2,310.2v5.7h1.2c1,0,1.7-0.2,2.2-0.7c0.5-0.5,0.7-1.2,0.7-2.2s-0.2-1.7-0.7-2.1c-0.5-0.5-1.2-0.7-2.2-0.7H331.2z"/>
<path d="M341.7,313.5c0-0.5-0.1-0.9-0.4-1.2c-0.3-0.3-0.6-0.4-1.1-0.4c-0.5,0-0.9,0.1-1.2,0.4c-0.3,0.3-0.5,0.7-0.5,1.2H341.7z
	 M342.6,313.7v0.4h-4.1c0,0.6,0.2,1.1,0.6,1.4c0.3,0.3,0.8,0.5,1.4,0.5c0.3,0,0.7,0,1-0.1c0.3-0.1,0.6-0.2,1-0.4v0.9
	c-0.3,0.1-0.6,0.2-1,0.3c-0.3,0.1-0.7,0.1-1,0.1c-0.9,0-1.6-0.2-2.1-0.8s-0.8-1.2-0.8-2.1c0-0.9,0.2-1.6,0.7-2.1
	c0.5-0.5,1.1-0.8,2-0.8c0.7,0,1.3,0.2,1.8,0.7C342.3,312.3,342.6,312.9,342.6,313.7z"/>
<polygon points="343.4,311.2 344.3,311.2 346,315.8 347.8,311.2 348.7,311.2 346.7,316.7 345.4,316.7 "/>
<path d="M349.9,309.1h0.9v1.1h-0.9V309.1z M349.9,311.2h0.9v5.5h-0.9V311.2z"/>
<path d="M357,313.6v3.1h-0.9v-0.8c-0.2,0.3-0.5,0.6-0.8,0.7c-0.3,0.1-0.7,0.2-1.1,0.2c-0.6,0-1-0.1-1.3-0.5
	c-0.3-0.3-0.5-0.7-0.5-1.3c0-0.6,0.2-1.1,0.6-1.4c0.4-0.3,1-0.5,1.8-0.5h1.3v-0.1c0-0.4-0.1-0.7-0.4-1c-0.3-0.2-0.6-0.3-1.1-0.3
	c-0.3,0-0.6,0-0.9,0.1c-0.3,0.1-0.6,0.2-0.9,0.3v-0.8c0.3-0.1,0.6-0.2,1-0.3s0.6-0.1,0.9-0.1c0.8,0,1.4,0.2,1.8,0.6
	C356.8,312.1,357,312.7,357,313.6z M355.2,313.9c-0.7,0-1.2,0.1-1.5,0.2c-0.3,0.2-0.4,0.5-0.4,0.9c0,0.3,0.1,0.6,0.3,0.8
	c0.2,0.2,0.5,0.3,0.9,0.3c0.5,0,0.9-0.2,1.2-0.5c0.3-0.3,0.5-0.8,0.5-1.4v-0.2H355.2z"/>
<path d="M359.7,309.7v1.6h1.9v0.7h-1.9v3c0,0.4,0.1,0.7,0.2,0.9c0.1,0.1,0.4,0.2,0.8,0.2h0.9v0.8h-0.9c-0.7,0-1.2-0.1-1.4-0.4
	c-0.3-0.3-0.4-0.7-0.4-1.4v-3h-0.7v-0.7h0.7v-1.6H359.7z"/>
<path d="M362.8,309.1h0.9v1.1h-0.9V309.1z M362.8,311.2h0.9v5.5h-0.9V311.2z"/>
<path d="M367.7,311.1c0.8,0,1.4,0.3,1.8,0.8c0.4,0.5,0.7,1.2,0.7,2.1s-0.2,1.6-0.7,2.1c-0.4,0.5-1.1,0.8-1.8,0.8
	c-0.8,0-1.4-0.2-1.9-0.8c-0.4-0.5-0.7-1.2-0.7-2.1s0.2-1.6,0.7-2.1C366.3,311.4,366.9,311.1,367.7,311.1z M367.7,311.9
	c-0.5,0-0.9,0.2-1.1,0.6c-0.3,0.4-0.4,0.9-0.4,1.5c0,0.7,0.1,1.2,0.4,1.6s0.7,0.6,1.1,0.6c0.5,0,0.9-0.2,1.1-0.6s0.4-0.9,0.4-1.6
	c0-0.6-0.1-1.2-0.4-1.5C368.5,312,368.2,311.9,367.7,311.9z"/>
<path d="M376.2,313.4v3.3h-0.9v-3.3c0-0.5-0.1-0.9-0.3-1.2s-0.5-0.4-0.9-0.4c-0.5,0-0.9,0.2-1.1,0.5s-0.4,0.7-0.4,1.3v3.1h-0.9v-5.5
	h0.9v0.9c0.2-0.3,0.5-0.6,0.8-0.7c0.3-0.2,0.6-0.2,1-0.2c0.6,0,1.1,0.2,1.4,0.6C376.1,312.1,376.2,312.6,376.2,313.4z"/>
<path d="M383.4,309.1c-0.4,0.8-0.8,1.5-1,2.2c-0.2,0.7-0.3,1.5-0.3,2.2c0,0.8,0.1,1.5,0.3,2.2c0.2,0.7,0.5,1.5,1,2.2h-0.8
	c-0.5-0.8-0.9-1.5-1.1-2.2s-0.4-1.5-0.4-2.2c0-0.7,0.1-1.4,0.4-2.2c0.2-0.7,0.6-1.5,1.1-2.3H383.4z"/>
<path d="M391.3,309.1h0.8c0.5,0.8,0.9,1.5,1.1,2.3c0.2,0.7,0.4,1.5,0.4,2.2c0,0.7-0.1,1.5-0.4,2.2c-0.2,0.7-0.6,1.5-1.1,2.2h-0.8
	c0.4-0.8,0.8-1.5,1-2.2c0.2-0.7,0.3-1.5,0.3-2.2c0-0.8-0.1-1.5-0.3-2.2C392,310.6,391.7,309.9,391.3,309.1z"/>
<g>
	<defs>
		<rect id="SVGID_5_" x="373.9" y="304.4" width="28.1" height="17"/>
	</defs>
	<clipPath id="SVGID_6_">
		<use xlink:href="#SVGID_5_"  style="overflow:visible;"/>
	</clipPath>
	<path class="st5" d="M387.2,311.2h3v0.9h-1c0.4,0.5,0.5,1.1,0.5,1.8c0,0.9-0.2,1.6-0.7,2.1c-0.4,0.5-1.1,0.8-1.8,0.8
		c-0.8,0-1.4-0.2-1.8-0.8c-0.5-0.5-0.7-1.2-0.7-2.1s0.2-1.6,0.7-2.1C385.7,311.4,386.3,311.2,387.2,311.2z M387.2,311.9
		c-0.5,0-0.9,0.2-1.1,0.5c-0.3,0.4-0.4,0.9-0.4,1.5c0,0.7,0.1,1.2,0.4,1.6s0.7,0.6,1.1,0.6c0.5,0,0.9-0.2,1.1-0.6s0.4-0.9,0.4-1.6
		c0-0.6-0.1-1.1-0.4-1.5C388.1,312.1,387.7,311.9,387.2,311.9z"/>
</g>
<g>
	<defs>
		<rect id="SVGID_7_" x="10.7" y="346.1" width="28.1" height="17"/>
	</defs>
	<clipPath id="SVGID_8_">
		<use xlink:href="#SVGID_7_"  style="overflow:visible;"/>
	</clipPath>
</g>
<line x1="58.5" y1="288.4" x2="55" y2="288.4"/>
<line class="st4" x1="58.5" y1="288.4" x2="55" y2="288.4"/>
<path d="M32.4,284.8c0.8,0,1.4,0.3,1.9,1c0.4,0.7,0.7,1.6,0.7,2.8c0,1.2-0.2,2.2-0.7,2.8c-0.4,0.6-1.1,1-1.9,1c-0.8,0-1.4-0.3-1.9-1
	c-0.4-0.6-0.6-1.6-0.6-2.8c0-1.2,0.2-2.2,0.6-2.8C31,285.1,31.6,284.8,32.4,284.8z M32.4,285.6c-0.5,0-0.9,0.2-1.1,0.8
	s-0.4,1.2-0.4,2.2s0.1,1.8,0.4,2.2s0.6,0.8,1.1,0.8c0.5,0,0.9-0.2,1.2-0.8c0.2-0.5,0.4-1.2,0.4-2.2s-0.1-1.8-0.4-2.2
	C33.3,285.8,32.9,285.6,32.4,285.6z"/>
<rect x="36.7" y="291" width="1" height="1.2"/>
<path d="M42,284.8c0.8,0,1.4,0.3,1.9,1c0.4,0.7,0.7,1.6,0.7,2.8c0,1.2-0.2,2.2-0.7,2.8c-0.4,0.6-1.1,1-1.9,1c-0.8,0-1.4-0.3-1.9-1
	c-0.4-0.6-0.6-1.6-0.6-2.8c0-1.2,0.2-2.2,0.6-2.8C40.5,285.1,41.1,284.8,42,284.8z M42,285.6c-0.5,0-0.9,0.2-1.2,0.8
	c-0.3,0.5-0.4,1.2-0.4,2.2s0.1,1.8,0.4,2.2c0.3,0.5,0.6,0.8,1.2,0.8s0.9-0.2,1.2-0.8c0.2-0.5,0.4-1.2,0.4-2.2s-0.1-1.8-0.4-2.2
	C42.9,285.8,42.5,285.6,42,285.6z"/>
<path d="M48.3,284.8c0.8,0,1.4,0.3,1.9,1c0.4,0.7,0.7,1.6,0.7,2.8c0,1.2-0.2,2.2-0.7,2.8c-0.4,0.6-1.1,1-1.9,1c-0.8,0-1.4-0.3-1.9-1
	c-0.4-0.6-0.6-1.6-0.6-2.8c0-1.2,0.2-2.2,0.6-2.8C46.9,285.1,47.5,284.8,48.3,284.8z M48.3,285.6c-0.5,0-0.9,0.2-1.2,0.8
	c-0.3,0.5-0.4,1.2-0.4,2.2s0.1,1.8,0.4,2.2c0.3,0.5,0.6,0.8,1.2,0.8s0.9-0.2,1.2-0.8c0.2-0.5,0.4-1.2,0.4-2.2s-0.1-1.8-0.4-2.2
	C49.2,285.8,48.8,285.6,48.3,285.6z"/>
<line x1="58.5" y1="222.2" x2="55" y2="222.2"/>
<line class="st4" x1="58.5" y1="222.2" x2="55" y2="222.2"/>
<path d="M32.4,218.6c0.8,0,1.4,0.3,1.9,1c0.4,0.6,0.7,1.6,0.7,2.8c0,1.2-0.2,2.2-0.7,2.8c-0.4,0.6-1.1,1-1.9,1c-0.8,0-1.4-0.3-1.9-1
	c-0.4-0.6-0.6-1.6-0.6-2.8c0-1.2,0.2-2.2,0.6-2.8C31,218.9,31.6,218.6,32.4,218.6z M32.4,219.4c-0.5,0-0.9,0.2-1.1,0.8
	s-0.4,1.2-0.4,2.2s0.1,1.8,0.4,2.2s0.6,0.8,1.1,0.8c0.5,0,0.9-0.2,1.2-0.8c0.2-0.5,0.4-1.2,0.4-2.2s-0.1-1.8-0.4-2.2
	C33.3,219.6,32.9,219.4,32.4,219.4z"/>
<rect x="36.7" y="224.8" width="1" height="1.2"/>
<path d="M42,218.6c0.8,0,1.4,0.3,1.9,1c0.4,0.6,0.7,1.6,0.7,2.8c0,1.2-0.2,2.2-0.7,2.8c-0.4,0.6-1.1,1-1.9,1c-0.8,0-1.4-0.3-1.9-1
	s-0.6-1.6-0.6-2.8c0-1.2,0.2-2.2,0.6-2.8C40.5,218.9,41.1,218.6,42,218.6z M42,219.4c-0.5,0-0.9,0.2-1.2,0.8
	c-0.3,0.5-0.4,1.2-0.4,2.2s0.1,1.8,0.4,2.2c0.3,0.5,0.6,0.8,1.2,0.8s0.9-0.2,1.2-0.8c0.2-0.5,0.4-1.2,0.4-2.2s-0.1-1.8-0.4-2.2
	C42.9,219.6,42.5,219.4,42,219.4z"/>
<polygon points="46.4,225.2 48,225.2 48,219.6 46.2,220 46.2,219.1 48,218.7 49,218.7 49,225.2 50.6,225.2 50.6,226 46.4,226 "/>
<line x1="58.5" y1="156" x2="55" y2="156"/>
<line class="st4" x1="58.5" y1="156" x2="55" y2="156"/>
<path d="M32.4,152.4c0.8,0,1.4,0.3,1.9,1c0.4,0.6,0.7,1.6,0.7,2.8c0,1.2-0.2,2.2-0.7,2.8c-0.4,0.6-1.1,1-1.9,1c-0.8,0-1.4-0.3-1.9-1
	c-0.4-0.6-0.6-1.6-0.6-2.8c0-1.2,0.2-2.2,0.6-2.8C31,152.8,31.6,152.4,32.4,152.4z M32.4,153.2c-0.5,0-0.9,0.2-1.1,0.8
	s-0.4,1.2-0.4,2.2s0.1,1.8,0.4,2.2s0.6,0.8,1.1,0.8c0.5,0,0.9-0.2,1.2-0.8c0.2-0.5,0.4-1.2,0.4-2.2s-0.1-1.8-0.4-2.2
	C33.3,153.5,32.9,153.2,32.4,153.2z"/>
<rect x="36.7" y="158.6" width="1" height="1.2"/>
<path d="M42,152.4c0.8,0,1.4,0.3,1.9,1c0.4,0.6,0.7,1.6,0.7,2.8c0,1.2-0.2,2.2-0.7,2.8c-0.4,0.6-1.1,1-1.9,1c-0.8,0-1.4-0.3-1.9-1
	s-0.6-1.6-0.6-2.8c0-1.2,0.2-2.2,0.6-2.8C40.5,152.8,41.1,152.4,42,152.4z M42,153.2c-0.5,0-0.9,0.2-1.2,0.8
	c-0.3,0.5-0.4,1.2-0.4,2.2s0.1,1.8,0.4,2.2c0.3,0.5,0.6,0.8,1.2,0.8s0.9-0.2,1.2-0.8c0.2-0.5,0.4-1.2,0.4-2.2s-0.1-1.8-0.4-2.2
	C42.9,153.5,42.5,153.2,42,153.2z"/>
<path d="M47.1,159h3.4v0.8h-4.6V159c0.4-0.4,0.9-0.9,1.5-1.6c0.6-0.6,1.1-1.1,1.2-1.3c0.3-0.4,0.5-0.7,0.7-0.9
	c0.1-0.2,0.2-0.5,0.2-0.7c0-0.4-0.1-0.7-0.4-0.9c-0.3-0.2-0.6-0.4-1.1-0.4c-0.3,0-0.6,0.1-1,0.2c-0.3,0.1-0.7,0.3-1.1,0.5v-1
	c0.4-0.2,0.8-0.3,1.1-0.4s0.7-0.1,1-0.1c0.8,0,1.3,0.2,1.8,0.6c0.5,0.4,0.7,0.9,0.7,1.5c0,0.3-0.1,0.6-0.2,0.8
	c-0.1,0.3-0.3,0.6-0.6,1c-0.1,0.1-0.3,0.4-0.8,0.8C48.5,157.6,47.9,158.2,47.1,159z"/>
<line x1="58.5" y1="89.8" x2="55" y2="89.8"/>
<line class="st4" x1="58.5" y1="89.8" x2="55" y2="89.8"/>
<path d="M32.4,86.2c0.8,0,1.4,0.3,1.9,1c0.4,0.7,0.7,1.6,0.7,2.8c0,1.2-0.2,2.2-0.7,2.8c-0.4,0.6-1.1,1-1.9,1c-0.8,0-1.4-0.3-1.9-1
	c-0.4-0.6-0.6-1.6-0.6-2.8c0-1.2,0.2-2.2,0.6-2.8C31,86.6,31.6,86.2,32.4,86.2z M32.4,87c-0.5,0-0.9,0.2-1.1,0.8S30.9,89,30.9,90
	s0.1,1.8,0.4,2.2s0.6,0.8,1.1,0.8c0.5,0,0.9-0.2,1.2-0.8C33.8,91.8,34,91,34,90s-0.1-1.8-0.4-2.2C33.3,87.3,32.9,87,32.4,87z"/>
<rect x="36.7" y="92.4" width="1" height="1.2"/>
<path d="M42,86.2c0.8,0,1.4,0.3,1.9,1c0.4,0.7,0.7,1.6,0.7,2.8c0,1.2-0.2,2.2-0.7,2.8c-0.4,0.6-1.1,1-1.9,1c-0.8,0-1.4-0.3-1.9-1
	c-0.4-0.6-0.6-1.6-0.6-2.8c0-1.2,0.2-2.2,0.6-2.8C40.5,86.6,41.1,86.2,42,86.2z M42,87c-0.5,0-0.9,0.2-1.2,0.8
	c-0.3,0.5-0.4,1.2-0.4,2.2s0.1,1.8,0.4,2.2c0.3,0.5,0.6,0.8,1.2,0.8s0.9-0.2,1.2-0.8c0.2-0.5,0.4-1.2,0.4-2.2s-0.1-1.8-0.4-2.2
	C42.9,87.3,42.5,87,42,87z"/>
<path d="M49.2,89.7c0.5,0.1,0.8,0.3,1.1,0.6c0.3,0.3,0.4,0.7,0.4,1.2c0,0.7-0.2,1.3-0.7,1.7c-0.5,0.4-1.2,0.6-2.1,0.6
	c-0.3,0-0.6,0-1-0.1c-0.3-0.1-0.7-0.1-1-0.3v-1c0.3,0.2,0.6,0.3,0.9,0.4c0.3,0.1,0.7,0.1,1,0.1c0.6,0,1.1-0.1,1.4-0.4
	c0.3-0.2,0.5-0.6,0.5-1.1c0-0.4-0.2-0.8-0.5-1s-0.7-0.4-1.3-0.4h-0.8v-0.8h0.9c0.5,0,0.8-0.1,1.1-0.3c0.3-0.2,0.4-0.5,0.4-0.8
	s-0.1-0.7-0.4-0.9c-0.3-0.2-0.6-0.3-1.1-0.3c-0.3,0-0.6,0-0.9,0.1s-0.7,0.1-1,0.3v-0.9c0.4-0.1,0.7-0.2,1-0.2
	c0.3-0.1,0.6-0.1,0.9-0.1c0.7,0,1.3,0.2,1.8,0.5c0.4,0.3,0.7,0.8,0.7,1.4c0,0.4-0.1,0.7-0.3,1S49.6,89.6,49.2,89.7z"/>
<line x1="58.5" y1="23.7" x2="55" y2="23.7"/>
<line class="st4" x1="58.5" y1="23.7" x2="55" y2="23.7"/>
<path d="M32.4,20c0.8,0,1.4,0.3,1.9,1c0.4,0.7,0.7,1.6,0.7,2.8c0,1.2-0.2,2.2-0.7,2.8c-0.4,0.6-1.1,1-1.9,1c-0.8,0-1.4-0.3-1.9-1
	c-0.4-0.6-0.6-1.6-0.6-2.8c0-1.2,0.2-2.2,0.6-2.8C31,20.4,31.6,20,32.4,20z M32.4,20.8c-0.5,0-0.9,0.2-1.1,0.8s-0.4,1.2-0.4,2.2
	s0.1,1.8,0.4,2.2s0.6,0.8,1.1,0.8c0.5,0,0.9-0.2,1.2-0.8c0.2-0.5,0.4-1.2,0.4-2.2s-0.1-1.8-0.4-2.2C33.3,21.1,32.9,20.8,32.4,20.8z"
	/>
<rect x="36.7" y="26.2" width="1" height="1.2"/>
<path d="M42,20c0.8,0,1.4,0.3,1.9,1c0.4,0.7,0.7,1.6,0.7,2.8c0,1.2-0.2,2.2-0.7,2.8c-0.4,0.6-1.1,1-1.9,1c-0.8,0-1.4-0.3-1.9-1
	c-0.4-0.6-0.6-1.6-0.6-2.8c0-1.2,0.2-2.2,0.6-2.8C40.5,20.4,41.1,20,42,20z M42,20.8c-0.5,0-0.9,0.2-1.2,0.8
	c-0.3,0.5-0.4,1.2-0.4,2.2s0.1,1.8,0.4,2.2c0.3,0.5,0.6,0.8,1.2,0.8s0.9-0.2,1.2-0.8c0.2-0.5,0.4-1.2,0.4-2.2s-0.1-1.8-0.4-2.2
	C42.9,21.1,42.5,20.8,42,20.8z"/>
<path d="M48.7,20.2h1.2v4.8h1v0.8h-1v1.7h-1v-1.7h-3.3v-1L48.7,20.2z M48.9,21l-2.5,3.9h2.5V21z"/>
<polygon points="7.5,224.1 7.5,219.5 8.3,219.5 8.3,223.1 10.5,223.1 10.5,219.7 11.3,219.7 11.3,223.1 14,223.1 14,219.4 
	14.8,219.4 14.8,224.1 "/>
<polygon points="9.3,213.3 12,215.3 14.8,213.2 14.8,214.3 12.6,215.8 14.8,217.4 14.8,218.5 11.9,216.4 9.3,218.3 9.3,217.3 
	11.3,215.8 9.3,214.4 "/>
<path d="M12.1,208c-0.7,0-1.2,0.1-1.5,0.4c-0.4,0.3-0.6,0.7-0.6,1.1c0,0.5,0.2,0.8,0.6,1.1c0.4,0.3,0.9,0.4,1.5,0.4s1.2-0.1,1.6-0.4
	c0.4-0.3,0.6-0.6,0.6-1.1c0-0.5-0.2-0.8-0.6-1.1C13.2,208.1,12.7,208,12.1,208z M14,211.1h2.9v0.9H9.3v-0.9h0.8
	c-0.3-0.2-0.6-0.4-0.7-0.7c-0.2-0.3-0.2-0.6-0.2-1c0-0.7,0.3-1.2,0.8-1.6c0.5-0.4,1.2-0.6,2.1-0.6c0.9,0,1.6,0.2,2.1,0.6
	c0.5,0.4,0.8,1,0.8,1.6c0,0.4-0.1,0.8-0.2,1C14.5,210.6,14.3,210.9,14,211.1z"/>
<path d="M11.6,201.8c-0.5,0-0.9,0.1-1.2,0.4c-0.3,0.3-0.4,0.6-0.4,1.1c0,0.5,0.1,0.9,0.4,1.2c0.3,0.3,0.7,0.5,1.2,0.5V201.8z
	 M11.8,200.9h0.4v4.1c0.6,0,1.1-0.2,1.4-0.6c0.3-0.3,0.5-0.8,0.5-1.4c0-0.3,0-0.7-0.1-1c-0.1-0.3-0.2-0.6-0.4-1h0.9
	c0.1,0.3,0.2,0.7,0.3,1c0.1,0.3,0.1,0.7,0.1,1c0,0.9-0.2,1.6-0.8,2.1c-0.5,0.5-1.2,0.8-2.1,0.8c-0.9,0-1.6-0.2-2.1-0.7
	c-0.5-0.5-0.8-1.1-0.8-2c0-0.7,0.2-1.3,0.7-1.8C10.4,201.1,11,200.9,11.8,200.9z"/>
<path d="M9.5,195.5h0.8c-0.1,0.3-0.2,0.5-0.3,0.8S10,196.8,10,197c0,0.6,0.2,1,0.6,1.4c0.4,0.3,0.9,0.5,1.5,0.5
	c0.7,0,1.2-0.2,1.6-0.5c0.4-0.3,0.6-0.8,0.6-1.4c0-0.3,0-0.5-0.1-0.8c-0.1-0.3-0.2-0.5-0.3-0.8h0.8c0.1,0.3,0.2,0.5,0.3,0.8
	c0.1,0.3,0.1,0.6,0.1,0.9c0,0.8-0.2,1.5-0.8,2c-0.5,0.5-1.2,0.7-2.1,0.7c-0.9,0-1.6-0.2-2.1-0.7c-0.5-0.5-0.8-1.2-0.8-2
	c0-0.3,0-0.6,0.1-0.8S9.4,195.7,9.5,195.5z"/>
<path d="M7.8,193h1.6v-1.9H10v1.9h3c0.4,0,0.7-0.1,0.9-0.2c0.1-0.1,0.2-0.4,0.2-0.8v-0.9h0.8v0.9c0,0.7-0.1,1.2-0.4,1.4
	c-0.3,0.3-0.7,0.4-1.4,0.4h-3v0.7H9.3v-0.7H7.8V193z"/>
<path d="M11.6,186.2c-0.5,0-0.9,0.1-1.2,0.4c-0.3,0.3-0.4,0.6-0.4,1.1c0,0.5,0.1,0.9,0.4,1.2c0.3,0.3,0.7,0.5,1.2,0.5V186.2z
	 M11.8,185.3h0.4v4.1c0.6,0,1.1-0.2,1.4-0.6c0.3-0.3,0.5-0.8,0.5-1.4c0-0.3,0-0.7-0.1-1c-0.1-0.3-0.2-0.6-0.4-1h0.9
	c0.1,0.3,0.2,0.7,0.3,1c0.1,0.3,0.1,0.7,0.1,1c0,0.9-0.2,1.6-0.8,2.1c-0.5,0.5-1.2,0.8-2.1,0.8c-0.9,0-1.6-0.2-2.1-0.7
	c-0.5-0.5-0.8-1.1-0.8-2c0-0.7,0.2-1.3,0.7-1.8C10.4,185.5,11,185.3,11.8,185.3z"/>
<path d="M12.1,183.3c0.7,0,1.2-0.1,1.6-0.4c0.4-0.3,0.6-0.6,0.6-1.1s-0.2-0.9-0.6-1.1c-0.4-0.3-0.9-0.4-1.6-0.4s-1.2,0.1-1.5,0.4
	c-0.4,0.3-0.6,0.7-0.6,1.1s0.2,0.9,0.6,1.1C10.9,183.2,11.4,183.3,12.1,183.3z M10.2,180.3h-3v-0.9h7.6v0.9H14
	c0.3,0.2,0.6,0.4,0.7,0.7c0.2,0.3,0.2,0.6,0.2,1c0,0.7-0.3,1.2-0.8,1.6c-0.5,0.4-1.2,0.6-2.1,0.6c-0.9,0-1.5-0.2-2.1-0.6
	c-0.5-0.4-0.8-1-0.8-1.6c0-0.4,0.1-0.7,0.2-1C9.6,180.7,9.8,180.4,10.2,180.3z"/>
<path d="M8.3,173.3h2.6v-1.2c0-0.5-0.1-0.8-0.3-1.1c-0.2-0.2-0.5-0.4-1-0.4c-0.4,0-0.7,0.1-1,0.4c-0.2,0.2-0.3,0.6-0.3,1.1V173.3z
	 M11.4,170.8c0.1-0.2,0.2-0.4,0.5-0.6c0.2-0.2,0.6-0.4,1-0.6l2-1v1.1l-1.9,0.9c-0.5,0.2-0.8,0.5-1,0.7c-0.2,0.2-0.2,0.5-0.2,0.9v1.1
	h3.1v1H7.5v-2.2c0-0.8,0.2-1.4,0.5-1.9c0.3-0.4,0.9-0.6,1.6-0.6c0.5,0,0.9,0.1,1.2,0.3C11.1,170.1,11.3,170.4,11.4,170.8z"/>
<path d="M11.6,164c-0.5,0-0.9,0.1-1.2,0.4c-0.3,0.3-0.4,0.6-0.4,1.1c0,0.5,0.1,0.9,0.4,1.2c0.3,0.3,0.7,0.5,1.2,0.5V164z
	 M11.8,163.1h0.4v4.1c0.6,0,1.1-0.2,1.4-0.6c0.3-0.3,0.5-0.8,0.5-1.4c0-0.3,0-0.7-0.1-1c-0.1-0.3-0.2-0.6-0.4-1h0.9
	c0.1,0.3,0.2,0.7,0.3,1c0.1,0.3,0.1,0.7,0.1,1c0,0.9-0.2,1.6-0.8,2.1c-0.5,0.5-1.2,0.8-2.1,0.8c-0.9,0-1.6-0.2-2.1-0.7
	c-0.5-0.5-0.8-1.1-0.8-2c0-0.7,0.2-1.3,0.7-1.8C10.4,163.3,11,163.1,11.8,163.1z"/>
<path d="M7.8,160.8h1.6v-1.9H10v1.9h3c0.4,0,0.7-0.1,0.9-0.2c0.1-0.1,0.2-0.4,0.2-0.8v-0.9h0.8v0.9c0,0.7-0.1,1.2-0.4,1.4
	c-0.3,0.3-0.7,0.4-1.4,0.4h-3v0.7H9.3v-0.7H7.8V160.8z"/>
<path d="M9.2,155.6L9.2,155.6z M12.6,157.8H9.3v-0.9h3.3c0.5,0,0.9-0.1,1.2-0.3c0.3-0.2,0.4-0.5,0.4-0.9c0-0.5-0.1-0.9-0.5-1.1
	c-0.3-0.3-0.7-0.4-1.3-0.4H9.3v-0.9h5.5v0.9H14c0.3,0.2,0.6,0.5,0.7,0.8c0.2,0.3,0.2,0.6,0.2,1c0,0.6-0.2,1.1-0.6,1.4
	C14,157.7,13.4,157.8,12.6,157.8z"/>
<path d="M10.2,148.2c-0.1,0.1-0.1,0.2-0.1,0.3c0,0.1,0,0.2,0,0.4c0,0.5,0.2,0.9,0.5,1.2c0.3,0.3,0.8,0.4,1.4,0.4h2.9v0.9H9.3v-0.9
	h0.9c-0.3-0.2-0.6-0.4-0.7-0.7c-0.2-0.3-0.2-0.7-0.2-1.1c0-0.1,0-0.1,0-0.2c0-0.1,0-0.1,0-0.2H10.2z"/>
<path d="M11.5,142.9h3.3v0.9h-3.3c-0.5,0-0.9,0.1-1.2,0.3S10,144.6,10,145c0,0.5,0.2,0.9,0.5,1.2s0.7,0.4,1.3,0.4h3.1v0.9H9.3v-0.9
	h0.9c-0.3-0.2-0.6-0.5-0.7-0.8c-0.2-0.3-0.2-0.6-0.2-1c0-0.6,0.2-1.1,0.6-1.4C10.2,143.1,10.7,142.9,11.5,142.9z"/>
<path d="M7.2,135.8c0.8,0.4,1.5,0.8,2.2,1c0.7,0.2,1.5,0.3,2.2,0.3c0.8,0,1.5-0.1,2.2-0.3c0.7-0.2,1.5-0.5,2.2-1v0.8
	c-0.8,0.5-1.5,0.9-2.2,1.1c-0.7,0.2-1.5,0.4-2.2,0.4c-0.7,0-1.4-0.1-2.2-0.4c-0.7-0.2-1.5-0.6-2.3-1.1V135.8z"/>
<path d="M7.2,127.8V127c0.8-0.5,1.5-0.9,2.3-1.1c0.7-0.2,1.5-0.4,2.2-0.4c0.7,0,1.5,0.1,2.2,0.4c0.7,0.2,1.5,0.6,2.2,1.1v0.8
	c-0.8-0.4-1.5-0.8-2.2-1c-0.7-0.2-1.5-0.3-2.2-0.3c-0.8,0-1.5,0.1-2.2,0.3C8.7,127.1,8,127.4,7.2,127.8z"/>
<g>
	<defs>
		<rect id="SVGID_9_" x="2.5" y="117" width="17" height="28.1"/>
	</defs>
	<clipPath id="SVGID_10_">
		<use xlink:href="#SVGID_9_"  style="overflow:visible;"/>
	</clipPath>
	<path class="st6" d="M16.9,134.1H9.3v-0.9h3.4c0.5,0,0.8-0.1,1.1-0.3s0.4-0.6,0.4-1c0-0.5-0.1-0.8-0.4-1.1
		c-0.3-0.2-0.7-0.4-1.2-0.4H9.3v-0.9h4.2c0.2,0,0.3,0,0.4-0.1c0.1-0.1,0.1-0.1,0.1-0.3c0,0,0-0.1,0-0.1c0-0.1-0.1-0.1-0.1-0.2h0.7
		c0.1,0.1,0.1,0.3,0.1,0.4s0.1,0.2,0.1,0.3c0,0.2-0.1,0.4-0.2,0.5c-0.1,0.1-0.3,0.2-0.6,0.3c0.3,0.2,0.5,0.4,0.6,0.6
		c0.1,0.2,0.2,0.5,0.2,0.8c0,0.3-0.1,0.6-0.2,0.9c-0.1,0.2-0.3,0.4-0.6,0.5h2.7V134.1z"/>
</g>
<g>
	<defs>
		<rect id="SVGID_11_" x="58.5" y="-42.5" width="558" height="434.9"/>
	</defs>
	<clipPath id="SVGID_12_">
		<use xlink:href="#SVGID_11_"  style="overflow:visible;"/>
	</clipPath>
	<path class="st7" d="M58.5,175.3C204,123.5,349,73.5,496,22.5c19-7,37-14,56.5-21.2"/>
</g>
<g>
	<defs>
		<rect id="SVGID_13_" x="58.5" y="-42.5" width="558" height="434.9"/>
	</defs>
	<clipPath id="SVGID_14_">
		<use xlink:href="#SVGID_13_"  style="overflow:visible;"/>
	</clipPath>
	<path class="st8" d="M58.5,175.3c138.5,50.2,276.5,96.2,414.9,146"/>
</g>
<g>
	<defs>
		<rect id="SVGID_15_" x="58.5" y="-42.5" width="558" height="434.9"/>
	</defs>
	<clipPath id="SVGID_16_">
		<use xlink:href="#SVGID_15_"  style="overflow:visible;"/>
	</clipPath>
	<polyline class="st9" points="295.4,155.9 297.7,152.7 299.3,150.6 302.4,147.1 306,143.4 309.7,140.1 314.4,136.1 318.6,132.8 
		323.1,129.5 329.4,125.1 336.8,120.4 343.8,116.1 352.4,111.1 362,105.8 373.6,99.7 387.2,92.9 393,90 	"/>
</g>
<g>
	<defs>
		<rect id="SVGID_17_" x="58.5" y="-42.5" width="558" height="434.9"/>
	</defs>
	<clipPath id="SVGID_18_">
		<use xlink:href="#SVGID_17_"  style="overflow:visible;"/>
	</clipPath>
	<polyline class="st10" points="499.7,307.7 471.1,295.7 451.5,287.3 431.9,278.7 413.7,270.5 399.6,263.8 385.1,256.8 371.3,249.8 
		359.7,243.6 348.8,237.5 339.6,232 332.6,227.6 326.4,223.4 320,218.9 315.6,215.5 311.3,212 307.4,208.5 303.8,205 300.5,201.4 
		297.7,198 296.3,196.1 294.6,193.6 293.1,191 291.8,188.3 290.7,185.6 289.9,183.1 289.3,180.4 288.9,177.8 288.8,175.2 
		288.9,172.5 289.3,169.9 290,167.3 290.8,164.6 292.1,161.7 293.5,159 294.8,156.7 	"/>
	<path class="st10" d="M394.8,89.1C457,58.5,523,34.5,587,8"/>
</g>
<g>
	<defs>
		<rect id="SVGID_19_" x="58.5" y="-42.5" width="558" height="434.9"/>
	</defs>
	<clipPath id="SVGID_20_">
		<use xlink:href="#SVGID_19_"  style="overflow:visible;"/>
	</clipPath>
	<line class="st11" x1="58.5" y1="175.3" x2="288.8" y2="175.3"/>
</g>
<g>
	<defs>
		<rect id="SVGID_21_" x="58.5" y="-42.5" width="558" height="434.9"/>
	</defs>
	<clipPath id="SVGID_22_">
		<use xlink:href="#SVGID_21_"  style="overflow:visible;"/>
	</clipPath>
	<line class="st12" x1="288.8" y1="288.4" x2="288.8" y2="175.3"/>
</g>
<path class="st13" d="M58.6,342.4C59,232.5,59,123.5,58.7,13.8"/>
<line class="st13" x1="58.5" y1="288.4" x2="616.5" y2="288.4"/>
<path d="M299.1,145.4c-0.4,0.8-0.8,1.5-1,2.2c-0.2,0.7-0.3,1.5-0.3,2.2c0,0.8,0.1,1.5,0.3,2.2c0.2,0.7,0.5,1.5,1,2.2h-0.8
	c-0.5-0.8-0.9-1.5-1.1-2.2c-0.2-0.7-0.4-1.5-0.4-2.2c0-0.7,0.1-1.4,0.4-2.2s0.6-1.5,1.1-2.3H299.1z"/>
<polygon points="307.5,152.2 309.1,152.2 309.1,146.6 307.3,146.9 307.3,146 309.1,145.7 310,145.7 310,152.2 311.7,152.2 
	311.7,153 307.5,153 "/>
<polygon points="313.7,151.7 314.8,151.7 314.8,152.6 314,154.1 313.3,154.1 313.7,152.6 "/>
<polygon points="326.5,152.2 328.1,152.2 328.1,146.6 326.4,146.9 326.4,146 328.1,145.7 329.1,145.7 329.1,152.2 330.7,152.2 
	330.7,153 326.5,153 "/>
<path d="M332.5,145.4h0.8c0.5,0.8,0.9,1.5,1.1,2.3c0.2,0.7,0.4,1.5,0.4,2.2c0,0.7-0.1,1.5-0.4,2.2c-0.2,0.7-0.6,1.5-1.1,2.2h-0.8
	c0.4-0.8,0.8-1.5,1-2.2c0.2-0.7,0.3-1.5,0.3-2.2c0-0.8-0.1-1.5-0.3-2.2C333.2,146.9,332.9,146.2,332.5,145.4z"/>
<g>
	<defs>
		<rect id="SVGID_23_" x="289.7" y="140.7" width="28.1" height="17"/>
	</defs>
	<clipPath id="SVGID_24_">
		<use xlink:href="#SVGID_23_"  style="overflow:visible;"/>
	</clipPath>
	<path class="st14" d="M302.9,147.5h3v0.9h-1c0.4,0.5,0.5,1.1,0.5,1.8c0,0.9-0.2,1.6-0.7,2.1c-0.4,0.5-1.1,0.8-1.8,0.8
		c-0.8,0-1.4-0.2-1.8-0.8c-0.5-0.5-0.7-1.2-0.7-2.1c0-0.9,0.2-1.6,0.7-2.1C301.5,147.7,302.1,147.5,302.9,147.5z M302.9,148.2
		c-0.5,0-0.9,0.2-1.1,0.5c-0.3,0.4-0.4,0.9-0.4,1.5c0,0.7,0.1,1.2,0.4,1.6c0.3,0.4,0.7,0.6,1.1,0.6c0.5,0,0.9-0.2,1.1-0.6
		c0.3-0.4,0.4-0.9,0.4-1.6c0-0.6-0.1-1.1-0.4-1.5C303.8,148.4,303.4,148.2,302.9,148.2z"/>
</g>
<g>
	<defs>
		<rect id="SVGID_25_" x="308.7" y="140.7" width="28.1" height="17"/>
	</defs>
	<clipPath id="SVGID_26_">
		<use xlink:href="#SVGID_25_"  style="overflow:visible;"/>
	</clipPath>
	<path class="st15" d="M319.8,155.1v-7.5h0.9v3.4c0,0.5,0.1,0.8,0.3,1.1s0.6,0.4,1,0.4c0.5,0,0.8-0.1,1.1-0.4
		c0.2-0.3,0.4-0.7,0.4-1.2v-3.2h0.9v4.2c0,0.2,0,0.3,0.1,0.4c0.1,0.1,0.1,0.1,0.3,0.1c0,0,0.1,0,0.1,0c0.1,0,0.1,0,0.2-0.1v0.7
		c-0.1,0.1-0.3,0.1-0.4,0.2c-0.1,0-0.2,0.1-0.3,0.1c-0.2,0-0.4-0.1-0.5-0.2c-0.1-0.1-0.2-0.3-0.3-0.6c-0.2,0.3-0.4,0.5-0.6,0.6
		c-0.2,0.1-0.5,0.2-0.8,0.2c-0.3,0-0.6-0.1-0.9-0.2c-0.2-0.1-0.4-0.3-0.5-0.6v2.7H319.8z"/>
</g>
<path d="M397.1,79.2c-0.4,0.8-0.8,1.5-1,2.2c-0.2,0.7-0.3,1.5-0.3,2.2c0,0.8,0.1,1.5,0.3,2.2c0.2,0.7,0.5,1.5,1,2.2h-0.8
	c-0.5-0.8-0.9-1.5-1.1-2.2s-0.4-1.5-0.4-2.2c0-0.7,0.1-1.4,0.4-2.2c0.2-0.7,0.6-1.5,1.1-2.3H397.1z"/>
<path d="M406.2,86h3.4v0.8H405V86c0.4-0.4,0.9-0.9,1.5-1.6c0.6-0.6,1-1.1,1.2-1.3c0.3-0.4,0.5-0.6,0.7-0.9c0.1-0.2,0.2-0.5,0.2-0.7
	c0-0.4-0.1-0.7-0.4-0.9c-0.3-0.2-0.6-0.4-1.1-0.4c-0.3,0-0.6,0.1-1,0.2c-0.3,0.1-0.7,0.3-1.1,0.5v-1c0.4-0.2,0.8-0.3,1.1-0.4
	c0.3-0.1,0.7-0.1,0.9-0.1c0.8,0,1.4,0.2,1.8,0.6c0.4,0.4,0.7,0.9,0.7,1.5c0,0.3-0.1,0.6-0.2,0.9c-0.1,0.3-0.3,0.6-0.6,0.9
	c-0.1,0.1-0.3,0.4-0.8,0.8S407,85.1,406.2,86z"/>
<polygon points="411.8,85.5 412.8,85.5 412.8,86.4 412,87.9 411.4,87.9 411.8,86.4 "/>
<path d="M425.3,86h3.4v0.8h-4.6V86c0.4-0.4,0.9-0.9,1.5-1.6c0.6-0.6,1-1.1,1.2-1.3c0.3-0.4,0.5-0.6,0.7-0.9c0.1-0.2,0.2-0.5,0.2-0.7
	c0-0.4-0.1-0.7-0.4-0.9c-0.3-0.2-0.6-0.4-1.1-0.4c-0.3,0-0.6,0.1-1,0.2c-0.3,0.1-0.7,0.3-1.1,0.5v-1c0.4-0.2,0.8-0.3,1.1-0.4
	c0.3-0.1,0.7-0.1,0.9-0.1c0.8,0,1.4,0.2,1.8,0.6c0.4,0.4,0.7,0.9,0.7,1.5c0,0.3-0.1,0.6-0.2,0.9c-0.1,0.3-0.3,0.6-0.6,0.9
	c-0.1,0.1-0.3,0.4-0.8,0.8S426.1,85.1,425.3,86z"/>
<path d="M430.5,79.2h0.8c0.5,0.8,0.9,1.5,1.1,2.3c0.2,0.7,0.4,1.5,0.4,2.2c0,0.7-0.1,1.5-0.4,2.2c-0.2,0.7-0.6,1.5-1.1,2.2h-0.8
	c0.4-0.8,0.8-1.5,1-2.2c0.2-0.7,0.3-1.5,0.3-2.2c0-0.8-0.1-1.5-0.3-2.2C431.3,80.7,431,80,430.5,79.2z"/>
<g>
	<defs>
		<rect id="SVGID_27_" x="387.7" y="74.5" width="28.1" height="17"/>
	</defs>
	<clipPath id="SVGID_28_">
		<use xlink:href="#SVGID_27_"  style="overflow:visible;"/>
	</clipPath>
	<path class="st16" d="M401,81.3h3v0.9h-1c0.4,0.5,0.5,1.1,0.5,1.8c0,0.9-0.2,1.6-0.7,2.1c-0.4,0.5-1.1,0.8-1.8,0.8
		c-0.8,0-1.4-0.2-1.8-0.8c-0.5-0.5-0.7-1.2-0.7-2.1c0-0.9,0.2-1.6,0.7-2.1C399.5,81.5,400.1,81.3,401,81.3z M401,82
		c-0.5,0-0.9,0.2-1.1,0.5c-0.3,0.4-0.4,0.9-0.4,1.5c0,0.7,0.1,1.2,0.4,1.6s0.7,0.6,1.1,0.6c0.5,0,0.9-0.2,1.1-0.6s0.4-0.9,0.4-1.6
		c0-0.6-0.1-1.1-0.4-1.5C401.9,82.2,401.5,82,401,82z"/>
</g>
<g>
	<defs>
		<rect id="SVGID_29_" x="406.8" y="74.5" width="28.1" height="17"/>
	</defs>
	<clipPath id="SVGID_30_">
		<use xlink:href="#SVGID_29_"  style="overflow:visible;"/>
	</clipPath>
	<path class="st17" d="M417.8,88.9v-7.5h0.9v3.4c0,0.5,0.1,0.8,0.3,1.1s0.6,0.4,1,0.4c0.5,0,0.8-0.1,1.1-0.4
		c0.2-0.3,0.4-0.7,0.4-1.2v-3.2h0.9v4.2c0,0.2,0,0.3,0.1,0.4c0.1,0.1,0.1,0.1,0.3,0.1c0,0,0.1,0,0.1,0c0.1,0,0.1-0.1,0.2-0.1v0.7
		c-0.1,0.1-0.3,0.1-0.4,0.1c-0.1,0-0.2,0.1-0.3,0.1c-0.2,0-0.4-0.1-0.5-0.2c-0.1-0.1-0.2-0.3-0.3-0.6c-0.2,0.3-0.4,0.5-0.6,0.6
		c-0.2,0.1-0.5,0.2-0.8,0.2c-0.3,0-0.6-0.1-0.9-0.2c-0.2-0.1-0.4-0.3-0.5-0.6v2.7H417.8z"/>
</g>
<polygon points="290.4,165 291.9,165 293.7,169.9 295.6,165 297.1,165 297.1,172.3 296.1,172.3 296.1,165.9 294.2,170.9 
	293.2,170.9 291.3,165.9 291.3,172.3 290.4,172.3 "/>
<path d="M299,164.7h0.9v1.1H299V164.7z M299,166.8h0.9v5.5H299V166.8z"/>
<path d="M306.3,169v3.3h-0.9V169c0-0.5-0.1-0.9-0.3-1.2c-0.2-0.3-0.5-0.4-0.9-0.4c-0.5,0-0.9,0.2-1.1,0.5c-0.3,0.3-0.4,0.7-0.4,1.3
	v3.1h-0.9v-5.5h0.9v0.9c0.2-0.3,0.5-0.6,0.8-0.7c0.3-0.2,0.6-0.2,1-0.2c0.6,0,1.1,0.2,1.4,0.6S306.3,168.2,306.3,169z"/>
<path d="M310.3,164.7c-0.4,0.8-0.8,1.5-1,2.2c-0.2,0.7-0.3,1.5-0.3,2.2c0,0.8,0.1,1.5,0.3,2.2c0.2,0.7,0.5,1.5,1,2.2h-0.8
	c-0.5-0.8-0.9-1.5-1.1-2.2c-0.2-0.7-0.4-1.5-0.4-2.2c0-0.7,0.1-1.4,0.4-2.2s0.6-1.5,1.1-2.3H310.3z"/>
<path d="M318.2,164.7h0.8c0.5,0.8,0.9,1.5,1.1,2.3c0.2,0.7,0.4,1.5,0.4,2.2c0,0.7-0.1,1.5-0.4,2.2c-0.2,0.7-0.6,1.5-1.1,2.2h-0.8
	c0.4-0.8,0.8-1.5,1-2.2c0.2-0.7,0.3-1.5,0.3-2.2c0-0.8-0.1-1.5-0.3-2.2C318.9,166.2,318.6,165.4,318.2,164.7z"/>
<g>
	<defs>
		<rect id="SVGID_31_" x="300.8" y="159.9" width="28.1" height="17"/>
	</defs>
	<clipPath id="SVGID_32_">
		<use xlink:href="#SVGID_31_"  style="overflow:visible;"/>
	</clipPath>
	<path class="st18" d="M314.1,166.8h3v0.9h-1c0.4,0.5,0.5,1.1,0.5,1.8c0,0.9-0.2,1.6-0.7,2.1c-0.4,0.5-1.1,0.8-1.8,0.8
		c-0.8,0-1.4-0.2-1.8-0.8c-0.5-0.5-0.7-1.2-0.7-2.1c0-0.9,0.2-1.6,0.7-2.1C312.6,167,313.2,166.8,314.1,166.8z M314.1,167.5
		c-0.5,0-0.9,0.2-1.1,0.5c-0.3,0.4-0.4,0.9-0.4,1.5c0,0.7,0.1,1.2,0.4,1.6c0.3,0.4,0.7,0.6,1.1,0.6c0.5,0,0.9-0.2,1.1-0.6
		c0.3-0.4,0.4-0.9,0.4-1.6c0-0.6-0.1-1.1-0.4-1.5C315,167.7,314.6,167.5,314.1,167.5z"/>
</g>
</svg>
