<?xml version="1.0" encoding="UTF-8"?>
<svg xmlns="http://www.w3.org/2000/svg" xmlns:xlink="http://www.w3.org/1999/xlink" width="16px" height="16px" viewBox="0 0 16 16" version="1.1">
<g id="surface1">
<path style=" stroke:none;fill-rule:nonzero;fill:rgb(61.176471%,63.137255%,64.705882%);fill-opacity:1;" d="M 14.441406 7.078125 C 14.558594 5.980469 14.441406 3.761719 14.21875 2.578125 C 14.179688 2.300781 14 1.960938 13.519531 1.859375 C 12.28125 1.558594 10.679688 1.398438 8.960938 1.378906 C 8.800781 2.621094 8.679688 4.320312 8.679688 6.261719 L 8.679688 7.039062 L 8.859375 7.058594 C 8.941406 7.058594 8.980469 7.121094 9 7.199219 C 9.019531 7.28125 9.019531 7.398438 9.019531 7.398438 C 9.019531 7.398438 12.300781 7.359375 14.441406 7.078125 Z M 14.441406 7.078125 "/>
<path style=" stroke:none;fill-rule:nonzero;fill:rgb(61.176471%,63.137255%,64.705882%);fill-opacity:1;" d="M 7.820312 8.621094 L 7.621094 8.601562 C 7.539062 8.601562 7.5 8.539062 7.480469 8.460938 C 7.480469 8.378906 7.460938 8.261719 7.460938 8.261719 C 6 8.261719 4.359375 8.261719 2.21875 8.558594 C 2.5 10.199219 4.378906 13.921875 7.421875 15.519531 C 7.578125 14.28125 7.800781 11.28125 7.800781 9.359375 L 7.800781 8.660156 Z M 7.820312 8.621094 "/>
<path style=" stroke:none;fill-rule:nonzero;fill:rgb(61.176471%,63.137255%,64.705882%);fill-opacity:1;" d="M 9.019531 8.261719 C 10.480469 8.261719 12.140625 8.261719 14.28125 8.558594 C 14 10.199219 12.121094 13.921875 9.078125 15.519531 C 8.921875 14.28125 8.679688 11.28125 8.679688 9.359375 L 8.699219 8.660156 L 8.699219 8.640625 L 8.878906 8.621094 C 8.960938 8.621094 9 8.558594 9.019531 8.480469 C 9 8.378906 9.019531 8.261719 9.019531 8.261719 Z M 9.019531 8.261719 "/>
<path style=" stroke:none;fill-rule:nonzero;fill:rgb(61.176471%,63.137255%,64.705882%);fill-opacity:1;" d="M 5.019531 4.941406 C 5.019531 4.960938 5.019531 4.980469 5.019531 5 C 5.039062 5 5.058594 5 5.078125 4.980469 C 5.101562 4.960938 5.101562 4.960938 5.121094 4.941406 C 5.101562 4.921875 5.019531 4.921875 5.019531 4.941406 Z M 5.019531 4.941406 "/>
<path style=" stroke:none;fill-rule:nonzero;fill:rgb(61.176471%,63.137255%,64.705882%);fill-opacity:1;" d="M 4.980469 4.199219 L 2.019531 7.078125 C 4.140625 7.378906 5.980469 7.398438 7.441406 7.398438 L 7.460938 7.398438 C 7.460938 7.398438 7.480469 7.300781 7.480469 7.199219 C 7.480469 7.121094 7.519531 7.058594 7.621094 7.058594 L 7.800781 7.039062 Z M 4.71875 5.039062 C 4.699219 5.078125 4.699219 5.140625 4.78125 5.140625 C 4.839844 5.140625 4.921875 5.101562 4.941406 5.078125 L 4.941406 5.101562 C 4.921875 5.101562 4.800781 5.199219 4.71875 5.199219 C 4.660156 5.199219 4.640625 5.160156 4.640625 5.140625 C 4.640625 5.101562 4.679688 5.101562 4.71875 5.039062 Z M 5.679688 5.738281 C 5.679688 5.800781 5.601562 5.820312 5.578125 5.839844 C 5.578125 5.859375 5.558594 5.859375 5.558594 5.878906 C 5.558594 5.839844 5.558594 5.820312 5.558594 5.800781 C 5.558594 5.78125 5.539062 5.761719 5.519531 5.761719 C 5.480469 5.761719 5.359375 5.859375 5.441406 6.019531 C 5.441406 5.960938 5.460938 5.921875 5.460938 5.921875 L 5.480469 5.878906 C 5.5 5.921875 5.5 5.941406 5.5 5.960938 C 5.5 6.019531 5.460938 6.039062 5.480469 6.101562 C 5.480469 6.121094 5.480469 6.121094 5.5 6.140625 C 5.5 6.121094 5.5 6.101562 5.5 6.078125 C 5.5 6.058594 5.539062 6.039062 5.539062 6.019531 C 5.539062 6 5.539062 6 5.539062 5.980469 C 5.558594 6 5.578125 6.019531 5.578125 6.078125 C 5.578125 6.140625 5.558594 6.160156 5.539062 6.179688 C 5.539062 6.199219 5.519531 6.21875 5.519531 6.238281 C 5.5 6.359375 5.460938 6.398438 5.378906 6.398438 C 5.339844 6.398438 5.300781 6.398438 5.28125 6.378906 C 5.28125 6.519531 5.121094 6.519531 5.121094 6.601562 C 5.121094 6.621094 5.140625 6.660156 5.160156 6.679688 C 5.179688 6.699219 5.238281 6.71875 5.261719 6.761719 C 5.21875 6.761719 5.179688 6.78125 5.160156 6.800781 C 5.21875 6.839844 5.21875 6.859375 5.21875 6.898438 C 5.160156 6.878906 5.140625 6.878906 5.121094 6.898438 C 5.101562 6.921875 5.121094 6.941406 5.078125 6.980469 C 5.078125 6.960938 5.058594 6.941406 5.039062 6.941406 C 5.019531 6.941406 4.960938 6.980469 4.960938 7 C 4.960938 7.039062 4.941406 7.058594 4.898438 7.058594 C 4.878906 7.078125 4.878906 7.101562 4.878906 7.121094 C 4.859375 7.101562 4.859375 7.078125 4.859375 7.039062 C 4.839844 7.039062 4.839844 7 4.839844 6.980469 C 4.820312 7 4.800781 7.019531 4.78125 7 C 4.761719 7 4.738281 7.019531 4.738281 7.058594 C 4.738281 7 4.738281 6.980469 4.761719 6.960938 C 4.761719 6.941406 4.761719 6.921875 4.78125 6.898438 C 4.78125 6.898438 4.78125 6.898438 4.78125 6.878906 C 4.761719 6.878906 4.738281 6.878906 4.738281 6.859375 C 4.71875 6.859375 4.699219 6.878906 4.699219 6.898438 C 4.699219 6.859375 4.71875 6.839844 4.738281 6.820312 C 4.761719 6.78125 4.800781 6.761719 4.839844 6.800781 C 4.859375 6.820312 4.878906 6.839844 4.921875 6.839844 C 4.960938 6.839844 4.980469 6.820312 5 6.800781 C 5 6.78125 5 6.78125 5.019531 6.78125 C 5.019531 6.761719 5.039062 6.738281 5 6.699219 C 4.980469 6.660156 4.898438 6.601562 4.898438 6.539062 C 4.898438 6.460938 4.941406 6.421875 4.980469 6.378906 C 4.960938 6.378906 4.980469 6.378906 4.960938 6.378906 C 4.898438 6.378906 4.898438 6.339844 4.859375 6.339844 C 4.820312 6.339844 4.800781 6.378906 4.800781 6.421875 C 4.800781 6.460938 4.800781 6.460938 4.820312 6.480469 C 4.839844 6.519531 4.839844 6.519531 4.839844 6.558594 C 4.800781 6.539062 4.761719 6.519531 4.738281 6.558594 C 4.71875 6.601562 4.71875 6.621094 4.699219 6.640625 C 4.699219 6.601562 4.640625 6.558594 4.578125 6.621094 C 4.578125 6.640625 4.578125 6.660156 4.519531 6.660156 C 4.5 6.660156 4.5 6.660156 4.480469 6.660156 C 4.460938 6.679688 4.441406 6.699219 4.441406 6.71875 C 4.441406 6.679688 4.441406 6.660156 4.460938 6.640625 C 4.460938 6.621094 4.460938 6.601562 4.480469 6.578125 C 4.460938 6.601562 4.421875 6.601562 4.398438 6.578125 C 4.378906 6.578125 4.378906 6.601562 4.359375 6.621094 C 4.359375 6.578125 4.378906 6.558594 4.398438 6.539062 C 4.398438 6.519531 4.441406 6.5 4.480469 6.5 C 4.480469 6.5 4.480469 6.5 4.480469 6.480469 C 4.480469 6.480469 4.441406 6.480469 4.441406 6.441406 C 4.421875 6.441406 4.398438 6.441406 4.378906 6.460938 C 4.398438 6.421875 4.421875 6.421875 4.441406 6.421875 C 4.441406 6.398438 4.480469 6.398438 4.480469 6.398438 C 4.5 6.398438 4.519531 6.421875 4.519531 6.421875 C 4.539062 6.460938 4.601562 6.480469 4.660156 6.480469 C 4.679688 6.480469 4.699219 6.460938 4.699219 6.421875 C 4.699219 6.378906 4.601562 6.21875 4.601562 6.179688 C 4.601562 6.140625 4.679688 6.058594 4.71875 6.058594 C 4.878906 6.058594 4.898438 6.121094 4.941406 6.121094 C 4.980469 6.121094 5 6.121094 5 6.101562 C 4.921875 6.019531 4.878906 6.019531 4.820312 5.960938 C 4.78125 5.941406 4.761719 5.898438 4.761719 5.859375 C 4.71875 5.859375 4.679688 5.921875 4.660156 5.960938 C 4.660156 5.941406 4.640625 5.941406 4.621094 5.941406 C 4.578125 5.941406 4.558594 5.980469 4.539062 6.019531 C 4.539062 5.980469 4.5 5.941406 4.460938 5.941406 C 4.441406 5.941406 4.398438 5.960938 4.398438 5.980469 C 4.398438 6 4.359375 6.019531 4.320312 6.019531 C 4.300781 6.019531 4.300781 6.039062 4.28125 6.078125 C 4.261719 6.019531 4.28125 6.019531 4.28125 6 C 4.28125 5.960938 4.28125 5.960938 4.300781 5.941406 C 4.28125 5.941406 4.238281 5.941406 4.238281 5.921875 C 4.21875 5.921875 4.199219 5.921875 4.179688 5.960938 C 4.179688 5.921875 4.199219 5.898438 4.21875 5.878906 C 4.21875 5.859375 4.261719 5.839844 4.28125 5.839844 C 4.261719 5.839844 4.261719 5.820312 4.261719 5.800781 C 4.238281 5.78125 4.21875 5.800781 4.199219 5.800781 C 4.21875 5.761719 4.261719 5.761719 4.300781 5.78125 C 4.359375 5.761719 4.378906 5.78125 4.378906 5.820312 C 4.378906 5.859375 4.441406 5.859375 4.5 5.859375 C 4.621094 5.859375 4.800781 5.761719 4.800781 5.660156 C 4.78125 5.660156 4.761719 5.660156 4.738281 5.660156 C 4.679688 5.660156 4.601562 5.738281 4.539062 5.738281 C 4.578125 5.699219 4.558594 5.679688 4.558594 5.640625 C 4.519531 5.640625 4.5 5.660156 4.421875 5.660156 C 4.441406 5.640625 4.460938 5.601562 4.460938 5.578125 C 4.460938 5.558594 4.460938 5.539062 4.378906 5.539062 C 4.378906 5.539062 4.359375 5.539062 4.339844 5.539062 C 4.320312 5.539062 4.28125 5.539062 4.28125 5.5 C 4.261719 5.5 4.238281 5.5 4.21875 5.519531 C 4.21875 5.5 4.28125 5.460938 4.28125 5.460938 C 4.28125 5.441406 4.300781 5.441406 4.320312 5.441406 C 4.320312 5.441406 4.320312 5.441406 4.320312 5.421875 C 4.300781 5.421875 4.261719 5.398438 4.261719 5.359375 C 4.238281 5.339844 4.238281 5.339844 4.199219 5.359375 C 4.238281 5.320312 4.261719 5.320312 4.28125 5.339844 C 4.320312 5.320312 4.339844 5.320312 4.359375 5.339844 C 4.359375 5.320312 4.359375 5.300781 4.359375 5.28125 C 4.359375 5.261719 4.339844 5.238281 4.320312 5.238281 C 4.378906 5.238281 4.398438 5.261719 4.421875 5.28125 C 4.441406 5.28125 4.460938 5.320312 4.460938 5.320312 C 4.460938 5.359375 4.421875 5.398438 4.5 5.460938 C 4.539062 5.480469 4.578125 5.5 4.621094 5.5 C 4.660156 5.5 4.71875 5.539062 4.738281 5.539062 C 4.71875 5.519531 4.738281 5.480469 4.699219 5.460938 C 4.738281 5.460938 4.761719 5.460938 4.800781 5.480469 C 4.800781 5.441406 4.800781 5.441406 4.78125 5.421875 C 4.800781 5.421875 4.839844 5.421875 4.839844 5.421875 C 4.960938 5.441406 4.960938 5.378906 4.980469 5.300781 C 4.941406 5.300781 4.878906 5.320312 4.820312 5.359375 C 4.820312 5.339844 4.820312 5.320312 4.820312 5.300781 C 4.820312 5.261719 4.839844 5.261719 4.859375 5.261719 C 4.859375 5.261719 4.878906 5.261719 4.898438 5.261719 C 4.921875 5.261719 4.960938 5.238281 4.941406 5.179688 C 4.941406 5.160156 4.921875 5.140625 4.898438 5.140625 C 4.878906 5.140625 4.878906 5.140625 4.859375 5.160156 C 4.839844 5.160156 4.839844 5.179688 4.839844 5.199219 C 4.839844 5.199219 4.839844 5.160156 4.820312 5.160156 C 4.820312 5.160156 4.820312 5.140625 4.800781 5.140625 C 4.800781 5.140625 4.800781 5.140625 4.800781 5.121094 C 4.78125 5.101562 4.800781 5.078125 4.839844 5.058594 C 4.859375 5.058594 4.898438 5.039062 4.921875 5.039062 C 4.960938 5.019531 4.980469 5.019531 4.980469 5 C 4.980469 4.980469 5 4.960938 5.019531 4.960938 C 5.039062 4.960938 5.078125 4.960938 5.078125 4.960938 C 5.140625 4.960938 5.199219 4.921875 5.179688 4.859375 C 5.21875 4.859375 5.238281 4.921875 5.21875 4.960938 C 5.238281 4.960938 5.300781 4.941406 5.320312 4.941406 C 5.320312 4.980469 5.28125 5.039062 5.261719 5.039062 C 5.300781 5.039062 5.339844 5.039062 5.359375 5.019531 C 5.359375 5.058594 5.320312 5.121094 5.300781 5.121094 C 5.339844 5.140625 5.378906 5.160156 5.398438 5.21875 C 5.359375 5.199219 5.339844 5.21875 5.300781 5.21875 C 5.359375 5.300781 5.398438 5.421875 5.421875 5.460938 C 5.398438 5.460938 5.359375 5.421875 5.339844 5.421875 C 5.359375 5.480469 5.320312 5.558594 5.339844 5.578125 C 5.320312 5.558594 5.300781 5.558594 5.28125 5.539062 C 5.261719 5.558594 5.238281 5.621094 5.261719 5.699219 C 5.238281 5.621094 5.199219 5.621094 5.199219 5.601562 C 5.179688 5.640625 5.160156 5.660156 5.160156 5.761719 C 5.160156 5.898438 5.21875 6.019531 5.238281 6.058594 C 5.28125 6.140625 5.28125 6.199219 5.300781 6.21875 C 5.320312 6.28125 5.339844 6.300781 5.398438 6.300781 C 5.441406 6.300781 5.480469 6.261719 5.480469 6.199219 C 5.480469 6.101562 5.359375 6.039062 5.359375 5.878906 C 5.359375 5.78125 5.441406 5.71875 5.441406 5.640625 C 5.441406 5.578125 5.378906 5.621094 5.339844 5.601562 C 5.398438 5.601562 5.421875 5.539062 5.480469 5.539062 C 5.519531 5.539062 5.539062 5.558594 5.539062 5.578125 C 5.539062 5.621094 5.519531 5.640625 5.519531 5.660156 C 5.558594 5.621094 5.578125 5.558594 5.578125 5.519531 C 5.578125 5.480469 5.519531 5.421875 5.539062 5.339844 C 5.539062 5.320312 5.539062 5.339844 5.539062 5.320312 C 5.558594 5.421875 5.699219 5.441406 5.699219 5.539062 C 5.699219 5.640625 5.621094 5.621094 5.578125 5.679688 C 5.621094 5.660156 5.679688 5.679688 5.679688 5.738281 Z M 5.679688 5.738281 "/>
<path style=" stroke:none;fill-rule:nonzero;fill:rgb(61.176471%,63.137255%,64.705882%);fill-opacity:1;" d="M 7.539062 1.378906 C 5.820312 1.398438 4.179688 1.558594 2.980469 1.839844 C 2.5 1.941406 2.320312 2.300781 2.28125 2.558594 C 2.140625 3.339844 1.941406 4.898438 2 6.480469 C 2.300781 6.199219 5 3.558594 5 3.558594 L 7.820312 6.359375 C 7.820312 4.460938 7.679688 2.621094 7.539062 1.378906 Z M 3.339844 2.300781 C 3.320312 2.339844 3.339844 2.398438 3.398438 2.398438 C 3.460938 2.398438 3.539062 2.359375 3.558594 2.339844 L 3.558594 2.359375 C 3.539062 2.359375 3.421875 2.460938 3.320312 2.460938 C 3.261719 2.460938 3.238281 2.421875 3.238281 2.398438 C 3.261719 2.359375 3.300781 2.339844 3.339844 2.300781 Z M 4.320312 3 C 4.320312 3.058594 4.238281 3.078125 4.21875 3.101562 C 4.21875 3.121094 4.199219 3.121094 4.199219 3.140625 C 4.199219 3.101562 4.199219 3.078125 4.199219 3.058594 C 4.199219 3.039062 4.179688 3.019531 4.160156 3.019531 C 4.121094 3.019531 4 3.121094 4.078125 3.28125 C 4.078125 3.21875 4.101562 3.179688 4.101562 3.179688 L 4.121094 3.140625 C 4.140625 3.179688 4.140625 3.199219 4.140625 3.238281 C 4.140625 3.320312 4.101562 3.320312 4.121094 3.378906 C 4.121094 3.398438 4.121094 3.398438 4.140625 3.421875 C 4.140625 3.398438 4.140625 3.378906 4.140625 3.359375 C 4.140625 3.339844 4.160156 3.320312 4.179688 3.300781 C 4.179688 3.28125 4.179688 3.28125 4.179688 3.261719 C 4.199219 3.28125 4.21875 3.320312 4.21875 3.359375 C 4.21875 3.421875 4.199219 3.441406 4.199219 3.460938 C 4.199219 3.480469 4.179688 3.480469 4.179688 3.519531 C 4.160156 3.640625 4.101562 3.679688 4.039062 3.679688 C 4 3.679688 3.960938 3.679688 3.921875 3.660156 C 3.921875 3.800781 3.761719 3.800781 3.761719 3.898438 C 3.761719 3.921875 3.78125 3.960938 3.800781 3.980469 C 3.820312 4 3.878906 4.019531 3.921875 4.058594 C 3.878906 4.058594 3.839844 4.078125 3.820312 4.101562 C 3.878906 4.121094 3.878906 4.160156 3.878906 4.199219 C 3.820312 4.179688 3.800781 4.179688 3.78125 4.199219 C 3.761719 4.21875 3.78125 4.238281 3.761719 4.28125 C 3.761719 4.261719 3.738281 4.238281 3.71875 4.238281 C 3.699219 4.238281 3.640625 4.28125 3.640625 4.300781 C 3.640625 4.339844 3.621094 4.359375 3.578125 4.359375 C 3.558594 4.378906 3.558594 4.398438 3.558594 4.441406 C 3.539062 4.421875 3.539062 4.398438 3.539062 4.359375 C 3.519531 4.359375 3.519531 4.320312 3.519531 4.300781 C 3.5 4.320312 3.5 4.339844 3.460938 4.320312 C 3.441406 4.320312 3.421875 4.339844 3.421875 4.378906 C 3.421875 4.320312 3.421875 4.300781 3.441406 4.28125 C 3.441406 4.261719 3.441406 4.238281 3.460938 4.21875 C 3.460938 4.21875 3.460938 4.21875 3.460938 4.199219 C 3.441406 4.199219 3.421875 4.199219 3.421875 4.179688 C 3.398438 4.179688 3.378906 4.199219 3.359375 4.21875 C 3.359375 4.179688 3.378906 4.160156 3.398438 4.140625 C 3.421875 4.101562 3.460938 4.078125 3.5 4.121094 C 3.519531 4.140625 3.539062 4.140625 3.578125 4.140625 C 3.621094 4.140625 3.640625 4.121094 3.660156 4.101562 C 3.660156 4.078125 3.660156 4.078125 3.679688 4.078125 C 3.679688 4.058594 3.699219 4.039062 3.660156 4 C 3.640625 3.960938 3.558594 3.898438 3.558594 3.839844 C 3.558594 3.761719 3.601562 3.71875 3.640625 3.679688 C 3.621094 3.679688 3.640625 3.679688 3.621094 3.679688 C 3.558594 3.679688 3.558594 3.640625 3.519531 3.640625 C 3.480469 3.640625 3.460938 3.679688 3.460938 3.71875 C 3.460938 3.761719 3.460938 3.761719 3.480469 3.78125 C 3.5 3.800781 3.5 3.820312 3.5 3.859375 C 3.480469 3.839844 3.421875 3.820312 3.398438 3.839844 C 3.378906 3.878906 3.378906 3.898438 3.359375 3.921875 C 3.359375 3.878906 3.28125 3.839844 3.238281 3.898438 C 3.238281 3.921875 3.21875 3.941406 3.179688 3.941406 C 3.160156 3.941406 3.160156 3.941406 3.140625 3.941406 C 3.121094 3.960938 3.101562 3.980469 3.101562 4 C 3.101562 3.960938 3.101562 3.941406 3.121094 3.921875 C 3.121094 3.898438 3.121094 3.878906 3.140625 3.859375 C 3.121094 3.878906 3.078125 3.878906 3.058594 3.859375 C 3.039062 3.859375 3.039062 3.878906 3.019531 3.898438 C 3.019531 3.859375 3.039062 3.820312 3.058594 3.820312 C 3.058594 3.800781 3.101562 3.78125 3.140625 3.78125 C 3.140625 3.78125 3.140625 3.78125 3.140625 3.761719 C 3.140625 3.761719 3.101562 3.761719 3.101562 3.71875 C 3.078125 3.71875 3.058594 3.71875 3.039062 3.738281 C 3.058594 3.699219 3.078125 3.699219 3.101562 3.699219 C 3.101562 3.679688 3.140625 3.679688 3.140625 3.679688 C 3.160156 3.679688 3.179688 3.699219 3.179688 3.699219 C 3.199219 3.738281 3.261719 3.761719 3.320312 3.761719 C 3.339844 3.761719 3.378906 3.738281 3.378906 3.699219 C 3.378906 3.660156 3.320312 3.578125 3.320312 3.539062 C 3.320312 3.5 3.398438 3.421875 3.441406 3.421875 C 3.601562 3.421875 3.640625 3.480469 3.660156 3.480469 C 3.699219 3.480469 3.71875 3.480469 3.71875 3.460938 C 3.640625 3.359375 3.601562 3.378906 3.519531 3.320312 C 3.421875 3.199219 3.398438 3.160156 3.398438 3.121094 C 3.359375 3.121094 3.320312 3.179688 3.300781 3.21875 C 3.300781 3.199219 3.28125 3.199219 3.261719 3.199219 C 3.21875 3.199219 3.199219 3.238281 3.179688 3.28125 C 3.179688 3.238281 3.140625 3.199219 3.101562 3.199219 C 3.078125 3.199219 3.039062 3.21875 3.039062 3.21875 C 3.039062 3.21875 3 3.261719 2.960938 3.261719 C 2.941406 3.261719 2.941406 3.28125 2.921875 3.320312 C 2.898438 3.261719 2.921875 3.261719 2.921875 3.238281 C 2.921875 3.199219 2.921875 3.179688 2.941406 3.179688 C 2.921875 3.179688 2.878906 3.179688 2.878906 3.160156 C 2.859375 3.160156 2.839844 3.160156 2.820312 3.199219 C 2.820312 3.160156 2.839844 3.140625 2.859375 3.121094 C 2.859375 3.101562 2.898438 3.101562 2.921875 3.101562 C 2.921875 3.101562 2.921875 3.101562 2.921875 3.078125 C 2.898438 3.078125 2.898438 3.058594 2.898438 3.019531 C 2.878906 3 2.859375 3.019531 2.839844 3.019531 C 2.859375 2.980469 2.898438 2.980469 2.941406 3 C 3 2.980469 3.019531 3 3.019531 3.039062 C 3.019531 3.078125 3.078125 3.078125 3.140625 3.078125 C 3.261719 3.078125 3.441406 2.960938 3.441406 2.878906 C 3.421875 2.878906 3.398438 2.878906 3.378906 2.878906 C 3.320312 2.878906 3.238281 2.960938 3.179688 2.960938 C 3.21875 2.921875 3.199219 2.878906 3.199219 2.859375 C 3.160156 2.859375 3.121094 2.878906 3.058594 2.878906 C 3.078125 2.859375 3.101562 2.820312 3.101562 2.800781 C 3.101562 2.78125 3.101562 2.761719 3.019531 2.761719 C 3.019531 2.761719 3 2.761719 2.980469 2.761719 C 2.960938 2.761719 2.921875 2.761719 2.921875 2.71875 C 2.898438 2.71875 2.878906 2.71875 2.859375 2.738281 C 2.859375 2.71875 2.921875 2.679688 2.921875 2.679688 C 2.921875 2.660156 2.941406 2.660156 2.960938 2.660156 C 2.960938 2.660156 2.960938 2.660156 2.960938 2.640625 C 2.941406 2.640625 2.898438 2.621094 2.898438 2.578125 C 2.878906 2.558594 2.878906 2.558594 2.839844 2.578125 C 2.878906 2.539062 2.898438 2.558594 2.921875 2.558594 C 2.960938 2.539062 2.980469 2.539062 3 2.558594 C 3 2.539062 3 2.519531 3 2.5 C 3 2.480469 2.980469 2.460938 2.960938 2.460938 C 3.019531 2.460938 3.039062 2.480469 3.058594 2.5 C 3.078125 2.5 3.101562 2.519531 3.101562 2.539062 C 3.101562 2.578125 3.039062 2.621094 3.140625 2.679688 C 3.179688 2.699219 3.21875 2.71875 3.261719 2.71875 C 3.300781 2.738281 3.359375 2.761719 3.378906 2.761719 C 3.359375 2.738281 3.378906 2.699219 3.339844 2.679688 C 3.378906 2.679688 3.421875 2.679688 3.441406 2.699219 C 3.441406 2.660156 3.441406 2.660156 3.421875 2.640625 C 3.441406 2.640625 3.480469 2.640625 3.5 2.640625 C 3.621094 2.660156 3.621094 2.601562 3.640625 2.519531 C 3.601562 2.519531 3.539062 2.539062 3.480469 2.578125 C 3.480469 2.558594 3.480469 2.539062 3.480469 2.519531 C 3.480469 2.480469 3.5 2.480469 3.519531 2.480469 C 3.519531 2.480469 3.539062 2.480469 3.558594 2.480469 C 3.578125 2.480469 3.621094 2.460938 3.601562 2.398438 C 3.601562 2.378906 3.578125 2.359375 3.539062 2.359375 C 3.519531 2.359375 3.519531 2.359375 3.5 2.378906 C 3.480469 2.378906 3.480469 2.398438 3.480469 2.421875 C 3.480469 2.421875 3.480469 2.378906 3.460938 2.378906 C 3.460938 2.378906 3.460938 2.359375 3.441406 2.359375 C 3.441406 2.359375 3.441406 2.359375 3.441406 2.339844 C 3.421875 2.320312 3.441406 2.28125 3.480469 2.28125 C 3.5 2.28125 3.539062 2.261719 3.558594 2.261719 C 3.601562 2.238281 3.621094 2.238281 3.621094 2.21875 C 3.621094 2.199219 3.640625 2.199219 3.660156 2.199219 C 3.679688 2.199219 3.71875 2.199219 3.738281 2.199219 C 3.800781 2.199219 3.859375 2.160156 3.839844 2.101562 C 3.878906 2.101562 3.898438 2.160156 3.878906 2.199219 C 3.898438 2.199219 3.960938 2.179688 3.980469 2.179688 C 3.980469 2.21875 3.941406 2.28125 3.921875 2.28125 C 3.941406 2.28125 4 2.28125 4.019531 2.261719 C 4.019531 2.300781 3.980469 2.359375 3.960938 2.359375 C 4.019531 2.378906 4.039062 2.398438 4.058594 2.460938 C 4.019531 2.441406 4 2.460938 3.960938 2.460938 C 4.039062 2.539062 4.058594 2.660156 4.078125 2.699219 C 4.058594 2.699219 4.019531 2.660156 4 2.660156 C 4.019531 2.71875 3.980469 2.800781 4 2.839844 C 3.980469 2.820312 3.960938 2.820312 3.941406 2.800781 C 3.921875 2.820312 3.898438 2.878906 3.921875 2.960938 C 3.898438 2.941406 3.878906 2.921875 3.859375 2.921875 C 3.839844 2.960938 3.820312 2.980469 3.820312 3.078125 C 3.820312 3.21875 3.878906 3.339844 3.921875 3.398438 C 3.960938 3.480469 3.980469 3.539062 3.980469 3.578125 C 4 3.640625 4.019531 3.660156 4.078125 3.660156 C 4.121094 3.660156 4.160156 3.621094 4.160156 3.558594 C 4.160156 3.460938 4.039062 3.398438 4.039062 3.238281 C 4.039062 3.121094 4.121094 3.078125 4.121094 3 C 4.121094 2.941406 4.058594 2.980469 4.019531 2.941406 C 4.078125 2.941406 4.101562 2.859375 4.160156 2.859375 C 4.199219 2.859375 4.21875 2.878906 4.21875 2.898438 C 4.21875 2.921875 4.199219 2.960938 4.199219 2.980469 C 4.238281 2.941406 4.28125 2.878906 4.28125 2.839844 C 4.28125 2.800781 4.21875 2.738281 4.238281 2.640625 C 4.238281 2.621094 4.238281 2.640625 4.238281 2.621094 C 4.261719 2.71875 4.398438 2.738281 4.398438 2.859375 C 4.398438 2.960938 4.320312 2.941406 4.28125 3 C 4.261719 2.921875 4.320312 2.941406 4.320312 3 Z M 6.101562 2.101562 C 6.078125 2.140625 6.078125 2.21875 6.160156 2.21875 C 6.21875 2.21875 6.320312 2.179688 6.320312 2.160156 L 6.320312 2.179688 C 6.300781 2.179688 6.179688 2.28125 6.078125 2.28125 C 6.019531 2.28125 6 2.238281 6 2.21875 C 6.019531 2.160156 6.058594 2.140625 6.101562 2.101562 Z M 7.140625 2.839844 C 7.140625 2.898438 7.058594 2.921875 7.039062 2.941406 C 7.039062 2.960938 7.019531 2.960938 7.019531 2.980469 C 7.019531 2.941406 7.019531 2.921875 7.019531 2.878906 C 7.019531 2.859375 7 2.839844 6.980469 2.839844 C 6.941406 2.839844 6.820312 2.941406 6.878906 3.121094 C 6.878906 3.058594 6.898438 3.019531 6.898438 3.019531 C 6.898438 3 6.921875 2.980469 6.921875 2.980469 C 6.941406 3.019531 6.941406 3.039062 6.941406 3.078125 C 6.941406 3.160156 6.878906 3.160156 6.921875 3.21875 C 6.921875 3.238281 6.921875 3.238281 6.941406 3.261719 C 6.941406 3.238281 6.941406 3.21875 6.941406 3.199219 C 6.941406 3.179688 6.980469 3.160156 6.980469 3.140625 C 6.980469 3.121094 6.980469 3.121094 6.980469 3.101562 C 7 3.121094 7.019531 3.160156 7.019531 3.199219 C 7.019531 3.261719 7 3.28125 6.980469 3.300781 C 6.980469 3.320312 6.960938 3.320312 6.960938 3.359375 C 6.941406 3.480469 6.878906 3.539062 6.800781 3.539062 C 6.761719 3.539062 6.71875 3.539062 6.679688 3.519531 C 6.679688 3.679688 6.5 3.660156 6.5 3.761719 C 6.5 3.78125 6.519531 3.820312 6.539062 3.839844 C 6.558594 3.859375 6.640625 3.878906 6.660156 3.921875 C 6.621094 3.921875 6.578125 3.941406 6.558594 3.960938 C 6.621094 4 6.621094 4.019531 6.621094 4.078125 C 6.558594 4.058594 6.519531 4.058594 6.519531 4.078125 C 6.5 4.101562 6.519531 4.121094 6.480469 4.160156 C 6.480469 4.140625 6.460938 4.121094 6.421875 4.121094 C 6.398438 4.121094 6.339844 4.160156 6.339844 4.179688 C 6.339844 4.21875 6.320312 4.238281 6.28125 4.238281 C 6.261719 4.261719 6.261719 4.28125 6.261719 4.320312 C 6.238281 4.300781 6.238281 4.28125 6.238281 4.238281 C 6.21875 4.21875 6.21875 4.199219 6.21875 4.179688 C 6.199219 4.199219 6.179688 4.21875 6.160156 4.199219 C 6.140625 4.199219 6.121094 4.21875 6.121094 4.261719 C 6.121094 4.199219 6.121094 4.179688 6.140625 4.160156 C 6.140625 4.140625 6.140625 4.121094 6.160156 4.101562 C 6.160156 4.101562 6.160156 4.101562 6.160156 4.078125 C 6.140625 4.078125 6.121094 4.078125 6.121094 4.058594 C 6.101562 4.058594 6.078125 4.078125 6.058594 4.101562 C 6.058594 4.058594 6.078125 4.019531 6.101562 4.019531 C 6.121094 3.980469 6.160156 3.960938 6.199219 4 C 6.21875 4.019531 6.261719 4.039062 6.28125 4.039062 C 6.300781 4.039062 6.339844 4.019531 6.359375 4 C 6.359375 3.980469 6.359375 3.980469 6.378906 3.980469 C 6.378906 3.960938 6.398438 3.941406 6.359375 3.898438 C 6.320312 3.859375 6.261719 3.800781 6.261719 3.738281 C 6.261719 3.660156 6.300781 3.601562 6.339844 3.558594 C 6.320312 3.558594 6.339844 3.558594 6.300781 3.558594 C 6.238281 3.558594 6.238281 3.519531 6.179688 3.519531 C 6.140625 3.519531 6.121094 3.558594 6.121094 3.601562 C 6.121094 3.640625 6.121094 3.640625 6.140625 3.660156 C 6.160156 3.699219 6.160156 3.699219 6.160156 3.738281 C 6.121094 3.71875 6.078125 3.699219 6.039062 3.71875 C 6.019531 3.761719 6.019531 3.78125 6 3.800781 C 6 3.761719 5.921875 3.71875 5.859375 3.78125 C 5.859375 3.800781 5.839844 3.820312 5.800781 3.820312 C 5.78125 3.820312 5.78125 3.820312 5.761719 3.820312 C 5.738281 3.839844 5.71875 3.859375 5.71875 3.878906 C 5.71875 3.839844 5.71875 3.820312 5.738281 3.800781 C 5.738281 3.78125 5.738281 3.738281 5.761719 3.738281 C 5.738281 3.761719 5.699219 3.761719 5.679688 3.738281 C 5.660156 3.738281 5.640625 3.761719 5.640625 3.78125 C 5.640625 3.738281 5.660156 3.699219 5.679688 3.699219 C 5.679688 3.679688 5.71875 3.660156 5.761719 3.660156 C 5.761719 3.660156 5.761719 3.660156 5.761719 3.640625 C 5.761719 3.640625 5.71875 3.640625 5.71875 3.578125 C 5.699219 3.578125 5.679688 3.578125 5.660156 3.601562 C 5.679688 3.558594 5.699219 3.558594 5.71875 3.539062 C 5.71875 3.519531 5.761719 3.519531 5.761719 3.519531 C 5.78125 3.519531 5.800781 3.539062 5.800781 3.539062 C 5.820312 3.578125 5.878906 3.601562 5.941406 3.601562 C 5.960938 3.601562 6 3.578125 6 3.539062 C 6 3.5 5.941406 3.421875 5.941406 3.359375 C 5.941406 3.320312 6.019531 3.238281 6.078125 3.238281 C 6.238281 3.238281 6.28125 3.300781 6.320312 3.300781 C 6.378906 3.300781 6.378906 3.300781 6.378906 3.28125 C 6.300781 3.179688 6.261719 3.179688 6.179688 3.140625 C 6.140625 3.121094 6.121094 3.078125 6.121094 3.039062 C 6.078125 3.039062 6.019531 3.121094 6.019531 3.140625 C 6.019531 3.121094 6 3.121094 5.980469 3.121094 C 5.941406 3.121094 5.921875 3.160156 5.898438 3.199219 C 5.898438 3.160156 5.859375 3.121094 5.800781 3.121094 C 5.761719 3.121094 5.738281 3.140625 5.71875 3.160156 C 5.71875 3.179688 5.679688 3.199219 5.640625 3.199219 C 5.621094 3.21875 5.601562 3.21875 5.601562 3.261719 C 5.578125 3.199219 5.601562 3.179688 5.601562 3.179688 C 5.601562 3.140625 5.601562 3.121094 5.621094 3.121094 C 5.601562 3.121094 5.558594 3.121094 5.558594 3.101562 C 5.539062 3.101562 5.519531 3.101562 5.5 3.140625 C 5.5 3.101562 5.519531 3.058594 5.539062 3.058594 C 5.539062 3.039062 5.578125 3.019531 5.601562 3.019531 C 5.601562 3.019531 5.601562 3.019531 5.601562 3 C 5.578125 3 5.558594 2.980469 5.578125 2.941406 C 5.558594 2.921875 5.539062 2.941406 5.519531 2.941406 C 5.558594 2.898438 5.578125 2.898438 5.621094 2.921875 C 5.679688 2.898438 5.699219 2.921875 5.699219 2.960938 C 5.699219 3 5.761719 3 5.820312 3 C 5.941406 3 6.140625 2.878906 6.121094 2.800781 C 6.078125 2.800781 6.078125 2.800781 6.058594 2.800781 C 6 2.800781 5.898438 2.878906 5.839844 2.878906 C 5.878906 2.839844 5.859375 2.800781 5.878906 2.78125 C 5.839844 2.78125 5.800781 2.800781 5.738281 2.800781 C 5.761719 2.78125 5.78125 2.738281 5.78125 2.71875 C 5.78125 2.699219 5.78125 2.679688 5.699219 2.679688 C 5.699219 2.679688 5.679688 2.679688 5.660156 2.679688 C 5.640625 2.679688 5.601562 2.679688 5.601562 2.640625 C 5.578125 2.640625 5.558594 2.640625 5.539062 2.660156 C 5.539062 2.640625 5.601562 2.601562 5.601562 2.601562 C 5.601562 2.578125 5.640625 2.578125 5.640625 2.578125 C 5.640625 2.578125 5.640625 2.578125 5.640625 2.558594 C 5.621094 2.558594 5.578125 2.539062 5.578125 2.5 C 5.558594 2.480469 5.558594 2.480469 5.519531 2.5 C 5.558594 2.460938 5.578125 2.460938 5.601562 2.480469 C 5.640625 2.460938 5.660156 2.460938 5.679688 2.480469 C 5.679688 2.460938 5.679688 2.421875 5.679688 2.421875 C 5.679688 2.398438 5.660156 2.378906 5.640625 2.378906 C 5.699219 2.378906 5.71875 2.398438 5.738281 2.421875 C 5.78125 2.421875 5.800781 2.460938 5.800781 2.480469 C 5.800781 2.539062 5.738281 2.558594 5.859375 2.621094 C 5.898438 2.640625 5.941406 2.660156 5.980469 2.660156 C 6.019531 2.660156 6.078125 2.699219 6.101562 2.699219 C 6.078125 2.679688 6.101562 2.640625 6.058594 2.621094 C 6.101562 2.621094 6.140625 2.621094 6.160156 2.640625 C 6.160156 2.601562 6.160156 2.601562 6.140625 2.578125 C 6.160156 2.578125 6.199219 2.578125 6.21875 2.578125 C 6.339844 2.601562 6.339844 2.539062 6.359375 2.460938 C 6.320312 2.460938 6.261719 2.480469 6.179688 2.519531 C 6.179688 2.5 6.179688 2.480469 6.179688 2.460938 C 6.179688 2.421875 6.199219 2.421875 6.21875 2.421875 C 6.21875 2.421875 6.238281 2.421875 6.261719 2.421875 C 6.28125 2.421875 6.320312 2.398438 6.300781 2.339844 C 6.300781 2.320312 6.261719 2.300781 6.238281 2.300781 C 6.21875 2.300781 6.21875 2.300781 6.199219 2.320312 C 6.179688 2.320312 6.179688 2.339844 6.179688 2.359375 L 6.160156 2.320312 C 6.160156 2.320312 6.160156 2.300781 6.140625 2.300781 C 6.140625 2.300781 6.140625 2.300781 6.140625 2.28125 C 6.121094 2.261719 6.140625 2.21875 6.179688 2.21875 C 6.199219 2.21875 6.238281 2.199219 6.261719 2.199219 C 6.300781 2.179688 6.320312 2.179688 6.320312 2.160156 C 6.320312 2.140625 6.339844 2.121094 6.378906 2.121094 C 6.398438 2.121094 6.441406 2.121094 6.460938 2.121094 C 6.519531 2.121094 6.578125 2.078125 6.558594 2.019531 C 6.601562 2.019531 6.621094 2.101562 6.601562 2.121094 C 6.621094 2.121094 6.679688 2.101562 6.699219 2.101562 C 6.699219 2.140625 6.660156 2.199219 6.640625 2.199219 C 6.679688 2.199219 6.71875 2.199219 6.738281 2.179688 C 6.738281 2.21875 6.699219 2.28125 6.679688 2.300781 C 6.738281 2.320312 6.78125 2.339844 6.800781 2.421875 C 6.761719 2.398438 6.738281 2.421875 6.699219 2.421875 C 6.78125 2.5 6.800781 2.640625 6.820312 2.660156 C 6.800781 2.660156 6.761719 2.621094 6.71875 2.621094 C 6.761719 2.699219 6.699219 2.761719 6.71875 2.800781 C 6.699219 2.78125 6.660156 2.78125 6.660156 2.761719 C 6.640625 2.78125 6.621094 2.839844 6.640625 2.921875 C 6.621094 2.898438 6.578125 2.878906 6.578125 2.878906 C 6.558594 2.921875 6.539062 2.941406 6.539062 3.039062 C 6.539062 3.179688 6.601562 3.320312 6.640625 3.359375 C 6.679688 3.441406 6.699219 3.519531 6.699219 3.539062 C 6.71875 3.601562 6.761719 3.640625 6.800781 3.640625 C 6.839844 3.640625 6.898438 3.601562 6.898438 3.539062 C 6.898438 3.441406 6.78125 3.378906 6.78125 3.199219 C 6.78125 3.078125 6.878906 3.019531 6.878906 2.960938 C 6.878906 2.898438 6.820312 2.941406 6.78125 2.898438 C 6.839844 2.878906 6.878906 2.820312 6.921875 2.820312 C 6.960938 2.820312 6.980469 2.839844 6.980469 2.859375 C 6.980469 2.898438 6.960938 2.921875 6.960938 2.941406 C 7 2.898438 7.039062 2.839844 7.039062 2.800781 C 7.039062 2.761719 6.980469 2.699219 6.980469 2.601562 C 6.980469 2.578125 6.980469 2.601562 6.980469 2.578125 C 7 2.679688 7.160156 2.71875 7.160156 2.820312 C 7.160156 2.921875 7.078125 2.898438 7.019531 2.980469 C 7.078125 2.761719 7.140625 2.78125 7.140625 2.839844 Z M 7.140625 2.839844 "/>
<path style=" stroke:none;fill-rule:nonzero;fill:rgb(61.176471%,63.137255%,64.705882%);fill-opacity:1;" d="M 3.640625 2.179688 C 3.640625 2.199219 3.640625 2.21875 3.640625 2.238281 C 3.660156 2.238281 3.679688 2.238281 3.699219 2.21875 C 3.71875 2.199219 3.71875 2.199219 3.738281 2.179688 C 3.71875 2.179688 3.640625 2.179688 3.640625 2.179688 Z M 3.640625 2.179688 "/>
<path style=" stroke:none;fill-rule:nonzero;fill:rgb(61.176471%,63.137255%,64.705882%);fill-opacity:1;" d="M 6.421875 1.980469 C 6.421875 2 6.421875 2.019531 6.421875 2.039062 C 6.441406 2.039062 6.460938 2.039062 6.480469 2.019531 C 6.5 2 6.5 2 6.519531 1.980469 Z M 6.421875 1.980469 "/>
</g>
</svg>
