<?xml version="1.0" encoding="utf-8"?>
<!-- Generator: Adobe Illustrator 23.0.6, SVG Export Plug-In . SVG Version: 6.00 Build 0)  -->
<svg version="1.1" id="Layer_1" xmlns="http://www.w3.org/2000/svg" xmlns:xlink="http://www.w3.org/1999/xlink" x="0px" y="0px"
	 viewBox="0 0 17 17" style="enable-background:new 0 0 17 17;" xml:space="preserve">
<style type="text/css">
	.st0{fill:#9CA1A5;}
</style>
<g id="surface1">
	<path class="st0" d="M15.3,7.5c0.1-1.2,0-3.5-0.2-4.8c0-0.3-0.2-0.7-0.7-0.8c-1.3-0.3-3-0.5-4.8-0.5C9.4,2.8,9.2,4.6,9.2,6.7v0.8
		l0.2,0c0.1,0,0.1,0.1,0.1,0.1c0,0.1,0,0.2,0,0.2S13.1,7.8,15.3,7.5z"/>
	<path class="st0" d="M8.3,9.2l-0.2,0C8,9.1,8,9.1,7.9,9c0-0.1,0-0.2,0-0.2c-1.6,0-3.3,0-5.6,0.3c0.3,1.7,2.3,5.7,5.5,7.4
		c0.2-1.3,0.4-4.5,0.4-6.5L8.3,9.2L8.3,9.2z"/>
	<path class="st0" d="M9.6,8.8c1.6,0,3.3,0,5.6,0.3c-0.3,1.7-2.3,5.7-5.5,7.4C9.5,15.2,9.2,12,9.2,9.9l0-0.7v0l0.2,0
		c0.1,0,0.1-0.1,0.1-0.1C9.6,8.9,9.6,8.8,9.6,8.8z"/>
	<path class="st0" d="M5.3,5.2C5.3,5.3,5.3,5.3,5.3,5.2C5.4,5.3,5.4,5.3,5.3,5.2c0.1,0,0.1,0,0.1,0C5.4,5.2,5.3,5.2,5.3,5.2z"/>
	<path class="st0" d="M5.3,4.5L2.1,7.5c2.3,0.3,4.2,0.3,5.8,0.3h0c0,0,0-0.1,0-0.2c0-0.1,0-0.1,0.1-0.1l0.2,0L5.3,4.5z M5,5.4
		c0,0,0,0.1,0.1,0.1c0.1,0,0.1,0,0.2-0.1v0c0,0-0.1,0.1-0.2,0.1c-0.1,0-0.1,0-0.1-0.1C4.9,5.4,5,5.4,5,5.4z M6,6.1
		c0,0.1-0.1,0.1-0.1,0.1c0,0,0,0,0,0c0,0,0-0.1,0-0.1c0,0,0,0,0,0c0,0-0.2,0.1-0.1,0.3c0-0.1,0-0.1,0-0.1l0,0c0,0,0,0.1,0,0.1
		c0,0.1,0,0.1,0,0.1c0,0,0,0,0,0c0,0,0,0,0-0.1c0,0,0,0,0-0.1c0,0,0,0,0,0c0,0,0,0,0,0.1c0,0.1,0,0.1,0,0.1c0,0,0,0,0,0.1
		c0,0.1-0.1,0.2-0.1,0.2c0,0-0.1,0-0.1,0c0,0.1-0.2,0.1-0.2,0.2c0,0,0,0.1,0,0.1c0,0,0.1,0,0.1,0.1c0,0-0.1,0-0.1,0
		c0.1,0,0.1,0.1,0.1,0.1c-0.1,0-0.1,0-0.1,0c0,0,0,0,0,0.1c0,0,0,0,0,0c0,0-0.1,0-0.1,0.1c0,0,0,0.1-0.1,0.1c0,0,0,0,0,0.1
		c0,0,0,0,0-0.1c0,0,0,0,0-0.1c0,0,0,0-0.1,0c0,0,0,0,0,0.1c0-0.1,0-0.1,0-0.1c0,0,0,0,0-0.1c0,0,0,0,0,0c0,0,0,0,0,0c0,0,0,0,0,0
		c0,0,0-0.1,0-0.1c0,0,0.1-0.1,0.1,0c0,0,0,0,0.1,0c0,0,0.1,0,0.1,0c0,0,0,0,0,0c0,0,0,0,0-0.1c0,0-0.1-0.1-0.1-0.2
		c0-0.1,0-0.1,0.1-0.2c0,0,0,0,0,0c-0.1,0-0.1,0-0.1,0c0,0-0.1,0-0.1,0.1c0,0,0,0,0,0.1c0,0,0,0,0,0.1c0,0-0.1,0-0.1,0
		C5,7,5,7,5,7.1C5,7,4.9,7,4.9,7c0,0,0,0-0.1,0c0,0,0,0,0,0c0,0,0,0,0,0.1c0,0,0-0.1,0-0.1c0,0,0,0,0-0.1c0,0-0.1,0-0.1,0
		c0,0,0,0,0,0c0,0,0-0.1,0-0.1c0,0,0,0,0.1,0c0,0,0,0,0,0c0,0,0,0,0,0c0,0,0,0-0.1,0c0,0,0,0,0.1,0c0,0,0,0,0,0c0,0,0,0,0,0
		c0,0,0.1,0.1,0.2,0.1c0,0,0,0,0-0.1c0,0-0.1-0.2-0.1-0.3c0,0,0.1-0.1,0.1-0.1c0.2,0,0.2,0.1,0.2,0.1s0.1,0,0.1,0
		C5.2,6.4,5.2,6.4,5.1,6.3c0,0-0.1-0.1-0.1-0.1C5,6.2,5,6.3,5,6.3c0,0,0,0,0,0c0,0-0.1,0-0.1,0.1c0,0,0-0.1-0.1-0.1c0,0-0.1,0-0.1,0
		c0,0,0,0-0.1,0c0,0,0,0,0,0.1c0-0.1,0-0.1,0-0.1c0,0,0,0,0-0.1c0,0-0.1,0-0.1,0c0,0,0,0-0.1,0c0,0,0-0.1,0-0.1c0,0,0,0,0.1,0
		c0,0,0,0,0,0c0,0,0,0-0.1,0c0,0,0.1,0,0.1,0c0.1,0,0.1,0,0.1,0c0,0,0.1,0,0.1,0c0.1,0,0.3-0.1,0.3-0.2c0,0,0,0-0.1,0
		C5,6,4.9,6.1,4.8,6.1c0,0,0-0.1,0-0.1c0,0-0.1,0-0.1,0c0,0,0-0.1,0-0.1c0,0,0,0-0.1,0c0,0,0,0,0,0c0,0-0.1,0-0.1,0c0,0,0,0-0.1,0
		c0,0,0.1-0.1,0.1-0.1c0,0,0,0,0,0c0,0,0,0,0,0c0,0-0.1,0-0.1-0.1c0,0,0,0-0.1,0c0,0,0.1,0,0.1,0c0,0,0.1,0,0.1,0c0,0,0,0,0-0.1
		c0,0,0,0,0,0c0.1,0,0.1,0,0.1,0c0,0,0,0,0,0c0,0,0,0.1,0,0.1c0,0,0.1,0,0.1,0c0,0,0.1,0,0.1,0c0,0,0-0.1,0-0.1c0,0,0.1,0,0.1,0
		c0,0,0,0,0-0.1c0,0,0.1,0,0.1,0c0.1,0,0.1,0,0.2-0.1c0,0-0.1,0-0.2,0.1c0,0,0,0,0-0.1c0,0,0,0,0,0c0,0,0,0,0,0c0,0,0.1,0,0-0.1
		c0,0,0,0,0,0c0,0,0,0,0,0c0,0,0,0,0,0c0,0,0,0,0,0c0,0,0,0,0,0c0,0,0,0,0,0c0,0,0,0,0-0.1c0,0,0.1,0,0.1,0c0,0,0.1,0,0.1,0s0,0,0,0
		c0,0,0.1,0,0.1,0c0.1,0,0.1,0,0.1-0.1c0,0,0.1,0.1,0,0.1c0,0,0.1,0,0.1,0c0,0,0,0.1-0.1,0.1c0,0,0.1,0,0.1,0c0,0,0,0.1-0.1,0.1
		c0,0,0.1,0,0.1,0.1c0,0-0.1,0-0.1,0c0.1,0.1,0.1,0.2,0.1,0.3c0,0-0.1,0-0.1,0c0,0.1,0,0.1,0,0.2c0,0,0,0-0.1,0c0,0,0,0.1,0,0.2
		C5.6,6,5.5,6,5.5,5.9c0,0,0,0.1,0,0.2c0,0.1,0.1,0.3,0.1,0.3c0,0.1,0,0.1,0.1,0.2c0,0.1,0,0.1,0.1,0.1c0,0,0.1,0,0.1-0.1
		c0-0.1-0.1-0.2-0.1-0.3c0-0.1,0.1-0.2,0.1-0.3c0-0.1-0.1,0-0.1,0c0.1,0,0.1-0.1,0.2-0.1c0,0,0.1,0,0.1,0c0,0,0,0.1,0,0.1
		c0,0,0.1-0.1,0.1-0.2c0,0-0.1-0.1,0-0.2c0,0,0,0,0,0c0,0.1,0.2,0.1,0.2,0.2C6.1,6,6,6,5.9,6C6,6,6,6,6,6.1z"/>
	<path class="st0" d="M8,1.5C6.2,1.5,4.4,1.7,3.2,2C2.7,2.1,2.5,2.4,2.4,2.7C2.3,3.5,2.1,5.2,2.1,6.9c0.3-0.3,3.2-3.1,3.2-3.1l3,3
		C8.3,4.7,8.2,2.8,8,1.5z M3.5,2.4c0,0,0,0.1,0.1,0.1c0.1,0,0.1,0,0.2-0.1v0c0,0-0.1,0.1-0.3,0.1c-0.1,0-0.1,0-0.1-0.1
		C3.5,2.5,3.5,2.5,3.5,2.4z M4.6,3.2c0,0.1-0.1,0.1-0.1,0.1c0,0,0,0,0,0c0,0,0-0.1,0-0.1c0,0,0,0,0,0c0,0-0.2,0.1-0.1,0.3
		c0-0.1,0-0.1,0-0.1l0,0c0,0,0,0.1,0,0.1c0,0.1,0,0.1,0,0.1c0,0,0,0,0,0c0,0,0,0,0-0.1c0,0,0,0,0-0.1c0,0,0,0,0,0c0,0,0,0.1,0,0.1
		c0,0.1,0,0.1,0,0.1c0,0,0,0,0,0.1c0,0.1-0.1,0.2-0.1,0.2c0,0-0.1,0-0.1,0C4.2,4,4,4,4,4.1c0,0,0,0.1,0,0.1c0,0,0.1,0,0.1,0.1
		c0,0-0.1,0-0.1,0c0.1,0,0.1,0.1,0.1,0.1c-0.1,0-0.1,0-0.1,0c0,0,0,0,0,0.1c0,0,0,0,0,0c0,0-0.1,0-0.1,0.1c0,0,0,0.1-0.1,0.1
		c0,0,0,0,0,0.1c0,0,0,0,0-0.1c0,0,0,0,0-0.1c0,0,0,0-0.1,0c0,0,0,0,0,0.1c0-0.1,0-0.1,0-0.1c0,0,0,0,0-0.1c0,0,0,0,0,0c0,0,0,0,0,0
		c0,0,0,0-0.1,0c0,0,0-0.1,0-0.1c0,0,0.1-0.1,0.1,0c0,0,0,0,0.1,0c0,0,0.1,0,0.1,0c0,0,0,0,0,0c0,0,0,0,0-0.1c0,0-0.1-0.1-0.1-0.2
		c0-0.1,0-0.1,0.1-0.2c0,0,0,0,0,0c-0.1,0-0.1,0-0.1,0c0,0-0.1,0-0.1,0.1s0,0,0,0.1c0,0,0,0,0,0.1c0,0-0.1,0-0.1,0c0,0,0,0.1,0,0.1
		c0,0-0.1-0.1-0.1,0c0,0,0,0-0.1,0c0,0,0,0,0,0c0,0,0,0,0,0.1c0,0,0-0.1,0-0.1c0,0,0,0,0-0.1c0,0-0.1,0-0.1,0c0,0,0,0,0,0
		c0,0,0-0.1,0-0.1c0,0,0,0,0.1,0c0,0,0,0,0,0c0,0,0,0,0,0c0,0,0,0-0.1,0c0,0,0,0,0.1,0c0,0,0,0,0,0c0,0,0,0,0,0C3.4,4,3.5,4,3.5,4
		c0,0,0.1,0,0.1-0.1c0,0-0.1-0.1-0.1-0.2s0.1-0.1,0.1-0.1c0.2,0,0.2,0.1,0.2,0.1c0,0,0.1,0,0.1,0C3.9,3.6,3.8,3.6,3.7,3.5
		C3.6,3.4,3.6,3.4,3.6,3.3c0,0-0.1,0.1-0.1,0.1c0,0,0,0,0,0c0,0-0.1,0-0.1,0.1c0,0,0-0.1-0.1-0.1c0,0-0.1,0-0.1,0s0,0-0.1,0
		c0,0,0,0,0,0.1c0-0.1,0-0.1,0-0.1c0,0,0-0.1,0-0.1c0,0-0.1,0-0.1,0c0,0,0,0-0.1,0c0,0,0-0.1,0-0.1c0,0,0,0,0.1,0c0,0,0,0,0,0
		c0,0,0,0,0-0.1c0,0,0,0-0.1,0c0,0,0.1,0,0.1,0c0.1,0,0.1,0,0.1,0s0.1,0,0.1,0c0.1,0,0.3-0.1,0.3-0.2c0,0,0,0-0.1,0
		c-0.1,0-0.1,0.1-0.2,0.1c0,0,0-0.1,0-0.1c0,0-0.1,0-0.1,0c0,0,0-0.1,0-0.1c0,0,0,0-0.1,0c0,0,0,0,0,0c0,0-0.1,0-0.1,0
		c0,0,0,0-0.1,0c0,0,0.1-0.1,0.1-0.1c0,0,0,0,0,0c0,0,0,0,0,0c0,0-0.1,0-0.1-0.1c0,0,0,0-0.1,0c0,0,0.1,0,0.1,0c0,0,0.1,0,0.1,0
		c0,0,0,0,0-0.1s0,0,0,0c0.1,0,0.1,0,0.1,0c0,0,0,0,0,0c0,0-0.1,0.1,0,0.1c0,0,0.1,0,0.1,0c0,0,0.1,0,0.1,0c0,0,0-0.1,0-0.1
		c0,0,0.1,0,0.1,0c0,0,0,0,0-0.1c0,0,0.1,0,0.1,0c0.1,0,0.1,0,0.1-0.1c0,0-0.1,0-0.2,0.1c0,0,0,0,0-0.1c0,0,0,0,0,0c0,0,0,0,0,0
		c0,0,0.1,0,0-0.1c0,0,0,0-0.1,0c0,0,0,0,0,0c0,0,0,0,0,0c0,0,0,0,0,0c0,0,0,0,0,0c0,0,0,0,0,0c0,0,0-0.1,0-0.1c0,0,0.1,0,0.1,0
		c0,0,0.1,0,0.1,0c0,0,0,0,0,0c0,0,0.1,0,0.1,0c0.1,0,0.1,0,0.1-0.1c0,0,0.1,0.1,0,0.1c0,0,0.1,0,0.1,0c0,0,0,0.1-0.1,0.1
		c0,0,0.1,0,0.1,0c0,0,0,0.1-0.1,0.1c0.1,0,0.1,0,0.1,0.1c0,0-0.1,0-0.1,0c0.1,0.1,0.1,0.2,0.1,0.3c0,0-0.1,0-0.1,0
		c0,0.1,0,0.1,0,0.2c0,0,0,0-0.1,0c0,0,0,0.1,0,0.2c0,0,0,0-0.1,0c0,0,0,0.1,0,0.2c0,0.1,0.1,0.3,0.1,0.3c0,0.1,0.1,0.1,0.1,0.2
		c0,0.1,0,0.1,0.1,0.1c0,0,0.1,0,0.1-0.1c0-0.1-0.1-0.2-0.1-0.3c0-0.1,0.1-0.2,0.1-0.3c0-0.1-0.1,0-0.1-0.1C4.3,3.1,4.4,3,4.4,3
		c0,0,0.1,0,0.1,0c0,0,0,0.1,0,0.1c0,0,0.1-0.1,0.1-0.2c0,0-0.1-0.1,0-0.2c0,0,0,0,0,0c0,0.1,0.2,0.1,0.2,0.3
		C4.7,3.1,4.6,3.1,4.6,3.2C4.5,3.1,4.6,3.1,4.6,3.2z M6.5,2.2c0,0,0,0.1,0.1,0.1c0.1,0,0.2,0,0.2-0.1v0c0,0-0.1,0.1-0.3,0.1
		c-0.1,0-0.1,0-0.1-0.1C6.4,2.3,6.4,2.3,6.5,2.2z M7.6,3c0,0.1-0.1,0.1-0.1,0.1c0,0,0,0,0,0c0,0,0-0.1,0-0.1c0,0,0,0,0,0
		c0,0-0.2,0.1-0.1,0.3c0-0.1,0-0.1,0-0.1c0,0,0,0,0,0c0,0,0,0.1,0,0.1c0,0.1-0.1,0.1,0,0.1c0,0,0,0,0,0c0,0,0,0,0-0.1c0,0,0,0,0-0.1
		c0,0,0,0,0,0c0,0,0,0.1,0,0.1c0,0.1,0,0.1,0,0.1c0,0,0,0,0,0.1c0,0.1-0.1,0.2-0.2,0.2c0,0-0.1,0-0.1,0c0,0.2-0.2,0.2-0.2,0.3
		c0,0,0,0.1,0,0.1c0,0,0.1,0,0.1,0.1c0,0-0.1,0-0.1,0C7,4.2,7,4.3,7,4.3c-0.1,0-0.1,0-0.1,0c0,0,0,0,0,0.1c0,0,0,0-0.1,0
		c0,0-0.1,0-0.1,0.1c0,0,0,0.1-0.1,0.1c0,0,0,0,0,0.1c0,0,0,0,0-0.1c0,0,0,0,0-0.1c0,0,0,0-0.1,0c0,0,0,0,0,0.1c0-0.1,0-0.1,0-0.1
		c0,0,0,0,0-0.1c0,0,0,0,0,0c0,0,0,0,0,0c0,0,0,0-0.1,0c0,0,0-0.1,0-0.1c0,0,0.1-0.1,0.1,0c0,0,0.1,0,0.1,0c0,0,0.1,0,0.1,0
		c0,0,0,0,0,0c0,0,0,0,0-0.1c0,0-0.1-0.1-0.1-0.2c0-0.1,0-0.1,0.1-0.2c0,0,0,0,0,0c-0.1,0-0.1,0-0.1,0c0,0-0.1,0-0.1,0.1s0,0,0,0.1
		c0,0,0,0,0,0.1c0,0-0.1,0-0.1,0c0,0,0,0.1,0,0.1c0,0-0.1-0.1-0.1,0c0,0,0,0-0.1,0c0,0,0,0,0,0c0,0,0,0,0,0.1c0,0,0-0.1,0-0.1
		c0,0,0-0.1,0-0.1c0,0-0.1,0-0.1,0c0,0,0,0,0,0c0,0,0-0.1,0-0.1c0,0,0,0,0.1,0c0,0,0,0,0,0c0,0,0,0,0-0.1c0,0,0,0-0.1,0
		c0,0,0,0,0.1-0.1c0,0,0,0,0,0c0,0,0,0,0,0c0,0,0.1,0.1,0.1,0.1c0,0,0.1,0,0.1-0.1S6.3,3.6,6.3,3.6c0,0,0.1-0.1,0.1-0.1
		c0.2,0,0.2,0.1,0.3,0.1c0.1,0,0.1,0,0.1,0C6.7,3.4,6.7,3.4,6.6,3.3c0,0-0.1-0.1-0.1-0.1c0,0-0.1,0.1-0.1,0.1c0,0,0,0,0,0
		c0,0-0.1,0-0.1,0.1c0,0,0-0.1-0.1-0.1c0,0-0.1,0-0.1,0c0,0,0,0-0.1,0c0,0,0,0,0,0.1c0-0.1,0-0.1,0-0.1c0,0,0-0.1,0-0.1
		c0,0-0.1,0-0.1,0c0,0,0,0-0.1,0c0,0,0-0.1,0-0.1c0,0,0,0,0.1,0c0,0,0,0,0,0c0,0,0,0,0-0.1c0,0,0,0-0.1,0c0,0,0.1,0,0.1,0
		c0.1,0,0.1,0,0.1,0s0.1,0,0.1,0c0.1,0,0.3-0.1,0.3-0.2c0,0,0,0-0.1,0C6.4,3,6.3,3.1,6.2,3.1c0,0,0-0.1,0-0.1c0,0-0.1,0-0.1,0
		c0,0,0-0.1,0-0.1c0,0,0,0-0.1,0c0,0,0,0,0,0c0,0-0.1,0-0.1,0c0,0,0,0-0.1,0c0,0,0.1-0.1,0.1-0.1c0,0,0,0,0,0s0,0,0,0
		c0,0-0.1,0-0.1-0.1c0,0,0,0-0.1,0c0,0,0.1,0,0.1,0c0,0,0.1,0,0.1,0c0,0,0-0.1,0-0.1c0,0,0,0,0,0c0.1,0,0.1,0,0.1,0
		c0,0,0.1,0,0.1,0.1c0,0.1-0.1,0.1,0.1,0.1c0,0,0.1,0,0.1,0c0,0,0.1,0,0.1,0c0,0,0-0.1,0-0.1c0,0,0.1,0,0.1,0c0,0,0,0,0-0.1
		c0,0,0.1,0,0.1,0c0.1,0,0.1,0,0.1-0.1c0,0-0.1,0-0.2,0.1c0,0,0,0,0-0.1c0,0,0,0,0,0c0,0,0,0,0,0c0,0,0.1,0,0-0.1c0,0,0,0-0.1,0
		c0,0,0,0,0,0c0,0,0,0,0,0l0,0c0,0,0,0,0,0c0,0,0,0,0,0c0,0,0-0.1,0-0.1c0,0,0.1,0,0.1,0c0,0,0.1,0,0.1,0c0,0,0,0,0.1,0
		c0,0,0.1,0,0.1,0c0.1,0,0.1,0,0.1-0.1c0,0,0.1,0.1,0,0.1c0,0,0.1,0,0.1,0c0,0,0,0.1-0.1,0.1c0,0,0.1,0,0.1,0c0,0,0,0.1-0.1,0.1
		c0.1,0,0.1,0,0.1,0.1c0,0-0.1,0-0.1,0c0.1,0.1,0.1,0.2,0.1,0.3c0,0-0.1,0-0.1,0c0,0.1,0,0.1,0,0.2c0,0-0.1,0-0.1,0c0,0,0,0.1,0,0.2
		c0,0-0.1,0-0.1,0c0,0,0,0.1,0,0.2c0,0.1,0.1,0.3,0.1,0.3c0,0.1,0.1,0.2,0.1,0.2c0,0.1,0.1,0.1,0.1,0.1c0,0,0.1,0,0.1-0.1
		c0-0.1-0.1-0.2-0.1-0.4c0-0.1,0.1-0.2,0.1-0.3s-0.1,0-0.1-0.1C7.3,3.1,7.3,3,7.4,3c0,0,0.1,0,0.1,0c0,0,0,0.1,0,0.1
		c0,0,0.1-0.1,0.1-0.1c0,0-0.1-0.1-0.1-0.2c0,0,0,0,0,0C7.4,2.8,7.6,2.9,7.6,3c0,0.1-0.1,0.1-0.1,0.2C7.5,2.9,7.6,3,7.6,3z"/>
	<path class="st0" d="M3.9,2.3C3.9,2.3,3.9,2.4,3.9,2.3C3.9,2.4,3.9,2.4,3.9,2.3c0.1,0,0.1,0,0.1,0C4,2.3,3.9,2.3,3.9,2.3z"/>
	<path class="st0" d="M6.8,2.1C6.8,2.1,6.8,2.1,6.8,2.1C6.8,2.2,6.9,2.2,6.8,2.1c0.1,0,0.1,0,0.1,0H6.8z"/>
</g>
</svg>
