<?xml version="1.0" encoding="UTF-8"?>
<svg xmlns="http://www.w3.org/2000/svg" xmlns:xlink="http://www.w3.org/1999/xlink" width="17px" height="17px" viewBox="0 0 17 17" version="1.1">
<g id="surface1">
<path style=" stroke:none;fill-rule:nonzero;fill:rgb(43.921569%,14.509804%,40.392157%);fill-opacity:1;" d="M 15.34375 7.523438 C 15.46875 6.355469 15.34375 3.996094 15.109375 2.742188 C 15.066406 2.445312 14.875 2.082031 14.363281 1.976562 C 13.046875 1.65625 11.347656 1.488281 9.519531 1.464844 C 9.351562 2.785156 9.222656 4.589844 9.222656 6.652344 L 9.222656 7.480469 L 9.414062 7.5 C 9.5 7.5 9.542969 7.566406 9.5625 7.648438 C 9.582031 7.734375 9.582031 7.863281 9.582031 7.863281 C 9.582031 7.863281 13.070312 7.820312 15.34375 7.523438 Z M 15.34375 7.523438 "/>
<path style=" stroke:none;fill-rule:nonzero;fill:rgb(43.921569%,14.509804%,40.392157%);fill-opacity:1;" d="M 8.308594 9.160156 L 8.097656 9.136719 C 8.011719 9.136719 7.96875 9.074219 7.949219 8.988281 C 7.949219 8.902344 7.925781 8.777344 7.925781 8.777344 C 6.375 8.777344 4.632812 8.777344 2.359375 9.09375 C 2.65625 10.835938 4.652344 14.789062 7.882812 16.488281 C 8.054688 15.171875 8.289062 11.984375 8.289062 9.945312 L 8.289062 9.203125 Z M 8.308594 9.160156 "/>
<path style=" stroke:none;fill-rule:nonzero;fill:rgb(43.921569%,14.509804%,40.392157%);fill-opacity:1;" d="M 9.582031 8.777344 C 11.136719 8.777344 12.898438 8.777344 15.171875 9.09375 C 14.875 10.835938 12.878906 14.789062 9.648438 16.488281 C 9.476562 15.171875 9.222656 11.984375 9.222656 9.945312 L 9.242188 9.203125 L 9.242188 9.179688 L 9.433594 9.160156 C 9.519531 9.160156 9.5625 9.09375 9.582031 9.011719 C 9.5625 8.902344 9.582031 8.777344 9.582031 8.777344 Z M 9.582031 8.777344 "/>
<path style=" stroke:none;fill-rule:nonzero;fill:rgb(43.921569%,14.509804%,40.392157%);fill-opacity:1;" d="M 5.332031 5.25 C 5.332031 5.269531 5.332031 5.292969 5.332031 5.3125 C 5.355469 5.3125 5.375 5.3125 5.398438 5.292969 C 5.417969 5.269531 5.417969 5.269531 5.441406 5.25 C 5.417969 5.226562 5.332031 5.226562 5.332031 5.25 Z M 5.332031 5.25 "/>
<path style=" stroke:none;fill-rule:nonzero;fill:rgb(43.921569%,14.509804%,40.392157%);fill-opacity:1;" d="M 5.292969 4.460938 L 2.144531 7.523438 C 4.398438 7.839844 6.355469 7.863281 7.90625 7.863281 L 7.925781 7.863281 C 7.925781 7.863281 7.949219 7.757812 7.949219 7.648438 C 7.949219 7.566406 7.988281 7.5 8.097656 7.5 L 8.289062 7.480469 Z M 5.015625 5.355469 C 4.992188 5.398438 4.992188 5.460938 5.078125 5.460938 C 5.140625 5.460938 5.226562 5.417969 5.25 5.398438 L 5.25 5.417969 C 5.226562 5.417969 5.101562 5.523438 5.015625 5.523438 C 4.953125 5.523438 4.929688 5.484375 4.929688 5.460938 C 4.929688 5.417969 4.972656 5.417969 5.015625 5.355469 Z M 6.035156 6.097656 C 6.035156 6.164062 5.949219 6.183594 5.929688 6.203125 C 5.929688 6.226562 5.90625 6.226562 5.90625 6.246094 C 5.90625 6.203125 5.90625 6.183594 5.90625 6.164062 C 5.90625 6.140625 5.886719 6.121094 5.863281 6.121094 C 5.824219 6.121094 5.695312 6.226562 5.78125 6.394531 C 5.78125 6.332031 5.800781 6.289062 5.800781 6.289062 C 5.800781 6.289062 5.824219 6.246094 5.824219 6.246094 C 5.84375 6.289062 5.84375 6.3125 5.84375 6.332031 C 5.84375 6.394531 5.800781 6.417969 5.824219 6.480469 C 5.824219 6.503906 5.824219 6.503906 5.84375 6.523438 C 5.84375 6.503906 5.84375 6.480469 5.84375 6.460938 C 5.84375 6.4375 5.886719 6.417969 5.886719 6.394531 C 5.886719 6.375 5.886719 6.375 5.886719 6.355469 C 5.90625 6.375 5.929688 6.394531 5.929688 6.460938 C 5.929688 6.523438 5.90625 6.546875 5.886719 6.566406 C 5.886719 6.585938 5.863281 6.609375 5.863281 6.628906 C 5.84375 6.757812 5.800781 6.800781 5.714844 6.800781 C 5.671875 6.800781 5.632812 6.800781 5.609375 6.777344 C 5.609375 6.925781 5.441406 6.925781 5.441406 7.011719 C 5.441406 7.035156 5.460938 7.078125 5.484375 7.097656 C 5.503906 7.117188 5.566406 7.140625 5.589844 7.183594 C 5.546875 7.183594 5.503906 7.203125 5.484375 7.226562 C 5.546875 7.265625 5.546875 7.289062 5.546875 7.332031 C 5.484375 7.308594 5.460938 7.308594 5.441406 7.332031 C 5.417969 7.351562 5.441406 7.375 5.398438 7.417969 C 5.398438 7.394531 5.375 7.375 5.355469 7.375 C 5.332031 7.375 5.269531 7.417969 5.269531 7.4375 C 5.269531 7.480469 5.25 7.5 5.207031 7.5 C 5.183594 7.523438 5.183594 7.542969 5.183594 7.566406 C 5.164062 7.542969 5.164062 7.523438 5.164062 7.480469 C 5.140625 7.480469 5.140625 7.4375 5.140625 7.417969 C 5.121094 7.4375 5.101562 7.457031 5.078125 7.4375 C 5.058594 7.4375 5.035156 7.457031 5.035156 7.5 C 5.035156 7.4375 5.035156 7.417969 5.058594 7.394531 C 5.058594 7.375 5.058594 7.351562 5.078125 7.332031 C 5.078125 7.332031 5.078125 7.332031 5.078125 7.308594 C 5.058594 7.308594 5.035156 7.308594 5.035156 7.289062 C 5.015625 7.289062 4.992188 7.308594 4.992188 7.332031 C 4.992188 7.289062 5.015625 7.265625 5.035156 7.246094 C 5.058594 7.203125 5.101562 7.183594 5.140625 7.226562 C 5.164062 7.246094 5.183594 7.265625 5.226562 7.265625 C 5.269531 7.265625 5.292969 7.246094 5.3125 7.226562 C 5.3125 7.203125 5.3125 7.203125 5.332031 7.203125 C 5.332031 7.183594 5.355469 7.160156 5.3125 7.117188 C 5.292969 7.078125 5.207031 7.011719 5.207031 6.949219 C 5.207031 6.863281 5.25 6.820312 5.292969 6.777344 C 5.269531 6.777344 5.292969 6.777344 5.269531 6.777344 C 5.207031 6.777344 5.207031 6.734375 5.164062 6.734375 C 5.121094 6.734375 5.101562 6.777344 5.101562 6.820312 C 5.101562 6.863281 5.101562 6.863281 5.121094 6.886719 C 5.140625 6.925781 5.140625 6.925781 5.140625 6.96875 C 5.101562 6.949219 5.058594 6.925781 5.035156 6.96875 C 5.015625 7.011719 5.015625 7.035156 4.992188 7.054688 C 4.992188 7.011719 4.929688 6.96875 4.867188 7.035156 C 4.867188 7.054688 4.867188 7.078125 4.800781 7.078125 C 4.78125 7.078125 4.78125 7.078125 4.761719 7.078125 C 4.738281 7.097656 4.71875 7.117188 4.71875 7.140625 C 4.71875 7.097656 4.71875 7.078125 4.738281 7.054688 C 4.738281 7.035156 4.738281 7.011719 4.761719 6.992188 C 4.738281 7.011719 4.695312 7.011719 4.675781 6.992188 C 4.652344 6.992188 4.652344 7.011719 4.632812 7.035156 C 4.632812 6.992188 4.652344 6.96875 4.675781 6.949219 C 4.675781 6.925781 4.71875 6.90625 4.761719 6.90625 C 4.761719 6.90625 4.761719 6.90625 4.761719 6.886719 C 4.761719 6.886719 4.71875 6.886719 4.71875 6.84375 C 4.695312 6.84375 4.675781 6.84375 4.652344 6.863281 C 4.675781 6.820312 4.695312 6.820312 4.71875 6.820312 C 4.71875 6.800781 4.761719 6.800781 4.761719 6.800781 C 4.78125 6.800781 4.800781 6.820312 4.800781 6.820312 C 4.824219 6.863281 4.886719 6.886719 4.953125 6.886719 C 4.972656 6.886719 4.992188 6.863281 4.992188 6.820312 C 4.992188 6.777344 4.886719 6.609375 4.886719 6.566406 C 4.886719 6.523438 4.972656 6.4375 5.015625 6.4375 C 5.183594 6.4375 5.207031 6.503906 5.25 6.503906 C 5.292969 6.503906 5.3125 6.503906 5.3125 6.480469 C 5.226562 6.394531 5.183594 6.394531 5.121094 6.332031 C 5.078125 6.3125 5.058594 6.269531 5.058594 6.226562 C 5.015625 6.226562 4.972656 6.289062 4.953125 6.332031 C 4.953125 6.3125 4.929688 6.3125 4.910156 6.3125 C 4.867188 6.3125 4.84375 6.355469 4.824219 6.394531 C 4.824219 6.355469 4.78125 6.3125 4.738281 6.3125 C 4.71875 6.3125 4.675781 6.332031 4.675781 6.355469 C 4.675781 6.375 4.632812 6.394531 4.589844 6.394531 C 4.570312 6.394531 4.570312 6.417969 4.546875 6.460938 C 4.527344 6.394531 4.546875 6.394531 4.546875 6.375 C 4.546875 6.332031 4.546875 6.332031 4.570312 6.3125 C 4.546875 6.3125 4.503906 6.3125 4.503906 6.289062 C 4.484375 6.289062 4.460938 6.289062 4.441406 6.332031 C 4.441406 6.289062 4.460938 6.269531 4.484375 6.246094 C 4.484375 6.226562 4.527344 6.203125 4.546875 6.203125 C 4.527344 6.203125 4.527344 6.183594 4.527344 6.164062 C 4.503906 6.140625 4.484375 6.164062 4.460938 6.164062 C 4.484375 6.121094 4.527344 6.121094 4.570312 6.140625 C 4.632812 6.121094 4.652344 6.140625 4.652344 6.183594 C 4.652344 6.226562 4.71875 6.226562 4.78125 6.226562 C 4.910156 6.226562 5.101562 6.121094 5.101562 6.015625 C 5.078125 6.015625 5.058594 6.015625 5.035156 6.015625 C 4.972656 6.015625 4.886719 6.097656 4.824219 6.097656 C 4.867188 6.054688 4.84375 6.035156 4.84375 5.992188 C 4.800781 5.992188 4.78125 6.015625 4.695312 6.015625 C 4.71875 5.992188 4.738281 5.949219 4.738281 5.929688 C 4.738281 5.90625 4.738281 5.886719 4.652344 5.886719 C 4.652344 5.886719 4.632812 5.886719 4.609375 5.886719 C 4.589844 5.886719 4.546875 5.886719 4.546875 5.84375 C 4.527344 5.84375 4.503906 5.84375 4.484375 5.863281 C 4.484375 5.84375 4.546875 5.800781 4.546875 5.800781 C 4.546875 5.78125 4.570312 5.78125 4.589844 5.78125 C 4.589844 5.78125 4.589844 5.78125 4.589844 5.757812 C 4.570312 5.757812 4.527344 5.738281 4.527344 5.695312 C 4.503906 5.671875 4.503906 5.671875 4.460938 5.695312 C 4.503906 5.652344 4.527344 5.652344 4.546875 5.671875 C 4.589844 5.652344 4.609375 5.652344 4.632812 5.671875 C 4.632812 5.652344 4.632812 5.632812 4.632812 5.609375 C 4.632812 5.589844 4.609375 5.566406 4.589844 5.566406 C 4.652344 5.566406 4.675781 5.589844 4.695312 5.609375 C 4.71875 5.609375 4.738281 5.652344 4.738281 5.652344 C 4.738281 5.695312 4.695312 5.738281 4.78125 5.800781 C 4.824219 5.824219 4.867188 5.84375 4.910156 5.84375 C 4.953125 5.84375 5.015625 5.886719 5.035156 5.886719 C 5.015625 5.863281 5.035156 5.824219 4.992188 5.800781 C 5.035156 5.800781 5.058594 5.800781 5.101562 5.824219 C 5.101562 5.78125 5.101562 5.78125 5.078125 5.757812 C 5.101562 5.757812 5.140625 5.757812 5.140625 5.757812 C 5.269531 5.78125 5.269531 5.714844 5.292969 5.632812 C 5.25 5.632812 5.183594 5.652344 5.121094 5.695312 C 5.121094 5.671875 5.121094 5.652344 5.121094 5.632812 C 5.121094 5.589844 5.140625 5.589844 5.164062 5.589844 C 5.164062 5.589844 5.183594 5.589844 5.207031 5.589844 C 5.226562 5.589844 5.269531 5.566406 5.25 5.503906 C 5.25 5.484375 5.226562 5.460938 5.207031 5.460938 C 5.183594 5.460938 5.183594 5.460938 5.164062 5.484375 C 5.140625 5.484375 5.140625 5.503906 5.140625 5.523438 C 5.140625 5.523438 5.140625 5.484375 5.121094 5.484375 C 5.121094 5.484375 5.121094 5.460938 5.101562 5.460938 C 5.101562 5.460938 5.101562 5.460938 5.101562 5.441406 C 5.078125 5.417969 5.101562 5.398438 5.140625 5.375 C 5.164062 5.375 5.207031 5.355469 5.226562 5.355469 C 5.269531 5.332031 5.292969 5.332031 5.292969 5.3125 C 5.292969 5.292969 5.3125 5.269531 5.332031 5.269531 C 5.355469 5.269531 5.398438 5.269531 5.398438 5.269531 C 5.460938 5.269531 5.523438 5.226562 5.503906 5.164062 C 5.546875 5.164062 5.566406 5.226562 5.546875 5.269531 C 5.566406 5.269531 5.632812 5.25 5.652344 5.25 C 5.652344 5.292969 5.609375 5.355469 5.589844 5.355469 C 5.632812 5.355469 5.671875 5.355469 5.695312 5.332031 C 5.695312 5.375 5.652344 5.441406 5.632812 5.441406 C 5.671875 5.460938 5.714844 5.484375 5.738281 5.546875 C 5.695312 5.523438 5.671875 5.546875 5.632812 5.546875 C 5.695312 5.632812 5.738281 5.757812 5.757812 5.800781 C 5.738281 5.800781 5.695312 5.757812 5.671875 5.757812 C 5.695312 5.824219 5.652344 5.90625 5.671875 5.929688 C 5.652344 5.90625 5.632812 5.90625 5.609375 5.886719 C 5.589844 5.90625 5.566406 5.972656 5.589844 6.054688 C 5.566406 5.972656 5.523438 5.972656 5.523438 5.949219 C 5.503906 5.992188 5.484375 6.015625 5.484375 6.121094 C 5.484375 6.269531 5.546875 6.394531 5.566406 6.4375 C 5.609375 6.523438 5.609375 6.585938 5.632812 6.609375 C 5.652344 6.671875 5.671875 6.695312 5.738281 6.695312 C 5.78125 6.695312 5.824219 6.652344 5.824219 6.585938 C 5.824219 6.480469 5.695312 6.417969 5.695312 6.246094 C 5.695312 6.140625 5.78125 6.078125 5.78125 5.992188 C 5.78125 5.929688 5.714844 5.972656 5.671875 5.949219 C 5.738281 5.949219 5.757812 5.886719 5.824219 5.886719 C 5.863281 5.886719 5.886719 5.90625 5.886719 5.929688 C 5.886719 5.972656 5.863281 5.992188 5.863281 6.015625 C 5.90625 5.972656 5.929688 5.90625 5.929688 5.863281 C 5.929688 5.824219 5.863281 5.757812 5.886719 5.671875 C 5.886719 5.652344 5.886719 5.671875 5.886719 5.652344 C 5.90625 5.757812 6.054688 5.78125 6.054688 5.886719 C 6.054688 5.992188 5.972656 5.972656 5.929688 6.035156 C 5.972656 6.015625 6.035156 6.035156 6.035156 6.097656 Z M 6.035156 6.097656 "/>
<path style=" stroke:none;fill-rule:nonzero;fill:rgb(43.921569%,14.509804%,40.392157%);fill-opacity:1;" d="M 8.011719 1.464844 C 6.183594 1.488281 4.441406 1.65625 3.167969 1.953125 C 2.65625 2.0625 2.464844 2.445312 2.421875 2.71875 C 2.273438 3.546875 2.0625 5.207031 2.125 6.886719 C 2.445312 6.585938 5.3125 3.78125 5.3125 3.78125 L 8.308594 6.757812 C 8.308594 4.738281 8.160156 2.785156 8.011719 1.464844 Z M 3.546875 2.445312 C 3.527344 2.484375 3.546875 2.550781 3.613281 2.550781 C 3.675781 2.550781 3.761719 2.507812 3.78125 2.484375 L 3.78125 2.507812 C 3.761719 2.507812 3.632812 2.613281 3.527344 2.613281 C 3.464844 2.613281 3.441406 2.570312 3.441406 2.550781 C 3.464844 2.507812 3.507812 2.484375 3.546875 2.445312 Z M 4.589844 3.1875 C 4.589844 3.25 4.503906 3.273438 4.484375 3.292969 C 4.484375 3.316406 4.460938 3.316406 4.460938 3.335938 C 4.460938 3.292969 4.460938 3.273438 4.460938 3.25 C 4.460938 3.230469 4.441406 3.207031 4.421875 3.207031 C 4.378906 3.207031 4.25 3.316406 4.335938 3.484375 C 4.335938 3.421875 4.355469 3.378906 4.355469 3.378906 C 4.355469 3.378906 4.378906 3.335938 4.378906 3.335938 C 4.398438 3.378906 4.398438 3.398438 4.398438 3.441406 C 4.398438 3.527344 4.355469 3.527344 4.378906 3.589844 C 4.378906 3.613281 4.378906 3.613281 4.398438 3.632812 C 4.398438 3.613281 4.398438 3.589844 4.398438 3.570312 C 4.398438 3.546875 4.421875 3.527344 4.441406 3.507812 C 4.441406 3.484375 4.441406 3.484375 4.441406 3.464844 C 4.460938 3.484375 4.484375 3.527344 4.484375 3.570312 C 4.484375 3.632812 4.460938 3.65625 4.460938 3.675781 C 4.460938 3.699219 4.441406 3.699219 4.441406 3.738281 C 4.421875 3.867188 4.355469 3.910156 4.292969 3.910156 C 4.25 3.910156 4.207031 3.910156 4.164062 3.890625 C 4.164062 4.039062 3.996094 4.039062 3.996094 4.144531 C 3.996094 4.164062 4.015625 4.207031 4.039062 4.230469 C 4.058594 4.25 4.121094 4.269531 4.164062 4.3125 C 4.121094 4.3125 4.078125 4.335938 4.058594 4.355469 C 4.121094 4.378906 4.121094 4.421875 4.121094 4.460938 C 4.058594 4.441406 4.039062 4.441406 4.015625 4.460938 C 3.996094 4.484375 4.015625 4.503906 3.996094 4.546875 C 3.996094 4.527344 3.972656 4.503906 3.953125 4.503906 C 3.929688 4.503906 3.867188 4.546875 3.867188 4.570312 C 3.867188 4.609375 3.847656 4.632812 3.804688 4.632812 C 3.78125 4.652344 3.78125 4.675781 3.78125 4.71875 C 3.761719 4.695312 3.761719 4.675781 3.761719 4.632812 C 3.738281 4.632812 3.738281 4.589844 3.738281 4.570312 C 3.71875 4.589844 3.71875 4.609375 3.675781 4.589844 C 3.65625 4.589844 3.632812 4.609375 3.632812 4.652344 C 3.632812 4.589844 3.632812 4.570312 3.65625 4.546875 C 3.65625 4.527344 3.65625 4.503906 3.675781 4.484375 C 3.675781 4.484375 3.675781 4.484375 3.675781 4.460938 C 3.65625 4.460938 3.632812 4.460938 3.632812 4.441406 C 3.613281 4.441406 3.589844 4.460938 3.570312 4.484375 C 3.570312 4.441406 3.589844 4.421875 3.613281 4.398438 C 3.632812 4.355469 3.675781 4.335938 3.71875 4.378906 C 3.738281 4.398438 3.761719 4.398438 3.804688 4.398438 C 3.847656 4.398438 3.867188 4.378906 3.890625 4.355469 C 3.890625 4.335938 3.890625 4.335938 3.910156 4.335938 C 3.910156 4.3125 3.929688 4.292969 3.890625 4.25 C 3.867188 4.207031 3.78125 4.144531 3.78125 4.078125 C 3.78125 3.996094 3.824219 3.953125 3.867188 3.910156 C 3.847656 3.910156 3.867188 3.910156 3.847656 3.910156 C 3.78125 3.910156 3.78125 3.867188 3.738281 3.867188 C 3.699219 3.867188 3.675781 3.910156 3.675781 3.953125 C 3.675781 3.996094 3.675781 3.996094 3.699219 4.015625 C 3.71875 4.039062 3.71875 4.058594 3.71875 4.101562 C 3.699219 4.078125 3.632812 4.058594 3.613281 4.078125 C 3.589844 4.121094 3.589844 4.144531 3.570312 4.164062 C 3.570312 4.121094 3.484375 4.078125 3.441406 4.144531 C 3.441406 4.164062 3.421875 4.1875 3.378906 4.1875 C 3.359375 4.1875 3.359375 4.1875 3.335938 4.1875 C 3.316406 4.207031 3.292969 4.230469 3.292969 4.25 C 3.292969 4.207031 3.292969 4.1875 3.316406 4.164062 C 3.316406 4.144531 3.316406 4.121094 3.335938 4.101562 C 3.316406 4.121094 3.273438 4.121094 3.25 4.101562 C 3.230469 4.101562 3.230469 4.121094 3.207031 4.144531 C 3.207031 4.101562 3.230469 4.058594 3.25 4.058594 C 3.25 4.039062 3.292969 4.015625 3.335938 4.015625 C 3.335938 4.015625 3.335938 4.015625 3.335938 3.996094 C 3.335938 3.996094 3.292969 3.996094 3.292969 3.953125 C 3.273438 3.953125 3.25 3.953125 3.230469 3.972656 C 3.25 3.929688 3.273438 3.929688 3.292969 3.929688 C 3.292969 3.910156 3.335938 3.910156 3.335938 3.910156 C 3.359375 3.910156 3.378906 3.929688 3.378906 3.929688 C 3.398438 3.972656 3.464844 3.996094 3.527344 3.996094 C 3.546875 3.996094 3.589844 3.972656 3.589844 3.929688 C 3.589844 3.890625 3.527344 3.804688 3.527344 3.761719 C 3.527344 3.71875 3.613281 3.632812 3.65625 3.632812 C 3.824219 3.632812 3.867188 3.699219 3.890625 3.699219 C 3.929688 3.699219 3.953125 3.699219 3.953125 3.675781 C 3.867188 3.570312 3.824219 3.589844 3.738281 3.527344 C 3.632812 3.398438 3.613281 3.359375 3.613281 3.316406 C 3.570312 3.316406 3.527344 3.378906 3.507812 3.421875 C 3.507812 3.398438 3.484375 3.398438 3.464844 3.398438 C 3.421875 3.398438 3.398438 3.441406 3.378906 3.484375 C 3.378906 3.441406 3.335938 3.398438 3.292969 3.398438 C 3.273438 3.398438 3.230469 3.421875 3.230469 3.421875 C 3.230469 3.421875 3.1875 3.464844 3.144531 3.464844 C 3.125 3.464844 3.125 3.484375 3.101562 3.527344 C 3.082031 3.464844 3.101562 3.464844 3.101562 3.441406 C 3.101562 3.398438 3.101562 3.378906 3.125 3.378906 C 3.101562 3.378906 3.058594 3.378906 3.058594 3.359375 C 3.039062 3.359375 3.015625 3.359375 2.996094 3.398438 C 2.996094 3.359375 3.015625 3.335938 3.039062 3.316406 C 3.039062 3.292969 3.082031 3.292969 3.101562 3.292969 C 3.101562 3.292969 3.101562 3.292969 3.101562 3.273438 C 3.082031 3.273438 3.082031 3.25 3.082031 3.207031 C 3.058594 3.1875 3.039062 3.207031 3.015625 3.207031 C 3.039062 3.167969 3.082031 3.167969 3.125 3.1875 C 3.1875 3.167969 3.207031 3.1875 3.207031 3.230469 C 3.207031 3.273438 3.273438 3.273438 3.335938 3.273438 C 3.464844 3.273438 3.65625 3.144531 3.65625 3.058594 C 3.632812 3.058594 3.613281 3.058594 3.589844 3.058594 C 3.527344 3.058594 3.441406 3.144531 3.378906 3.144531 C 3.421875 3.101562 3.398438 3.058594 3.398438 3.039062 C 3.359375 3.039062 3.316406 3.058594 3.25 3.058594 C 3.273438 3.039062 3.292969 2.996094 3.292969 2.976562 C 3.292969 2.953125 3.292969 2.933594 3.207031 2.933594 C 3.207031 2.933594 3.1875 2.933594 3.167969 2.933594 C 3.144531 2.933594 3.101562 2.933594 3.101562 2.890625 C 3.082031 2.890625 3.058594 2.890625 3.039062 2.910156 C 3.039062 2.890625 3.101562 2.847656 3.101562 2.847656 C 3.101562 2.828125 3.125 2.828125 3.144531 2.828125 C 3.144531 2.828125 3.144531 2.828125 3.144531 2.804688 C 3.125 2.804688 3.082031 2.785156 3.082031 2.742188 C 3.058594 2.71875 3.058594 2.71875 3.015625 2.742188 C 3.058594 2.699219 3.082031 2.71875 3.101562 2.71875 C 3.144531 2.699219 3.167969 2.699219 3.1875 2.71875 C 3.1875 2.699219 3.1875 2.675781 3.1875 2.65625 C 3.1875 2.636719 3.167969 2.613281 3.144531 2.613281 C 3.207031 2.613281 3.230469 2.636719 3.25 2.65625 C 3.273438 2.65625 3.292969 2.675781 3.292969 2.699219 C 3.292969 2.742188 3.230469 2.785156 3.335938 2.847656 C 3.378906 2.867188 3.421875 2.890625 3.464844 2.890625 C 3.507812 2.910156 3.570312 2.933594 3.589844 2.933594 C 3.570312 2.910156 3.589844 2.867188 3.546875 2.847656 C 3.589844 2.847656 3.632812 2.847656 3.65625 2.867188 C 3.65625 2.828125 3.65625 2.828125 3.632812 2.804688 C 3.65625 2.804688 3.699219 2.804688 3.71875 2.804688 C 3.847656 2.828125 3.847656 2.761719 3.867188 2.675781 C 3.824219 2.675781 3.761719 2.699219 3.699219 2.742188 C 3.699219 2.71875 3.699219 2.699219 3.699219 2.675781 C 3.699219 2.636719 3.71875 2.636719 3.738281 2.636719 C 3.738281 2.636719 3.761719 2.636719 3.78125 2.636719 C 3.804688 2.636719 3.847656 2.613281 3.824219 2.550781 C 3.824219 2.527344 3.804688 2.507812 3.761719 2.507812 C 3.738281 2.507812 3.738281 2.507812 3.71875 2.527344 C 3.699219 2.527344 3.699219 2.550781 3.699219 2.570312 C 3.699219 2.570312 3.699219 2.527344 3.675781 2.527344 C 3.675781 2.527344 3.675781 2.507812 3.65625 2.507812 C 3.65625 2.507812 3.65625 2.507812 3.65625 2.484375 C 3.632812 2.464844 3.65625 2.421875 3.699219 2.421875 C 3.71875 2.421875 3.761719 2.402344 3.78125 2.402344 C 3.824219 2.378906 3.847656 2.378906 3.847656 2.359375 C 3.847656 2.335938 3.867188 2.335938 3.890625 2.335938 C 3.910156 2.335938 3.953125 2.335938 3.972656 2.335938 C 4.039062 2.335938 4.101562 2.296875 4.078125 2.230469 C 4.121094 2.230469 4.144531 2.296875 4.121094 2.335938 C 4.144531 2.335938 4.207031 2.316406 4.230469 2.316406 C 4.230469 2.359375 4.1875 2.421875 4.164062 2.421875 C 4.1875 2.421875 4.25 2.421875 4.269531 2.402344 C 4.269531 2.445312 4.230469 2.507812 4.207031 2.507812 C 4.269531 2.527344 4.292969 2.550781 4.3125 2.613281 C 4.269531 2.59375 4.25 2.613281 4.207031 2.613281 C 4.292969 2.699219 4.3125 2.828125 4.335938 2.867188 C 4.3125 2.867188 4.269531 2.828125 4.25 2.828125 C 4.269531 2.890625 4.230469 2.976562 4.25 3.015625 C 4.230469 2.996094 4.207031 2.996094 4.1875 2.976562 C 4.164062 2.996094 4.144531 3.058594 4.164062 3.144531 C 4.144531 3.125 4.121094 3.101562 4.101562 3.101562 C 4.078125 3.144531 4.058594 3.167969 4.058594 3.273438 C 4.058594 3.421875 4.121094 3.546875 4.164062 3.613281 C 4.207031 3.699219 4.230469 3.761719 4.230469 3.804688 C 4.25 3.867188 4.269531 3.890625 4.335938 3.890625 C 4.378906 3.890625 4.421875 3.847656 4.421875 3.78125 C 4.421875 3.675781 4.292969 3.613281 4.292969 3.441406 C 4.292969 3.316406 4.378906 3.273438 4.378906 3.1875 C 4.378906 3.125 4.3125 3.167969 4.269531 3.125 C 4.335938 3.125 4.355469 3.039062 4.421875 3.039062 C 4.460938 3.039062 4.484375 3.058594 4.484375 3.082031 C 4.484375 3.101562 4.460938 3.144531 4.460938 3.167969 C 4.503906 3.125 4.546875 3.058594 4.546875 3.015625 C 4.546875 2.976562 4.484375 2.910156 4.503906 2.804688 C 4.503906 2.785156 4.503906 2.804688 4.503906 2.785156 C 4.527344 2.890625 4.675781 2.910156 4.675781 3.039062 C 4.675781 3.144531 4.589844 3.125 4.546875 3.1875 C 4.527344 3.101562 4.589844 3.125 4.589844 3.1875 Z M 6.480469 2.230469 C 6.460938 2.273438 6.460938 2.359375 6.546875 2.359375 C 6.609375 2.359375 6.714844 2.316406 6.714844 2.296875 L 6.714844 2.316406 C 6.695312 2.316406 6.566406 2.421875 6.460938 2.421875 C 6.394531 2.421875 6.375 2.378906 6.375 2.359375 C 6.394531 2.296875 6.4375 2.273438 6.480469 2.230469 Z M 7.585938 3.015625 C 7.585938 3.082031 7.5 3.101562 7.480469 3.125 C 7.480469 3.144531 7.457031 3.144531 7.457031 3.167969 C 7.457031 3.125 7.457031 3.101562 7.457031 3.058594 C 7.457031 3.039062 7.4375 3.015625 7.417969 3.015625 C 7.375 3.015625 7.246094 3.125 7.308594 3.316406 C 7.308594 3.25 7.332031 3.207031 7.332031 3.207031 C 7.332031 3.1875 7.351562 3.167969 7.351562 3.167969 C 7.375 3.207031 7.375 3.230469 7.375 3.273438 C 7.375 3.359375 7.308594 3.359375 7.351562 3.421875 C 7.351562 3.441406 7.351562 3.441406 7.375 3.464844 C 7.375 3.441406 7.375 3.421875 7.375 3.398438 C 7.375 3.378906 7.417969 3.359375 7.417969 3.335938 C 7.417969 3.316406 7.417969 3.316406 7.417969 3.292969 C 7.4375 3.316406 7.457031 3.359375 7.457031 3.398438 C 7.457031 3.464844 7.4375 3.484375 7.417969 3.507812 C 7.417969 3.527344 7.394531 3.527344 7.394531 3.570312 C 7.375 3.699219 7.308594 3.761719 7.226562 3.761719 C 7.183594 3.761719 7.140625 3.761719 7.097656 3.738281 C 7.097656 3.910156 6.90625 3.890625 6.90625 3.996094 C 6.90625 4.015625 6.925781 4.058594 6.949219 4.078125 C 6.96875 4.101562 7.054688 4.121094 7.078125 4.164062 C 7.035156 4.164062 6.992188 4.1875 6.96875 4.207031 C 7.035156 4.25 7.035156 4.269531 7.035156 4.335938 C 6.96875 4.3125 6.925781 4.3125 6.925781 4.335938 C 6.90625 4.355469 6.925781 4.378906 6.886719 4.421875 C 6.886719 4.398438 6.863281 4.378906 6.820312 4.378906 C 6.800781 4.378906 6.734375 4.421875 6.734375 4.441406 C 6.734375 4.484375 6.714844 4.503906 6.671875 4.503906 C 6.652344 4.527344 6.652344 4.546875 6.652344 4.589844 C 6.628906 4.570312 6.628906 4.546875 6.628906 4.503906 C 6.609375 4.484375 6.609375 4.460938 6.609375 4.441406 C 6.585938 4.460938 6.566406 4.484375 6.546875 4.460938 C 6.523438 4.460938 6.503906 4.484375 6.503906 4.527344 C 6.503906 4.460938 6.503906 4.441406 6.523438 4.421875 C 6.523438 4.398438 6.523438 4.378906 6.546875 4.355469 C 6.546875 4.355469 6.546875 4.355469 6.546875 4.335938 C 6.523438 4.335938 6.503906 4.335938 6.503906 4.3125 C 6.480469 4.3125 6.460938 4.335938 6.4375 4.355469 C 6.4375 4.3125 6.460938 4.269531 6.480469 4.269531 C 6.503906 4.230469 6.546875 4.207031 6.585938 4.25 C 6.609375 4.269531 6.652344 4.292969 6.671875 4.292969 C 6.695312 4.292969 6.734375 4.269531 6.757812 4.25 C 6.757812 4.230469 6.757812 4.230469 6.777344 4.230469 C 6.777344 4.207031 6.800781 4.1875 6.757812 4.144531 C 6.714844 4.101562 6.652344 4.039062 6.652344 3.972656 C 6.652344 3.890625 6.695312 3.824219 6.734375 3.78125 C 6.714844 3.78125 6.734375 3.78125 6.695312 3.78125 C 6.628906 3.78125 6.628906 3.738281 6.566406 3.738281 C 6.523438 3.738281 6.503906 3.78125 6.503906 3.824219 C 6.503906 3.867188 6.503906 3.867188 6.523438 3.890625 C 6.546875 3.929688 6.546875 3.929688 6.546875 3.972656 C 6.503906 3.953125 6.460938 3.929688 6.417969 3.953125 C 6.394531 3.996094 6.394531 4.015625 6.375 4.039062 C 6.375 3.996094 6.289062 3.953125 6.226562 4.015625 C 6.226562 4.039062 6.203125 4.058594 6.164062 4.058594 C 6.140625 4.058594 6.140625 4.058594 6.121094 4.058594 C 6.097656 4.078125 6.078125 4.101562 6.078125 4.121094 C 6.078125 4.078125 6.078125 4.058594 6.097656 4.039062 C 6.097656 4.015625 6.097656 3.972656 6.121094 3.972656 C 6.097656 3.996094 6.054688 3.996094 6.035156 3.972656 C 6.015625 3.972656 5.992188 3.996094 5.992188 4.015625 C 5.992188 3.972656 6.015625 3.929688 6.035156 3.929688 C 6.035156 3.910156 6.078125 3.890625 6.121094 3.890625 C 6.121094 3.890625 6.121094 3.890625 6.121094 3.867188 C 6.121094 3.867188 6.078125 3.867188 6.078125 3.804688 C 6.054688 3.804688 6.035156 3.804688 6.015625 3.824219 C 6.035156 3.78125 6.054688 3.78125 6.078125 3.761719 C 6.078125 3.738281 6.121094 3.738281 6.121094 3.738281 C 6.140625 3.738281 6.164062 3.761719 6.164062 3.761719 C 6.183594 3.804688 6.246094 3.824219 6.3125 3.824219 C 6.332031 3.824219 6.375 3.804688 6.375 3.761719 C 6.375 3.71875 6.3125 3.632812 6.3125 3.570312 C 6.3125 3.527344 6.394531 3.441406 6.460938 3.441406 C 6.628906 3.441406 6.671875 3.507812 6.714844 3.507812 C 6.777344 3.507812 6.777344 3.507812 6.777344 3.484375 C 6.695312 3.378906 6.652344 3.378906 6.566406 3.335938 C 6.523438 3.316406 6.503906 3.273438 6.503906 3.230469 C 6.460938 3.230469 6.394531 3.316406 6.394531 3.335938 C 6.394531 3.316406 6.375 3.316406 6.355469 3.316406 C 6.3125 3.316406 6.289062 3.359375 6.269531 3.398438 C 6.269531 3.359375 6.226562 3.316406 6.164062 3.316406 C 6.121094 3.316406 6.097656 3.335938 6.078125 3.359375 C 6.078125 3.378906 6.035156 3.398438 5.992188 3.398438 C 5.972656 3.421875 5.949219 3.421875 5.949219 3.464844 C 5.929688 3.398438 5.949219 3.378906 5.949219 3.378906 C 5.949219 3.335938 5.949219 3.316406 5.972656 3.316406 C 5.949219 3.316406 5.90625 3.316406 5.90625 3.292969 C 5.886719 3.292969 5.863281 3.292969 5.84375 3.335938 C 5.84375 3.292969 5.863281 3.25 5.886719 3.25 C 5.886719 3.230469 5.929688 3.207031 5.949219 3.207031 C 5.949219 3.207031 5.949219 3.207031 5.949219 3.1875 C 5.929688 3.1875 5.90625 3.167969 5.929688 3.125 C 5.90625 3.101562 5.886719 3.125 5.863281 3.125 C 5.90625 3.082031 5.929688 3.082031 5.972656 3.101562 C 6.035156 3.082031 6.054688 3.101562 6.054688 3.144531 C 6.054688 3.1875 6.121094 3.1875 6.183594 3.1875 C 6.3125 3.1875 6.523438 3.058594 6.503906 2.976562 C 6.460938 2.976562 6.460938 2.976562 6.4375 2.976562 C 6.375 2.976562 6.269531 3.058594 6.203125 3.058594 C 6.246094 3.015625 6.226562 2.976562 6.246094 2.953125 C 6.203125 2.953125 6.164062 2.976562 6.097656 2.976562 C 6.121094 2.953125 6.140625 2.910156 6.140625 2.890625 C 6.140625 2.867188 6.140625 2.847656 6.054688 2.847656 C 6.054688 2.847656 6.035156 2.847656 6.015625 2.847656 C 5.992188 2.847656 5.949219 2.847656 5.949219 2.804688 C 5.929688 2.804688 5.90625 2.804688 5.886719 2.828125 C 5.886719 2.804688 5.949219 2.761719 5.949219 2.761719 C 5.949219 2.742188 5.992188 2.742188 5.992188 2.742188 C 5.992188 2.742188 5.992188 2.742188 5.992188 2.71875 C 5.972656 2.71875 5.929688 2.699219 5.929688 2.65625 C 5.90625 2.636719 5.90625 2.636719 5.863281 2.65625 C 5.90625 2.613281 5.929688 2.613281 5.949219 2.636719 C 5.992188 2.613281 6.015625 2.613281 6.035156 2.636719 C 6.035156 2.613281 6.035156 2.570312 6.035156 2.570312 C 6.035156 2.550781 6.015625 2.527344 5.992188 2.527344 C 6.054688 2.527344 6.078125 2.550781 6.097656 2.570312 C 6.140625 2.570312 6.164062 2.613281 6.164062 2.636719 C 6.164062 2.699219 6.097656 2.71875 6.226562 2.785156 C 6.269531 2.804688 6.3125 2.828125 6.355469 2.828125 C 6.394531 2.828125 6.460938 2.867188 6.480469 2.867188 C 6.460938 2.847656 6.480469 2.804688 6.4375 2.785156 C 6.480469 2.785156 6.523438 2.785156 6.546875 2.804688 C 6.546875 2.761719 6.546875 2.761719 6.523438 2.742188 C 6.546875 2.742188 6.585938 2.742188 6.609375 2.742188 C 6.734375 2.761719 6.734375 2.699219 6.757812 2.613281 C 6.714844 2.613281 6.652344 2.636719 6.566406 2.675781 C 6.566406 2.65625 6.566406 2.636719 6.566406 2.613281 C 6.566406 2.570312 6.585938 2.570312 6.609375 2.570312 C 6.609375 2.570312 6.628906 2.570312 6.652344 2.570312 C 6.671875 2.570312 6.714844 2.550781 6.695312 2.484375 C 6.695312 2.464844 6.652344 2.445312 6.628906 2.445312 C 6.609375 2.445312 6.609375 2.445312 6.585938 2.464844 C 6.566406 2.464844 6.566406 2.484375 6.566406 2.507812 C 6.566406 2.507812 6.546875 2.464844 6.546875 2.464844 C 6.546875 2.464844 6.546875 2.445312 6.523438 2.445312 C 6.523438 2.445312 6.523438 2.445312 6.523438 2.421875 C 6.503906 2.402344 6.523438 2.359375 6.566406 2.359375 C 6.585938 2.359375 6.628906 2.335938 6.652344 2.335938 C 6.695312 2.316406 6.714844 2.316406 6.714844 2.296875 C 6.714844 2.273438 6.734375 2.253906 6.777344 2.253906 C 6.800781 2.253906 6.84375 2.253906 6.863281 2.253906 C 6.925781 2.253906 6.992188 2.210938 6.96875 2.144531 C 7.011719 2.144531 7.035156 2.230469 7.011719 2.253906 C 7.035156 2.253906 7.097656 2.230469 7.117188 2.230469 C 7.117188 2.273438 7.078125 2.335938 7.054688 2.335938 C 7.097656 2.335938 7.140625 2.335938 7.160156 2.316406 C 7.160156 2.359375 7.117188 2.421875 7.097656 2.445312 C 7.160156 2.464844 7.203125 2.484375 7.226562 2.570312 C 7.183594 2.550781 7.160156 2.570312 7.117188 2.570312 C 7.203125 2.65625 7.226562 2.804688 7.246094 2.828125 C 7.226562 2.828125 7.183594 2.785156 7.140625 2.785156 C 7.183594 2.867188 7.117188 2.933594 7.140625 2.976562 C 7.117188 2.953125 7.078125 2.953125 7.078125 2.933594 C 7.054688 2.953125 7.035156 3.015625 7.054688 3.101562 C 7.035156 3.082031 6.992188 3.058594 6.992188 3.058594 C 6.96875 3.101562 6.949219 3.125 6.949219 3.230469 C 6.949219 3.378906 7.011719 3.527344 7.054688 3.570312 C 7.097656 3.65625 7.117188 3.738281 7.117188 3.761719 C 7.140625 3.824219 7.183594 3.867188 7.226562 3.867188 C 7.265625 3.867188 7.332031 3.824219 7.332031 3.761719 C 7.332031 3.65625 7.203125 3.589844 7.203125 3.398438 C 7.203125 3.273438 7.308594 3.207031 7.308594 3.144531 C 7.308594 3.082031 7.246094 3.125 7.203125 3.082031 C 7.265625 3.058594 7.308594 2.996094 7.351562 2.996094 C 7.394531 2.996094 7.417969 3.015625 7.417969 3.039062 C 7.417969 3.082031 7.394531 3.101562 7.394531 3.125 C 7.4375 3.082031 7.480469 3.015625 7.480469 2.976562 C 7.480469 2.933594 7.417969 2.867188 7.417969 2.761719 C 7.417969 2.742188 7.417969 2.761719 7.417969 2.742188 C 7.4375 2.847656 7.609375 2.890625 7.609375 2.996094 C 7.609375 3.101562 7.523438 3.082031 7.457031 3.167969 C 7.523438 2.933594 7.585938 2.953125 7.585938 3.015625 Z M 7.585938 3.015625 "/>
<path style=" stroke:none;fill-rule:nonzero;fill:rgb(43.921569%,14.509804%,40.392157%);fill-opacity:1;" d="M 3.867188 2.316406 C 3.867188 2.335938 3.867188 2.359375 3.867188 2.378906 C 3.890625 2.378906 3.910156 2.378906 3.929688 2.359375 C 3.953125 2.335938 3.953125 2.335938 3.972656 2.316406 C 3.953125 2.316406 3.867188 2.316406 3.867188 2.316406 Z M 3.867188 2.316406 "/>
<path style=" stroke:none;fill-rule:nonzero;fill:rgb(43.921569%,14.509804%,40.392157%);fill-opacity:1;" d="M 6.820312 2.105469 C 6.820312 2.125 6.820312 2.144531 6.820312 2.167969 C 6.84375 2.167969 6.863281 2.167969 6.886719 2.144531 C 6.90625 2.125 6.90625 2.125 6.925781 2.105469 C 6.925781 2.105469 6.820312 2.105469 6.820312 2.105469 Z M 6.820312 2.105469 "/>
</g>
</svg>
