<svg xmlns="http://www.w3.org/2000/svg" version="1.1" xmlns:xlink="http://www.w3.org/1999/xlink" xmlns:svgjs="http://svgjs.com/svgjs" width="800" height="800"><svg version="1.1" id="SvgjsSvg1000" xmlns="http://www.w3.org/2000/svg" xmlns:xlink="http://www.w3.org/1999/xlink" x="0px" y="0px" viewBox="0 0 800 800" style="enable-background:new 0 0 800 800;" xml:space="preserve">
<g transform="translate(0.000000,1024.000000) scale(0.100000,-0.100000)">
	<path d="M255.9,8682.9c-4.4-3-7.8-1145-7.8-2537v-2531h1850.1h1850.1v2538v2537H2106C1092.3,8689.9,259.2,8686.9,255.9,8682.9z
		 M1376,8149.9h290.3v-730v-730h432.1h432.1v308c1.1,312,11.1,1157,14.4,1157c1.1,0,144-1,315.7-3l314.6-3l-6.6-62
		c-3.3-34-5.5-903-5.5-1932l-1.1-1870l-53.2,1c-28.8,0-170.6,1-315.7,2l-264.8,2l7.8,973l6.6,973l-385.5-3c-211.6-2-408.8-3-437.6-3
		h-53.2v-972v-973l-229.3,2c-127.4,2-273.6,3-326.8,3h-97.5l-2.2,1936l-3.3,1936l38.8-6C1066.9,8152.9,1215.3,8149.9,1376,8149.9z"></path>
	<path d="M4118.4,7689.9v-1000h305h305l2-482l3-483l326-1l326-2l6,202c4,110,7,328,7,484v282h320h320v251v252l270-8l270-7v271v272
		l-667-3l-668-3l-2-255l-2-255l-255-3l-256-2v477v478l1207-3l1208-2l3-715l4-715l-264-2c-145-1-275-2-290-1l-28,1v-243v-243l-287-1
		c-158-1-289-4-291-6c-2-1-4-112-5-245l-2-242l-117,1c-65,1-145-1-178-5l-60-7v-233v-233l-57-7c-31-4-103-4-160-1c-56,3-118,3-138,0
		l-35-6v-268v-269h255h255v225v225l38,1c20,1,333,2,694,3l658,1v-25c0-14,2-213,4-442l5-417l-1062-1c-584,0-1128,2-1209,6l-148,7
		l-2,721l-3,721h-300h-300l-3-1060l-2-1060h1850h1850v1053c0,578,0,1055,0,1060c0,4-277,7-615,7h-615l2,225l3,225l278-2l277-2l2,147
		c2,81,3,197,3,257l-1,110l333-3l333-3l2,1001l3,1000h-1852h-1853V7689.9z"></path>
</g>
</svg><style>@media (prefers-color-scheme: light) { :root { filter: none; } }
</style></svg>