<?xml version="1.0" encoding="UTF-8"?>
<svg xmlns="http://www.w3.org/2000/svg" xmlns:xlink="http://www.w3.org/1999/xlink" width="17px" height="17px" viewBox="0 0 17 17" version="1.1">
<g id="surface1">
<path style=" stroke:none;fill-rule:evenodd;fill:rgb(10.980392%,11.372549%,27.058824%);fill-opacity:1;" d="M 6.03125 2.925781 C 5.960938 2.96875 5.78125 3.058594 5.621094 3.128906 C 5.460938 3.21875 5.304688 3.285156 5.257812 3.308594 C 5.214844 3.332031 5.054688 3.421875 4.875 3.511719 C 4.691406 3.605469 4.535156 3.695312 4.511719 3.695312 C 4.488281 3.71875 4.328125 3.785156 4.171875 3.875 C 4.011719 3.964844 3.875 4.035156 3.851562 4.035156 C 3.851562 4.035156 3.695312 4.125 3.511719 4.214844 C 3.332031 4.308594 3.128906 4.421875 3.082031 4.441406 C 3.015625 4.464844 2.855469 4.554688 2.742188 4.625 C 2.265625 4.875 2.199219 4.917969 2.199219 4.941406 C 2.199219 4.964844 2.265625 5.054688 2.5625 5.371094 C 2.605469 5.417969 2.675781 5.484375 2.71875 5.554688 C 2.765625 5.621094 2.855469 5.6875 2.878906 5.734375 C 2.925781 5.78125 3.015625 5.894531 3.128906 6.007812 C 3.21875 6.121094 3.355469 6.277344 3.445312 6.347656 C 3.511719 6.4375 3.761719 6.710938 3.988281 6.957031 C 4.214844 7.207031 4.441406 7.457031 4.464844 7.503906 C 4.535156 7.59375 4.535156 7.570312 4.714844 7.773438 C 5.257812 8.363281 5.507812 8.660156 5.574219 8.726562 C 5.621094 8.773438 5.710938 8.886719 5.800781 9 C 5.894531 9.089844 6.050781 9.292969 6.1875 9.40625 C 6.371094 9.609375 8.023438 11.445312 8.433594 11.898438 C 8.5 11.96875 8.566406 12.035156 8.566406 12.058594 C 8.589844 12.082031 8.660156 12.171875 8.75 12.261719 C 8.839844 12.351562 8.976562 12.511719 9.066406 12.601562 C 9.226562 12.785156 9.453125 13.035156 9.566406 13.148438 C 9.609375 13.191406 9.65625 13.238281 9.65625 13.261719 C 9.679688 13.28125 9.746094 13.351562 9.835938 13.464844 C 9.929688 13.554688 9.996094 13.644531 9.996094 13.644531 C 9.996094 13.644531 10.15625 13.828125 10.359375 14.054688 C 10.539062 14.28125 10.722656 14.460938 10.742188 14.460938 C 10.765625 14.484375 10.789062 14.484375 10.96875 14.371094 C 11.085938 14.300781 11.402344 14.144531 11.652344 14.007812 C 11.921875 13.871094 12.285156 13.667969 12.488281 13.578125 C 12.691406 13.464844 13.035156 13.304688 13.238281 13.191406 C 13.464844 13.078125 13.847656 12.875 14.097656 12.738281 C 14.347656 12.601562 14.597656 12.488281 14.644531 12.464844 C 14.734375 12.421875 14.777344 12.464844 14.300781 11.921875 C 14.074219 11.671875 13.828125 11.378906 13.734375 11.289062 C 13.644531 11.199219 13.578125 11.105469 13.554688 11.105469 C 13.554688 11.105469 13.441406 10.992188 13.328125 10.855469 C 13.214844 10.722656 13.101562 10.609375 13.101562 10.609375 C 13.101562 10.609375 12.964844 10.449219 12.808594 10.269531 C 12.648438 10.085938 12.445312 9.859375 12.351562 9.769531 C 12.261719 9.679688 12.171875 9.566406 12.125 9.519531 C 12.035156 9.40625 11.152344 8.433594 11.152344 8.433594 C 11.152344 8.433594 11.085938 8.339844 10.992188 8.25 C 10.902344 8.160156 10.789062 8.023438 10.742188 7.957031 C 10.699219 7.886719 10.609375 7.796875 10.539062 7.753906 C 10.382812 7.570312 10.222656 7.390625 10.199219 7.367188 C 10.175781 7.34375 10.019531 7.164062 9.816406 6.9375 C 9.179688 6.234375 8.976562 5.984375 8.863281 5.847656 C 8.792969 5.78125 8.589844 5.554688 8.410156 5.347656 C 8.070312 4.964844 7.886719 4.761719 7.84375 4.691406 C 7.820312 4.667969 7.773438 4.625 7.730469 4.578125 C 7.683594 4.535156 7.457031 4.261719 7.207031 3.988281 C 6.957031 3.71875 6.6875 3.398438 6.597656 3.308594 C 6.234375 2.902344 6.164062 2.832031 6.164062 2.8125 C 6.164062 2.832031 6.144531 2.855469 6.03125 2.925781 "/>
<path style=" stroke:none;fill-rule:evenodd;fill:rgb(52.941176%,73.72549%,12.54902%);fill-opacity:1;" d="M 2.222656 10.085938 C 2.222656 14.800781 2.222656 15.164062 2.242188 15.164062 C 2.265625 15.164062 2.335938 15.117188 2.402344 15.097656 C 2.46875 15.074219 2.71875 14.9375 2.925781 14.824219 C 3.128906 14.710938 3.398438 14.574219 3.535156 14.507812 C 3.671875 14.4375 3.945312 14.300781 4.148438 14.1875 C 4.351562 14.074219 4.601562 13.941406 4.691406 13.894531 C 4.78125 13.847656 5.078125 13.691406 5.328125 13.554688 C 5.574219 13.417969 5.871094 13.261719 5.984375 13.214844 L 6.1875 13.101562 L 6.1875 9.429688 L 6.121094 9.316406 C 6.074219 9.269531 5.960938 9.132812 5.871094 9.042969 C 5.78125 8.953125 5.667969 8.816406 5.644531 8.773438 C 5.574219 8.703125 5.328125 8.410156 4.78125 7.820312 C 4.601562 7.617188 4.625 7.636719 4.535156 7.546875 C 4.488281 7.503906 4.285156 7.277344 4.058594 7.003906 C 3.832031 6.753906 3.582031 6.460938 3.511719 6.390625 C 3.445312 6.300781 3.285156 6.144531 3.195312 6.050781 C 3.105469 5.9375 2.992188 5.824219 2.945312 5.78125 C 2.902344 5.734375 2.832031 5.667969 2.789062 5.597656 C 2.742188 5.554688 2.628906 5.417969 2.539062 5.328125 C 2.449219 5.234375 2.355469 5.121094 2.3125 5.078125 L 2.222656 4.988281 L 2.222656 10.085938 "/>
<path style=" stroke:none;fill-rule:evenodd;fill:rgb(30.196078%,73.333333%,82.745098%);fill-opacity:1;" d="M 14.53125 2.46875 C 14.371094 2.5625 13.941406 2.789062 13.28125 3.128906 C 13.101562 3.21875 12.851562 3.355469 12.738281 3.421875 C 12.601562 3.492188 12.351562 3.625 12.195312 3.71875 C 12.011719 3.808594 11.742188 3.945312 11.605469 4.035156 C 11.46875 4.101562 11.21875 4.238281 11.0625 4.328125 C 10.902344 4.421875 10.765625 4.488281 10.765625 4.488281 C 10.742188 4.511719 10.742188 4.875 10.742188 6.324219 C 10.742188 7.683594 10.789062 7.980469 10.789062 7.503906 C 10.855469 7.164062 10.789062 6.867188 10.789062 6.84375 C 10.789062 6.800781 10.925781 6.84375 10.96875 6.890625 C 10.992188 6.914062 11.039062 6.957031 11.039062 6.957031 C 11.0625 6.957031 11.0625 6.980469 11.0625 6.980469 C 11.0625 6.980469 11.0625 7.003906 11.085938 7.003906 C 11.105469 7.003906 11.105469 7.027344 11.128906 7.027344 C 11.152344 7.027344 11.152344 7.050781 11.152344 7.050781 C 11.152344 7.050781 11.175781 7.050781 11.199219 7.070312 C 11.21875 7.09375 11.242188 7.117188 11.242188 7.117188 C 11.242188 7.117188 11.265625 7.140625 11.265625 7.140625 C 11.265625 7.164062 11.289062 7.183594 11.3125 7.183594 C 11.332031 7.183594 11.355469 7.207031 11.355469 7.207031 C 11.355469 7.207031 11.378906 7.230469 11.402344 7.253906 C 11.425781 7.277344 11.445312 7.277344 11.445312 7.296875 C 11.445312 7.320312 11.445312 7.320312 11.46875 7.320312 C 11.492188 7.320312 11.492188 7.320312 11.492188 7.34375 C 11.492188 7.367188 11.492188 7.367188 11.515625 7.367188 C 11.539062 7.367188 11.539062 7.367188 11.539062 7.390625 C 11.539062 7.390625 11.558594 7.410156 11.582031 7.410156 C 11.628906 7.410156 11.765625 7.546875 11.765625 7.570312 C 11.765625 7.570312 11.785156 7.59375 11.785156 7.59375 C 11.808594 7.59375 11.808594 7.617188 11.832031 7.636719 C 11.832031 7.660156 11.855469 7.660156 11.855469 7.660156 C 11.855469 7.660156 11.878906 7.683594 11.898438 7.707031 C 11.921875 7.730469 11.921875 7.753906 11.945312 7.753906 C 11.96875 7.753906 11.96875 7.753906 11.96875 7.773438 C 11.992188 7.796875 12.058594 7.886719 12.082031 7.910156 C 12.105469 7.910156 12.105469 7.933594 12.105469 7.957031 C 12.105469 7.980469 12.105469 7.980469 12.171875 8 C 12.238281 8.023438 12.238281 8.023438 12.285156 8.113281 C 12.308594 8.160156 12.332031 8.207031 12.332031 8.207031 C 12.332031 8.207031 12.351562 8.207031 12.351562 8.207031 C 12.351562 8.207031 12.375 8.207031 12.398438 8.207031 C 12.421875 8.207031 12.421875 8.226562 12.445312 8.25 C 12.445312 8.273438 12.464844 8.296875 12.488281 8.296875 C 12.535156 8.296875 12.578125 8.363281 12.578125 8.386719 C 12.578125 8.386719 12.578125 8.410156 12.578125 8.410156 C 12.578125 8.410156 12.601562 8.410156 12.578125 8.433594 C 12.578125 8.433594 12.578125 8.453125 12.601562 8.453125 C 12.601562 8.453125 12.625 8.453125 12.625 8.453125 C 12.625 8.453125 12.648438 8.453125 12.648438 8.453125 C 12.671875 8.453125 12.671875 8.453125 12.671875 8.476562 C 12.671875 8.5 12.691406 8.5 12.691406 8.5 C 12.714844 8.5 12.714844 8.523438 12.738281 8.546875 C 12.738281 8.566406 12.761719 8.589844 12.785156 8.589844 C 12.808594 8.589844 12.828125 8.613281 12.828125 8.636719 C 12.828125 8.660156 12.875 8.679688 12.898438 8.703125 C 12.921875 8.726562 12.941406 8.75 12.941406 8.773438 C 12.941406 8.773438 12.964844 8.792969 12.964844 8.792969 C 12.988281 8.792969 12.988281 8.816406 12.988281 8.839844 C 12.988281 8.863281 12.988281 8.863281 13.011719 8.863281 C 13.054688 8.863281 13.125 8.953125 13.125 8.976562 C 13.125 9 13.125 9 13.148438 9 C 13.167969 9 13.191406 9.019531 13.214844 9.042969 C 13.238281 9.066406 13.28125 9.113281 13.328125 9.132812 C 13.375 9.15625 13.394531 9.179688 13.394531 9.203125 C 13.394531 9.226562 13.488281 9.316406 13.507812 9.316406 C 13.507812 9.316406 13.53125 9.339844 13.554688 9.363281 C 13.578125 9.382812 13.601562 9.40625 13.601562 9.40625 C 13.621094 9.40625 13.621094 9.40625 13.621094 9.429688 C 13.621094 9.453125 13.621094 9.453125 13.644531 9.453125 C 13.667969 9.453125 13.667969 9.476562 13.691406 9.496094 C 13.691406 9.519531 13.714844 9.542969 13.714844 9.542969 C 13.714844 9.542969 13.734375 9.566406 13.734375 9.566406 C 13.734375 9.566406 13.734375 9.589844 13.757812 9.589844 C 13.757812 9.589844 13.78125 9.589844 13.78125 9.609375 C 13.78125 9.632812 13.804688 9.632812 13.804688 9.632812 C 13.828125 9.632812 13.828125 9.632812 13.828125 9.65625 C 13.828125 9.679688 13.847656 9.679688 13.847656 9.679688 C 13.871094 9.679688 13.871094 9.703125 13.894531 9.722656 C 13.894531 9.746094 13.917969 9.769531 13.941406 9.769531 C 13.960938 9.769531 13.960938 9.792969 13.960938 9.792969 C 13.960938 9.792969 13.960938 9.792969 13.984375 9.792969 C 13.984375 9.792969 14.007812 9.792969 14.007812 9.816406 C 14.007812 9.835938 14.007812 9.835938 14.03125 9.835938 C 14.054688 9.835938 14.054688 9.859375 14.054688 9.859375 C 14.054688 9.882812 14.074219 9.90625 14.097656 9.929688 C 14.121094 9.949219 14.121094 9.972656 14.121094 9.972656 C 14.121094 9.972656 14.121094 9.996094 14.144531 9.996094 C 14.1875 9.996094 14.1875 9.996094 14.1875 10.019531 C 14.1875 10.042969 14.1875 10.042969 14.210938 10.042969 C 14.234375 10.042969 14.257812 10.0625 14.257812 10.085938 C 14.28125 10.109375 14.300781 10.132812 14.300781 10.132812 C 14.300781 10.132812 14.324219 10.15625 14.324219 10.15625 C 14.324219 10.175781 14.347656 10.175781 14.371094 10.199219 C 14.394531 10.199219 14.414062 10.222656 14.414062 10.222656 C 14.414062 10.222656 14.4375 10.246094 14.460938 10.246094 C 14.484375 10.246094 14.507812 10.289062 14.507812 10.3125 C 14.507812 10.335938 14.53125 10.359375 14.53125 10.359375 C 14.53125 10.359375 14.53125 10.359375 14.53125 10.382812 C 14.53125 10.402344 14.550781 10.402344 14.550781 10.402344 C 14.574219 10.402344 14.574219 10.402344 14.574219 10.425781 C 14.574219 10.472656 14.621094 10.496094 14.710938 10.515625 C 14.757812 10.515625 14.757812 10.699219 14.757812 11.765625 C 14.757812 12.285156 14.757812 12.421875 14.757812 12.601562 C 14.757812 12.601562 14.757812 11.808594 14.757812 10.675781 C 14.757812 9.542969 14.757812 7.230469 14.757812 5.554688 C 14.757812 3.875 14.757812 2.492188 14.757812 2.492188 C 14.710938 2.378906 14.621094 2.425781 14.53125 2.46875 M 6.210938 3.058594 C 6.210938 3.058594 6.234375 3.082031 6.257812 3.105469 L 6.300781 3.152344 L 6.257812 3.105469 C 6.234375 3.058594 6.210938 3.039062 6.210938 3.058594 M 6.550781 3.421875 C 6.574219 3.445312 6.617188 3.492188 6.617188 3.492188 C 6.617188 3.492188 6.597656 3.445312 6.550781 3.421875 C 6.527344 3.398438 6.503906 3.355469 6.503906 3.355469 C 6.484375 3.355469 6.503906 3.378906 6.550781 3.421875 M 6.9375 3.875 C 6.9375 3.875 6.957031 3.898438 6.980469 3.921875 L 7.027344 3.964844 L 6.980469 3.921875 C 6.957031 3.875 6.9375 3.851562 6.9375 3.875 M 7.277344 4.238281 C 7.277344 4.238281 7.296875 4.261719 7.320312 4.285156 L 7.367188 4.328125 L 7.320312 4.285156 C 7.277344 4.238281 7.277344 4.214844 7.277344 4.238281 M 7.433594 4.421875 C 7.457031 4.441406 7.480469 4.464844 7.480469 4.464844 C 7.480469 4.464844 7.480469 4.464844 7.433594 4.421875 C 7.410156 4.398438 7.390625 4.375 7.390625 4.375 C 7.390625 4.375 7.410156 4.398438 7.433594 4.421875 M 8 5.054688 C 8 5.054688 8.023438 5.078125 8.046875 5.101562 L 8.09375 5.144531 L 8.046875 5.101562 C 8 5.054688 8 5.03125 8 5.054688 M 8.339844 5.441406 C 8.363281 5.460938 8.386719 5.484375 8.386719 5.484375 C 8.386719 5.484375 8.386719 5.460938 8.339844 5.441406 C 8.320312 5.417969 8.296875 5.394531 8.296875 5.394531 C 8.296875 5.394531 8.320312 5.394531 8.339844 5.441406 M 8.476562 5.597656 C 8.5 5.621094 8.523438 5.644531 8.523438 5.644531 C 8.523438 5.644531 8.523438 5.621094 8.476562 5.597656 C 8.453125 5.574219 8.433594 5.554688 8.433594 5.554688 C 8.433594 5.554688 8.453125 5.574219 8.476562 5.597656 M 8.589844 5.710938 C 8.589844 5.710938 8.613281 5.734375 8.636719 5.757812 L 8.679688 5.800781 L 8.636719 5.757812 C 8.613281 5.710938 8.589844 5.710938 8.589844 5.710938 M 9.089844 6.257812 C 9.113281 6.277344 9.132812 6.300781 9.132812 6.300781 C 9.132812 6.300781 9.113281 6.300781 9.089844 6.257812 C 9.066406 6.234375 9.042969 6.210938 9.042969 6.210938 C 9.042969 6.210938 9.042969 6.234375 9.089844 6.257812 M 9.179688 6.371094 C 9.179688 6.371094 9.203125 6.390625 9.226562 6.414062 L 9.269531 6.460938 L 9.226562 6.414062 C 9.203125 6.371094 9.179688 6.371094 9.179688 6.371094 M 10.902344 6.800781 C 10.902344 6.800781 10.878906 6.800781 10.878906 6.800781 C 10.902344 6.800781 10.855469 6.777344 10.835938 6.777344 C 10.789062 6.800781 10.8125 6.800781 10.835938 6.777344 C 10.855469 6.753906 10.96875 6.914062 10.878906 6.800781 M 9.972656 7.277344 C 9.996094 7.296875 10.019531 7.320312 10.019531 7.320312 C 10.019531 7.320312 10.019531 7.296875 9.972656 7.277344 C 9.949219 7.253906 9.929688 7.230469 9.929688 7.230469 C 9.929688 7.230469 9.949219 7.230469 9.972656 7.277344 M 10.585938 7.933594 C 10.609375 7.957031 10.628906 7.980469 10.628906 7.980469 C 10.628906 7.980469 10.609375 7.957031 10.585938 7.933594 C 10.5625 7.910156 10.539062 7.886719 10.539062 7.886719 C 10.539062 7.886719 10.539062 7.910156 10.585938 7.933594 M 6.144531 9.542969 C 6.144531 9.542969 6.164062 9.566406 6.1875 9.589844 L 6.234375 9.632812 L 6.1875 9.589844 C 6.164062 9.542969 6.144531 9.519531 6.144531 9.542969 M 6.324219 9.722656 C 6.347656 9.746094 6.371094 9.769531 6.371094 9.769531 C 6.371094 9.769531 6.371094 9.769531 6.324219 9.722656 C 6.300781 9.703125 6.277344 9.679688 6.277344 9.679688 C 6.277344 9.679688 6.300781 9.703125 6.324219 9.722656 M 6.414062 9.835938 C 6.414062 9.835938 6.4375 9.859375 6.460938 9.882812 L 6.503906 9.929688 L 6.460938 9.882812 C 6.4375 9.835938 6.414062 9.835938 6.414062 9.835938 M 6.9375 10.425781 C 6.957031 10.449219 6.980469 10.472656 6.980469 10.472656 C 6.980469 10.472656 6.980469 10.449219 6.9375 10.425781 C 6.914062 10.402344 6.890625 10.382812 6.890625 10.382812 C 6.890625 10.382812 6.914062 10.382812 6.9375 10.425781 M 7.207031 10.742188 C 7.207031 10.742188 7.230469 10.765625 7.253906 10.789062 L 7.296875 10.835938 L 7.253906 10.789062 C 7.230469 10.722656 7.207031 10.722656 7.207031 10.742188 M 7.367188 10.902344 C 7.367188 10.902344 7.390625 10.925781 7.410156 10.949219 L 7.457031 10.992188 L 7.410156 10.949219 C 7.367188 10.902344 7.367188 10.878906 7.367188 10.902344 M 7.523438 11.0625 C 7.523438 11.0625 7.546875 11.085938 7.570312 11.105469 L 7.617188 11.152344 L 7.570312 11.105469 C 7.523438 11.0625 7.523438 11.0625 7.523438 11.0625 M 7.84375 11.425781 C 7.84375 11.425781 7.867188 11.445312 7.886719 11.46875 L 7.933594 11.515625 L 7.886719 11.46875 C 7.867188 11.425781 7.84375 11.425781 7.84375 11.425781 M 8.296875 11.945312 C 8.296875 11.945312 8.320312 11.96875 8.339844 11.992188 L 8.386719 12.035156 L 8.339844 11.992188 C 8.320312 11.945312 8.296875 11.921875 8.296875 11.945312 M 8.433594 12.105469 C 8.433594 12.105469 8.453125 12.125 8.476562 12.148438 L 8.523438 12.195312 L 8.476562 12.148438 C 8.453125 12.105469 8.433594 12.082031 8.433594 12.105469 M 8.929688 12.648438 C 8.929688 12.648438 8.953125 12.671875 8.976562 12.691406 L 9.019531 12.738281 L 8.976562 12.691406 C 8.929688 12.648438 8.929688 12.625 8.929688 12.648438 M 9.089844 12.828125 C 9.113281 12.851562 9.132812 12.875 9.132812 12.875 C 9.132812 12.875 9.132812 12.851562 9.089844 12.828125 C 9.066406 12.808594 9.042969 12.785156 9.042969 12.785156 C 9.042969 12.785156 9.066406 12.808594 9.089844 12.828125 M 9.679688 13.488281 C 9.679688 13.488281 9.703125 13.507812 9.722656 13.53125 L 9.769531 13.578125 L 9.722656 13.53125 C 9.703125 13.488281 9.679688 13.488281 9.679688 13.488281 M 9.859375 13.691406 C 9.882812 13.714844 9.90625 13.734375 9.90625 13.734375 C 9.90625 13.734375 9.90625 13.714844 9.859375 13.691406 C 9.835938 13.667969 9.816406 13.644531 9.816406 13.644531 C 9.816406 13.644531 9.835938 13.667969 9.859375 13.691406 M 9.972656 13.804688 C 9.972656 13.804688 9.996094 13.828125 10.019531 13.847656 L 10.0625 13.894531 L 10.019531 13.847656 C 9.972656 13.804688 9.972656 13.804688 9.972656 13.804688 M 10.472656 14.371094 C 10.472656 14.371094 10.496094 14.394531 10.515625 14.414062 L 10.5625 14.460938 L 10.515625 14.414062 C 10.472656 14.371094 10.472656 14.347656 10.472656 14.371094 M 10.652344 14.574219 C 10.675781 14.597656 10.699219 14.621094 10.699219 14.621094 C 10.699219 14.621094 10.699219 14.597656 10.652344 14.574219 C 10.628906 14.550781 10.609375 14.53125 10.609375 14.53125 C 10.609375 14.53125 10.628906 14.53125 10.652344 14.574219 "/>
<path style=" stroke:none;fill-rule:evenodd;fill:rgb(17.254902%,65.490196%,72.941176%);fill-opacity:1;" d="M 10.765625 6.84375 C 10.765625 6.914062 10.765625 7.207031 10.765625 7.503906 C 10.765625 7.910156 10.765625 8.023438 10.742188 8.023438 C 10.722656 8.023438 10.925781 8.226562 11.105469 8.433594 C 11.199219 8.523438 12.058594 9.476562 12.148438 9.589844 C 12.195312 9.632812 12.285156 9.746094 12.375 9.835938 C 12.464844 9.929688 12.671875 10.15625 12.828125 10.335938 C 12.988281 10.515625 13.125 10.675781 13.125 10.675781 C 13.125 10.675781 13.238281 10.789062 13.351562 10.925781 C 13.464844 11.0625 13.578125 11.175781 13.578125 11.175781 C 13.578125 11.175781 13.667969 11.265625 13.757812 11.355469 C 14.210938 11.878906 14.734375 12.464844 14.757812 12.464844 C 14.777344 12.464844 14.757812 10.3125 14.734375 10.3125 C 14.664062 10.3125 14.597656 10.269531 14.597656 10.222656 C 14.597656 10.199219 14.574219 10.199219 14.574219 10.199219 C 14.507812 10.199219 14.507812 10.199219 14.507812 10.175781 C 14.507812 10.15625 14.507812 10.15625 14.507812 10.15625 C 14.507812 10.15625 14.484375 10.15625 14.484375 10.109375 C 14.484375 10.085938 14.460938 10.0625 14.4375 10.042969 C 14.414062 10.042969 14.394531 10.019531 14.394531 10.019531 C 14.394531 10.019531 14.371094 9.996094 14.347656 9.996094 C 14.324219 9.996094 14.300781 9.972656 14.300781 9.949219 C 14.300781 9.929688 14.300781 9.929688 14.28125 9.929688 C 14.28125 9.929688 14.257812 9.90625 14.234375 9.882812 C 14.210938 9.859375 14.1875 9.835938 14.1875 9.835938 C 14.167969 9.835938 14.167969 9.835938 14.167969 9.816406 C 14.167969 9.792969 14.144531 9.792969 14.121094 9.792969 C 14.121094 9.792969 14.097656 9.792969 14.097656 9.769531 C 14.097656 9.769531 14.074219 9.746094 14.074219 9.722656 C 14.054688 9.703125 14.03125 9.679688 14.03125 9.65625 C 14.03125 9.632812 14.007812 9.632812 14.007812 9.632812 C 13.984375 9.632812 13.984375 9.632812 13.984375 9.609375 C 13.984375 9.589844 13.984375 9.589844 13.960938 9.589844 C 13.960938 9.589844 13.941406 9.589844 13.941406 9.589844 C 13.941406 9.589844 13.917969 9.566406 13.917969 9.566406 C 13.894531 9.566406 13.894531 9.542969 13.871094 9.519531 C 13.871094 9.496094 13.847656 9.476562 13.828125 9.476562 C 13.804688 9.476562 13.804688 9.476562 13.804688 9.453125 C 13.804688 9.429688 13.804688 9.429688 13.78125 9.429688 C 13.757812 9.429688 13.757812 9.429688 13.757812 9.40625 C 13.757812 9.382812 13.734375 9.382812 13.734375 9.382812 C 13.734375 9.382812 13.714844 9.363281 13.714844 9.363281 C 13.714844 9.363281 13.714844 9.339844 13.691406 9.339844 C 13.691406 9.339844 13.667969 9.316406 13.667969 9.292969 C 13.667969 9.269531 13.644531 9.246094 13.621094 9.246094 C 13.601562 9.246094 13.601562 9.246094 13.601562 9.226562 C 13.601562 9.226562 13.578125 9.203125 13.578125 9.203125 C 13.554688 9.203125 13.53125 9.179688 13.53125 9.15625 C 13.507812 9.132812 13.507812 9.113281 13.488281 9.113281 C 13.464844 9.113281 13.375 9.019531 13.375 9 C 13.375 9 13.351562 8.976562 13.304688 8.929688 C 13.261719 8.90625 13.214844 8.863281 13.191406 8.839844 C 13.167969 8.816406 13.148438 8.792969 13.125 8.792969 C 13.101562 8.792969 13.078125 8.773438 13.101562 8.773438 C 13.101562 8.726562 13.035156 8.660156 12.988281 8.660156 C 12.964844 8.660156 12.941406 8.660156 12.964844 8.636719 C 12.964844 8.613281 12.964844 8.613281 12.941406 8.589844 C 12.921875 8.589844 12.921875 8.566406 12.921875 8.566406 C 12.921875 8.566406 12.898438 8.546875 12.875 8.5 C 12.851562 8.476562 12.828125 8.433594 12.808594 8.433594 C 12.808594 8.410156 12.785156 8.410156 12.761719 8.386719 C 12.738281 8.386719 12.714844 8.363281 12.714844 8.339844 C 12.714844 8.320312 12.691406 8.296875 12.671875 8.296875 C 12.648438 8.296875 12.648438 8.273438 12.648438 8.273438 C 12.648438 8.25 12.648438 8.25 12.625 8.25 C 12.601562 8.25 12.601562 8.25 12.601562 8.25 C 12.601562 8.25 12.601562 8.226562 12.578125 8.25 C 12.578125 8.25 12.558594 8.25 12.558594 8.226562 C 12.558594 8.226562 12.558594 8.207031 12.558594 8.207031 C 12.558594 8.207031 12.558594 8.207031 12.558594 8.183594 C 12.558594 8.160156 12.511719 8.09375 12.464844 8.09375 C 12.445312 8.09375 12.421875 8.070312 12.421875 8.046875 C 12.421875 8.023438 12.398438 8.023438 12.375 8 C 12.351562 8 12.351562 8 12.332031 8 C 12.332031 8 12.308594 8 12.308594 8 C 12.308594 8 12.285156 7.957031 12.261719 7.910156 C 12.21875 7.820312 12.21875 7.820312 12.148438 7.796875 C 12.105469 7.773438 12.082031 7.773438 12.082031 7.753906 C 12.082031 7.730469 12.082031 7.730469 12.058594 7.707031 C 12.035156 7.683594 11.945312 7.617188 11.945312 7.570312 C 11.945312 7.546875 11.921875 7.546875 11.921875 7.546875 C 11.921875 7.546875 11.898438 7.523438 11.878906 7.503906 C 11.855469 7.480469 11.855469 7.457031 11.832031 7.457031 C 11.808594 7.457031 11.808594 7.433594 11.808594 7.433594 C 11.808594 7.410156 11.785156 7.410156 11.765625 7.390625 C 11.742188 7.390625 11.742188 7.367188 11.742188 7.367188 C 11.742188 7.34375 11.605469 7.207031 11.558594 7.207031 C 11.539062 7.207031 11.515625 7.183594 11.515625 7.183594 C 11.515625 7.183594 11.515625 7.164062 11.492188 7.164062 C 11.46875 7.164062 11.46875 7.164062 11.46875 7.140625 C 11.46875 7.117188 11.46875 7.117188 11.445312 7.117188 C 11.425781 7.117188 11.425781 7.117188 11.425781 7.09375 C 11.425781 7.070312 11.402344 7.070312 11.378906 7.050781 C 11.355469 7.027344 11.332031 7.027344 11.332031 7.003906 C 11.332031 6.980469 11.3125 6.980469 11.289062 6.980469 C 11.265625 6.980469 11.242188 6.957031 11.242188 6.9375 C 11.242188 6.914062 11.21875 6.914062 11.21875 6.914062 C 11.21875 6.914062 11.199219 6.890625 11.175781 6.867188 C 11.152344 6.84375 11.128906 6.824219 11.128906 6.84375 C 11.128906 6.84375 11.128906 6.84375 11.105469 6.824219 C 11.105469 6.800781 11.085938 6.800781 11.0625 6.800781 C 11.039062 6.800781 11.039062 6.800781 11.039062 6.777344 C 11.039062 6.777344 11.039062 6.753906 11.015625 6.753906 C 10.992188 6.753906 10.96875 6.710938 10.949219 6.6875 C 10.902344 6.640625 10.902344 6.640625 10.8125 6.640625 L 10.722656 6.640625 L 10.765625 6.84375 M 9.589844 6.730469 C 9.589844 6.730469 9.609375 6.753906 9.632812 6.777344 L 9.679688 6.824219 L 9.632812 6.777344 C 9.589844 6.730469 9.589844 6.730469 9.589844 6.730469 M 9.722656 6.890625 C 9.722656 6.890625 9.746094 6.914062 9.769531 6.9375 L 9.816406 6.980469 L 9.769531 6.9375 C 9.746094 6.890625 9.722656 6.890625 9.722656 6.890625 M 10.0625 13.804688 C 10.0625 13.804688 10.085938 13.828125 10.109375 13.847656 L 10.15625 13.894531 L 10.109375 13.847656 C 10.0625 13.804688 10.0625 13.804688 10.0625 13.804688 "/>
</g>
</svg>
