<?xml version="1.0" encoding="UTF-8"?>
<svg xmlns="http://www.w3.org/2000/svg" xmlns:xlink="http://www.w3.org/1999/xlink" width="17px" height="17px" viewBox="0 0 17 17" version="1.1">
<g id="surface1">
<path style=" stroke:none;fill-rule:evenodd;fill:rgb(10.980392%,11.372549%,27.058824%);fill-opacity:1;" d="M 5.554688 1.636719 L 5.074219 1.878906 C 4.886719 1.972656 4.695312 2.074219 4.652344 2.101562 L 4.191406 2.339844 L 3.769531 2.5625 L 3.359375 2.773438 C 3.164062 2.875 2.996094 2.960938 2.984375 2.96875 C 2.976562 2.976562 2.792969 3.074219 2.582031 3.183594 L 2.050781 3.453125 L 1.644531 3.664062 C 1.085938 3.957031 0.992188 4.007812 0.992188 4.035156 C 1.121094 4.21875 1.273438 4.390625 1.4375 4.542969 L 1.636719 4.753906 L 1.828125 4.96875 L 2.117188 5.28125 L 2.492188 5.691406 L 3.152344 6.410156 C 3.425781 6.710938 3.6875 6.992188 3.730469 7.035156 L 4.019531 7.355469 L 5.046875 8.476562 L 5.328125 8.78125 C 5.433594 8.898438 5.632812 9.117188 5.777344 9.261719 C 5.992188 9.484375 7.96875 11.644531 8.441406 12.167969 C 8.515625 12.253906 8.59375 12.332031 8.613281 12.351562 L 8.839844 12.59375 C 8.945312 12.710938 9.113281 12.894531 9.214844 13 L 9.800781 13.65625 C 9.847656 13.710938 9.898438 13.761719 9.910156 13.78125 L 10.121094 14.019531 L 10.316406 14.230469 L 10.746094 14.699219 L 11.195312 15.179688 C 11.230469 15.207031 11.238281 15.207031 11.472656 15.082031 L 12.296875 14.664062 L 13.296875 14.15625 L 14.195312 13.695312 L 15.226562 13.179688 C 15.527344 13.023438 15.816406 12.875 15.867188 12.855469 C 15.984375 12.800781 16.015625 12.855469 15.453125 12.230469 L 14.769531 11.476562 L 14.5625 11.257812 L 14.300781 10.972656 C 14.160156 10.816406 14.042969 10.6875 14.035156 10.679688 L 13.679688 10.289062 C 13.488281 10.078125 13.25 9.808594 13.144531 9.703125 L 12.871094 9.40625 C 12.765625 9.285156 11.722656 8.140625 11.710938 8.128906 L 11.515625 7.917969 L 11.210938 7.585938 C 11.144531 7.515625 11.039062 7.40625 10.96875 7.347656 C 10.785156 7.144531 10.582031 6.921875 10.550781 6.886719 L 10.097656 6.363281 L 8.949219 5.109375 C 8.875 5.023438 8.636719 4.765625 8.421875 4.53125 C 8.003906 4.070312 7.796875 3.839844 7.738281 3.773438 L 7.609375 3.636719 L 6.988281 2.957031 L 6.269531 2.15625 C 5.839844 1.675781 5.769531 1.609375 5.753906 1.585938 C 5.738281 1.5625 5.714844 1.558594 5.566406 1.636719 Z M 5.554688 1.636719 "/>
<path style=" stroke:none;fill-rule:evenodd;fill:rgb(52.941176%,73.72549%,12.54902%);fill-opacity:1;" d="M 0.996094 9.847656 C 0.996094 15.347656 0.996094 15.785156 1.023438 15.785156 C 1.09375 15.761719 1.160156 15.730469 1.226562 15.695312 L 1.851562 15.367188 C 2.105469 15.242188 2.433594 15.074219 2.574219 14.996094 L 3.3125 14.617188 L 3.976562 14.277344 L 4.722656 13.898438 L 5.503906 13.496094 L 5.742188 13.375 L 5.742188 9.070312 L 5.632812 8.957031 L 5.335938 8.632812 L 5.054688 8.328125 C 4.980469 8.25 4.664062 7.90625 4.027344 7.207031 L 3.738281 6.890625 L 3.164062 6.261719 L 2.5 5.542969 L 2.144531 5.144531 L 1.847656 4.828125 L 1.664062 4.625 C 1.601562 4.558594 1.472656 4.417969 1.375 4.308594 L 1.09375 4.015625 L 0.996094 3.910156 Z M 0.996094 9.847656 "/>
<path style=" stroke:none;fill-rule:evenodd;fill:rgb(98.431373%,98.431373%,98.431373%);fill-opacity:1;" d="M 0.0117188 8.5 L 0.0117188 17 L 16.992188 17 L 16.992188 0 L 0.0117188 0 Z M 15.957031 4.449219 C 15.957031 6.414062 15.957031 9.097656 15.957031 10.414062 L 15.957031 12.8125 L 15.609375 12.992188 L 13.667969 13.980469 L 12.707031 14.460938 L 11.714844 14.980469 L 11.222656 15.21875 L 11.0625 15.046875 L 10.101562 14.007812 C 9.730469 13.59375 9.589844 13.441406 9.480469 13.324219 L 9.199219 13.019531 C 9.109375 12.917969 9.019531 12.820312 9.003906 12.804688 L 8.835938 12.621094 C 8.753906 12.53125 8.683594 12.453125 8.675781 12.441406 L 8.460938 12.203125 L 8.113281 11.816406 L 7.1875 10.808594 L 6.246094 9.777344 L 5.910156 9.429688 L 5.742188 9.242188 L 5.742188 13.515625 L 5.503906 13.640625 L 4.707031 14.042969 L 3.960938 14.425781 L 3.296875 14.765625 L 2.578125 15.136719 L 1.859375 15.511719 L 1.207031 15.839844 C 1.144531 15.875 1.078125 15.90625 1.007812 15.929688 C 0.984375 15.929688 0.980469 15.488281 0.980469 9.964844 L 0.980469 4.003906 L 1.027344 3.984375 L 1.335938 3.820312 L 1.851562 3.550781 C 2.292969 3.324219 2.574219 3.179688 2.949219 2.980469 L 3.550781 2.664062 L 4.011719 2.425781 L 4.453125 2.199219 L 5.453125 1.675781 C 5.535156 1.625 5.625 1.585938 5.71875 1.550781 C 5.730469 1.550781 6.199219 2.074219 6.335938 2.222656 L 7.457031 3.449219 L 7.679688 3.6875 L 7.917969 3.949219 L 9.46875 5.648438 L 9.710938 5.914062 C 9.761719 5.96875 9.851562 6.066406 9.90625 6.128906 L 10.179688 6.425781 L 10.421875 6.695312 L 10.53125 6.816406 C 10.550781 6.835938 10.597656 6.886719 10.640625 6.9375 C 10.679688 6.984375 10.957031 7.289062 11.144531 7.488281 L 11.21875 7.5625 L 11.21875 5.445312 C 11.21875 3.765625 11.21875 3.316406 11.238281 3.300781 C 11.261719 3.285156 11.414062 3.207031 11.601562 3.113281 L 12.246094 2.777344 L 12.941406 2.421875 L 13.601562 2.082031 L 14.265625 1.742188 C 15.042969 1.347656 15.558594 1.078125 15.738281 0.984375 C 15.84375 0.929688 15.933594 0.886719 15.941406 0.886719 C 15.949219 0.886719 15.941406 2.488281 15.941406 4.449219 Z M 15.957031 4.449219 "/>
<path style=" stroke:none;fill-rule:evenodd;fill:rgb(30.196078%,73.333333%,82.745098%);fill-opacity:1;" d="M 15.703125 1.011719 L 14.226562 1.769531 L 13.5625 2.109375 L 12.902344 2.449219 L 12.207031 2.808594 L 11.558594 3.136719 C 11.371094 3.234375 11.210938 3.320312 11.199219 3.328125 C 11.1875 3.339844 11.179688 3.789062 11.179688 5.488281 C 11.179688 7.078125 11.179688 7.433594 11.195312 6.867188 C 11.195312 6.449219 11.238281 6.105469 11.230469 6.097656 C 11.285156 6.097656 11.417969 6.097656 11.46875 6.152344 C 11.492188 6.179688 11.523438 6.207031 11.558594 6.226562 C 11.574219 6.226562 11.585938 6.246094 11.578125 6.257812 C 11.570312 6.265625 11.578125 6.273438 11.59375 6.273438 C 11.609375 6.273438 11.628906 6.289062 11.636719 6.3125 C 11.644531 6.332031 11.652344 6.34375 11.652344 6.332031 C 11.65625 6.324219 11.675781 6.332031 11.703125 6.371094 C 11.71875 6.394531 11.742188 6.414062 11.769531 6.425781 C 11.769531 6.425781 11.792969 6.441406 11.796875 6.457031 C 11.808594 6.480469 11.828125 6.5 11.851562 6.507812 C 11.871094 6.507812 11.890625 6.535156 11.890625 6.542969 C 11.890625 6.554688 11.914062 6.574219 11.941406 6.589844 C 11.96875 6.601562 11.996094 6.625 11.996094 6.636719 C 11.996094 6.648438 11.996094 6.664062 12.011719 6.664062 C 12.027344 6.664062 12.027344 6.675781 12.027344 6.691406 C 12.027344 6.707031 12.027344 6.714844 12.042969 6.714844 C 12.0625 6.714844 12.0625 6.714844 12.0625 6.738281 C 12.0625 6.761719 12.082031 6.769531 12.105469 6.773438 C 12.191406 6.824219 12.261719 6.890625 12.316406 6.972656 C 12.316406 6.972656 12.332031 6.988281 12.351562 6.992188 C 12.371094 7 12.386719 7.015625 12.394531 7.035156 C 12.394531 7.054688 12.414062 7.074219 12.425781 7.074219 C 12.4375 7.074219 12.460938 7.089844 12.476562 7.117188 C 12.488281 7.136719 12.507812 7.148438 12.527344 7.15625 C 12.546875 7.160156 12.558594 7.167969 12.566406 7.183594 C 12.601562 7.246094 12.652344 7.296875 12.714844 7.332031 C 12.722656 7.335938 12.730469 7.339844 12.734375 7.347656 C 12.738281 7.355469 12.738281 7.367188 12.734375 7.375 C 12.734375 7.402344 12.734375 7.410156 12.804688 7.425781 C 12.871094 7.445312 12.890625 7.453125 12.933594 7.550781 C 12.949219 7.585938 12.972656 7.621094 12.996094 7.652344 L 13.027344 7.652344 C 13.042969 7.65625 13.058594 7.65625 13.078125 7.652344 C 13.097656 7.660156 13.113281 7.675781 13.121094 7.695312 C 13.132812 7.714844 13.148438 7.730469 13.171875 7.738281 C 13.21875 7.738281 13.289062 7.824219 13.277344 7.851562 C 13.269531 7.882812 13.277344 7.875 13.277344 7.875 C 13.277344 7.875 13.292969 7.875 13.289062 7.898438 C 13.289062 7.917969 13.289062 7.917969 13.304688 7.914062 C 13.324219 7.914062 13.328125 7.914062 13.328125 7.925781 C 13.328125 7.9375 13.34375 7.925781 13.363281 7.925781 C 13.382812 7.925781 13.394531 7.925781 13.394531 7.945312 C 13.398438 7.964844 13.410156 7.976562 13.425781 7.980469 C 13.449219 7.992188 13.464844 8.011719 13.476562 8.03125 C 13.488281 8.054688 13.507812 8.070312 13.535156 8.078125 C 13.558594 8.082031 13.578125 8.097656 13.589844 8.117188 C 13.609375 8.152344 13.632812 8.183594 13.664062 8.210938 C 13.683594 8.230469 13.703125 8.253906 13.71875 8.277344 C 13.71875 8.277344 13.734375 8.296875 13.753906 8.304688 C 13.773438 8.3125 13.785156 8.328125 13.78125 8.347656 C 13.777344 8.371094 13.78125 8.382812 13.816406 8.382812 C 13.847656 8.382812 13.960938 8.476562 13.949219 8.519531 C 13.9375 8.558594 13.949219 8.550781 13.988281 8.558594 C 14.019531 8.566406 14.050781 8.585938 14.078125 8.609375 C 14.117188 8.644531 14.160156 8.675781 14.203125 8.707031 C 14.230469 8.726562 14.257812 8.75 14.277344 8.777344 C 14.3125 8.828125 14.359375 8.871094 14.414062 8.90625 C 14.414062 8.90625 14.445312 8.933594 14.457031 8.960938 C 14.472656 8.988281 14.503906 9.011719 14.519531 9.011719 C 14.539062 9.011719 14.550781 9.011719 14.550781 9.027344 C 14.550781 9.042969 14.550781 9.042969 14.574219 9.042969 C 14.601562 9.042969 14.609375 9.0625 14.621094 9.085938 C 14.632812 9.113281 14.648438 9.132812 14.65625 9.132812 C 14.660156 9.132812 14.667969 9.144531 14.667969 9.164062 C 14.667969 9.183594 14.667969 9.199219 14.691406 9.199219 C 14.707031 9.199219 14.71875 9.210938 14.726562 9.222656 C 14.730469 9.238281 14.746094 9.246094 14.761719 9.25 C 14.773438 9.25 14.785156 9.261719 14.785156 9.273438 C 14.785156 9.289062 14.804688 9.300781 14.820312 9.300781 C 14.835938 9.300781 14.859375 9.316406 14.867188 9.34375 C 14.871094 9.367188 14.886719 9.382812 14.910156 9.394531 C 14.925781 9.394531 14.941406 9.410156 14.941406 9.421875 C 14.941406 9.429688 14.941406 9.421875 14.957031 9.421875 C 14.972656 9.421875 14.972656 9.421875 14.972656 9.4375 C 14.972656 9.449219 14.984375 9.460938 15 9.460938 C 15.019531 9.464844 15.03125 9.476562 15.039062 9.492188 C 15.050781 9.527344 15.074219 9.554688 15.097656 9.578125 C 15.117188 9.59375 15.128906 9.613281 15.136719 9.636719 C 15.136719 9.636719 15.136719 9.652344 15.160156 9.652344 C 15.179688 9.652344 15.222656 9.652344 15.222656 9.679688 C 15.222656 9.683594 15.222656 9.691406 15.230469 9.695312 C 15.234375 9.699219 15.242188 9.703125 15.246094 9.703125 C 15.261719 9.703125 15.289062 9.730469 15.308594 9.761719 C 15.328125 9.792969 15.355469 9.820312 15.367188 9.820312 C 15.378906 9.820312 15.390625 9.835938 15.390625 9.851562 C 15.390625 9.871094 15.410156 9.894531 15.441406 9.902344 C 15.472656 9.914062 15.492188 9.929688 15.492188 9.941406 C 15.492188 9.949219 15.515625 9.964844 15.539062 9.976562 C 15.570312 9.996094 15.59375 10.023438 15.601562 10.058594 C 15.601562 10.089844 15.625 10.105469 15.632812 10.101562 C 15.640625 10.09375 15.632812 10.101562 15.632812 10.117188 C 15.632812 10.125 15.636719 10.132812 15.644531 10.136719 C 15.652344 10.144531 15.660156 10.144531 15.667969 10.144531 C 15.6875 10.144531 15.699219 10.144531 15.699219 10.171875 C 15.699219 10.199219 15.761719 10.257812 15.851562 10.269531 C 15.894531 10.269531 15.902344 10.46875 15.90625 11.722656 C 15.90625 12.335938 15.90625 12.84375 15.90625 12.847656 C 15.90625 12.851562 15.90625 11.773438 15.90625 10.449219 C 15.90625 9.121094 15.90625 6.4375 15.90625 4.476562 C 15.90625 2.515625 15.90625 0.910156 15.894531 0.910156 C 15.878906 0.910156 15.796875 0.953125 15.695312 1.007812 Z M 5.777344 1.699219 L 5.832031 1.753906 L 5.886719 1.804688 L 5.839844 1.75 C 5.792969 1.695312 5.777344 1.683594 5.777344 1.699219 Z M 6.160156 2.117188 C 6.183594 2.144531 6.210938 2.164062 6.238281 2.1875 C 6.222656 2.160156 6.203125 2.136719 6.179688 2.117188 C 6.15625 2.09375 6.132812 2.070312 6.105469 2.050781 C 6.105469 2.050781 6.125 2.078125 6.160156 2.117188 Z M 6.640625 2.652344 C 6.640625 2.652344 6.667969 2.675781 6.695312 2.707031 L 6.753906 2.757812 L 6.703125 2.703125 C 6.65625 2.648438 6.640625 2.636719 6.640625 2.652344 Z M 7.03125 3.074219 C 7.050781 3.09375 7.066406 3.113281 7.089844 3.128906 L 7.144531 3.179688 L 7.09375 3.125 C 7.046875 3.074219 7.03125 3.0625 7.03125 3.074219 Z M 7.238281 3.296875 C 7.257812 3.320312 7.277344 3.34375 7.304688 3.359375 C 7.304688 3.359375 7.285156 3.332031 7.253906 3.296875 C 7.234375 3.277344 7.210938 3.257812 7.1875 3.242188 C 7.1875 3.242188 7.207031 3.265625 7.238281 3.296875 Z M 7.898438 4.019531 C 7.914062 4.039062 7.933594 4.058594 7.953125 4.074219 L 8.007812 4.125 L 7.960938 4.070312 C 7.914062 4.015625 7.898438 4.003906 7.898438 4.019531 Z M 8.308594 4.460938 C 8.328125 4.492188 8.351562 4.519531 8.382812 4.542969 C 8.382812 4.542969 8.363281 4.515625 8.332031 4.480469 C 8.3125 4.460938 8.289062 4.441406 8.265625 4.425781 C 8.265625 4.425781 8.285156 4.449219 8.316406 4.480469 Z M 8.476562 4.648438 C 8.496094 4.671875 8.519531 4.691406 8.542969 4.710938 C 8.542969 4.710938 8.523438 4.683594 8.492188 4.648438 C 8.472656 4.628906 8.453125 4.605469 8.425781 4.589844 C 8.425781 4.589844 8.445312 4.617188 8.476562 4.648438 Z M 8.613281 4.800781 L 8.667969 4.855469 L 8.722656 4.90625 L 8.671875 4.851562 C 8.625 4.796875 8.613281 4.785156 8.613281 4.800781 Z M 11.25 5.933594 C 11.25 5.933594 11.261719 5.949219 11.273438 5.949219 C 11.285156 5.949219 11.304688 6.035156 11.273438 6.046875 C 11.246094 6.058594 11.183594 5.964844 11.222656 5.929688 C 11.261719 5.890625 11.261719 5.914062 11.261719 5.929688 Z M 10.25 6.605469 C 10.269531 6.628906 10.289062 6.648438 10.316406 6.664062 C 10.316406 6.664062 10.296875 6.636719 10.265625 6.605469 C 10.246094 6.582031 10.222656 6.5625 10.199219 6.542969 C 10.199219 6.542969 10.21875 6.574219 10.25 6.605469 Z M 5.691406 9.242188 C 5.707031 9.265625 5.726562 9.285156 5.746094 9.300781 L 5.800781 9.347656 L 5.75 9.292969 C 5.707031 9.242188 5.691406 9.230469 5.691406 9.242188 Z M 5.894531 9.46875 L 5.960938 9.527344 C 5.960938 9.527344 5.945312 9.5 5.914062 9.46875 C 5.894531 9.445312 5.871094 9.425781 5.84375 9.410156 C 5.859375 9.429688 5.878906 9.449219 5.894531 9.46875 Z M 6.011719 9.601562 L 6.070312 9.65625 L 6.125 9.707031 L 6.074219 9.652344 C 6.027344 9.597656 6.011719 9.589844 6.011719 9.601562 Z M 6.628906 10.300781 C 6.648438 10.320312 6.671875 10.339844 6.695312 10.359375 C 6.695312 10.359375 6.679688 10.332031 6.644531 10.300781 C 6.625 10.277344 6.605469 10.257812 6.578125 10.238281 C 6.578125 10.238281 6.597656 10.265625 6.628906 10.300781 Z M 6.96875 10.667969 C 6.984375 10.691406 7.003906 10.707031 7.023438 10.722656 L 7.078125 10.773438 L 7.027344 10.71875 C 6.984375 10.667969 6.96875 10.65625 6.96875 10.667969 Z M 7.136719 10.855469 C 7.152344 10.878906 7.171875 10.894531 7.195312 10.910156 L 7.25 10.960938 L 7.199219 10.90625 C 7.152344 10.855469 7.136719 10.84375 7.136719 10.855469 Z M 7.324219 11.058594 C 7.339844 11.082031 7.359375 11.097656 7.378906 11.113281 L 7.433594 11.164062 L 7.386719 11.109375 C 7.335938 11.058594 7.324219 11.046875 7.324219 11.058594 Z M 7.714844 11.488281 L 7.769531 11.542969 L 7.824219 11.589844 L 7.773438 11.535156 C 7.730469 11.484375 7.714844 11.472656 7.714844 11.488281 Z M 8.257812 12.082031 L 8.3125 12.136719 L 8.371094 12.183594 L 8.320312 12.128906 C 8.269531 12.078125 8.257812 12.066406 8.257812 12.082031 Z M 8.425781 12.269531 C 8.425781 12.269531 8.453125 12.296875 8.480469 12.324219 L 8.539062 12.371094 L 8.488281 12.316406 C 8.441406 12.265625 8.425781 12.253906 8.425781 12.269531 Z M 9.003906 12.898438 L 9.058594 12.953125 L 9.117188 13.003906 L 9.066406 12.9375 C 9.019531 12.886719 9.003906 12.875 9.003906 12.886719 Z M 9.207031 13.121094 C 9.226562 13.144531 9.25 13.164062 9.277344 13.179688 C 9.261719 13.160156 9.246094 13.140625 9.226562 13.121094 C 9.207031 13.097656 9.183594 13.078125 9.160156 13.0625 C 9.171875 13.082031 9.191406 13.101562 9.207031 13.121094 Z M 9.90625 13.882812 L 9.960938 13.9375 L 10.015625 13.988281 L 9.964844 13.933594 C 9.917969 13.882812 9.90625 13.871094 9.90625 13.882812 Z M 10.125 14.125 C 10.144531 14.148438 10.167969 14.167969 10.191406 14.183594 C 10.191406 14.183594 10.171875 14.15625 10.140625 14.125 C 10.121094 14.101562 10.101562 14.082031 10.078125 14.0625 C 10.078125 14.0625 10.09375 14.09375 10.125 14.125 Z M 10.246094 14.257812 C 10.261719 14.277344 10.28125 14.296875 10.300781 14.3125 L 10.355469 14.359375 L 10.300781 14.292969 C 10.253906 14.242188 10.242188 14.230469 10.242188 14.246094 Z M 10.839844 14.902344 C 10.839844 14.902344 10.863281 14.929688 10.894531 14.957031 L 10.949219 15.007812 L 10.898438 14.953125 C 10.851562 14.902344 10.839844 14.890625 10.839844 14.902344 Z M 11.058594 15.144531 C 11.078125 15.164062 11.101562 15.1875 11.125 15.203125 C 11.125 15.203125 11.109375 15.175781 11.074219 15.144531 C 11.058594 15.117188 11.042969 15.09375 11.019531 15.074219 C 11.019531 15.074219 11.035156 15.101562 11.066406 15.132812 Z M 11.058594 15.144531 "/>
<path style=" stroke:none;fill-rule:evenodd;fill:rgb(30.196078%,73.333333%,82.745098%);fill-opacity:1;" d="M 11.230469 5.949219 C 11.191406 5.984375 11.230469 6.082031 11.285156 6.066406 C 11.335938 6.046875 11.332031 5.972656 11.285156 5.972656 C 11.234375 5.972656 11.261719 5.972656 11.261719 5.953125 C 11.261719 5.9375 11.234375 5.929688 11.21875 5.953125 Z M 11.214844 6.246094 C 11.214844 6.332031 11.214844 6.675781 11.214844 7.011719 C 11.234375 7.210938 11.226562 7.410156 11.191406 7.609375 C 11.171875 7.609375 11.402344 7.851562 11.609375 8.089844 C 11.71875 8.203125 12.734375 9.320312 12.851562 9.449219 L 13.125 9.746094 L 13.660156 10.324219 L 14.015625 10.714844 C 14.015625 10.714844 14.140625 10.847656 14.277344 11.003906 C 14.417969 11.15625 14.539062 11.289062 14.542969 11.292969 C 14.546875 11.296875 14.640625 11.394531 14.746094 11.511719 C 15.289062 12.113281 15.921875 12.804688 15.929688 12.804688 C 15.9375 12.804688 15.929688 10.28125 15.890625 10.28125 C 15.808594 10.28125 15.730469 10.226562 15.730469 10.179688 C 15.726562 10.164062 15.710938 10.152344 15.695312 10.152344 C 15.675781 10.152344 15.664062 10.152344 15.664062 10.125 C 15.664062 10.09375 15.664062 10.101562 15.664062 10.105469 C 15.664062 10.113281 15.640625 10.09375 15.632812 10.0625 C 15.617188 10.03125 15.597656 10.003906 15.566406 9.984375 C 15.542969 9.984375 15.519531 9.957031 15.519531 9.945312 C 15.519531 9.9375 15.496094 9.921875 15.46875 9.914062 C 15.445312 9.902344 15.421875 9.882812 15.421875 9.863281 C 15.421875 9.84375 15.421875 9.828125 15.394531 9.828125 C 15.371094 9.828125 15.355469 9.800781 15.335938 9.769531 C 15.316406 9.734375 15.289062 9.710938 15.277344 9.710938 C 15.261719 9.710938 15.25 9.699219 15.25 9.683594 C 15.25 9.660156 15.230469 9.652344 15.183594 9.660156 C 15.179688 9.660156 15.175781 9.660156 15.171875 9.65625 C 15.167969 9.652344 15.164062 9.648438 15.164062 9.644531 C 15.148438 9.617188 15.128906 9.59375 15.097656 9.578125 C 15.078125 9.558594 15.0625 9.535156 15.046875 9.511719 C 15.042969 9.492188 15.027344 9.484375 15.011719 9.480469 C 14.996094 9.480469 14.984375 9.46875 14.984375 9.453125 C 14.984375 9.4375 14.984375 9.429688 14.96875 9.4375 C 14.953125 9.445312 14.953125 9.4375 14.953125 9.4375 C 14.953125 9.4375 14.9375 9.417969 14.917969 9.410156 C 14.898438 9.402344 14.882812 9.382812 14.875 9.359375 C 14.875 9.332031 14.855469 9.316406 14.832031 9.316406 C 14.816406 9.320312 14.800781 9.308594 14.800781 9.292969 C 14.800781 9.277344 14.785156 9.265625 14.773438 9.265625 C 14.757812 9.265625 14.742188 9.257812 14.738281 9.242188 C 14.730469 9.226562 14.71875 9.214844 14.703125 9.214844 C 14.703125 9.214844 14.679688 9.199219 14.679688 9.179688 C 14.679688 9.164062 14.679688 9.148438 14.664062 9.148438 C 14.648438 9.148438 14.644531 9.128906 14.632812 9.105469 C 14.617188 9.082031 14.601562 9.0625 14.585938 9.0625 C 14.574219 9.0625 14.5625 9.0625 14.5625 9.042969 C 14.5625 9.027344 14.546875 9.027344 14.53125 9.027344 C 14.511719 9.027344 14.488281 9.007812 14.46875 8.976562 C 14.453125 8.949219 14.433594 8.925781 14.425781 8.925781 C 14.371094 8.890625 14.324219 8.847656 14.289062 8.792969 C 14.269531 8.765625 14.242188 8.742188 14.210938 8.722656 C 14.167969 8.691406 14.128906 8.660156 14.089844 8.625 C 14.0625 8.601562 14.03125 8.585938 14 8.574219 C 13.964844 8.574219 13.957031 8.558594 13.960938 8.539062 C 13.964844 8.519531 13.878906 8.398438 13.828125 8.398438 C 13.777344 8.398438 13.785156 8.398438 13.792969 8.367188 C 13.796875 8.335938 13.792969 8.332031 13.765625 8.324219 C 13.738281 8.3125 13.730469 8.304688 13.730469 8.296875 C 13.714844 8.269531 13.695312 8.246094 13.671875 8.230469 C 13.644531 8.203125 13.621094 8.171875 13.601562 8.136719 C 13.589844 8.117188 13.566406 8.101562 13.542969 8.097656 C 13.519531 8.089844 13.5 8.074219 13.488281 8.050781 C 13.476562 8.027344 13.460938 8.007812 13.4375 8 C 13.421875 7.996094 13.410156 7.980469 13.40625 7.960938 C 13.40625 7.945312 13.40625 7.9375 13.371094 7.945312 C 13.335938 7.953125 13.335938 7.945312 13.335938 7.945312 C 13.335938 7.945312 13.335938 7.929688 13.316406 7.933594 C 13.3125 7.933594 13.308594 7.933594 13.304688 7.929688 C 13.300781 7.925781 13.296875 7.921875 13.300781 7.917969 C 13.300781 7.917969 13.300781 7.894531 13.289062 7.894531 C 13.277344 7.894531 13.289062 7.894531 13.289062 7.875 C 13.289062 7.851562 13.230469 7.765625 13.183594 7.757812 C 13.160156 7.75 13.144531 7.734375 13.132812 7.714844 C 13.125 7.691406 13.105469 7.679688 13.085938 7.671875 L 13.007812 7.671875 C 12.980469 7.640625 12.960938 7.605469 12.945312 7.570312 C 12.898438 7.476562 12.890625 7.464844 12.816406 7.445312 C 12.742188 7.425781 12.734375 7.421875 12.742188 7.394531 C 12.746094 7.386719 12.746094 7.375 12.742188 7.367188 C 12.738281 7.359375 12.730469 7.355469 12.722656 7.351562 C 12.664062 7.316406 12.613281 7.265625 12.574219 7.203125 C 12.570312 7.1875 12.554688 7.179688 12.539062 7.179688 C 12.539062 7.179688 12.503906 7.160156 12.484375 7.136719 C 12.46875 7.109375 12.449219 7.089844 12.4375 7.089844 C 12.425781 7.089844 12.410156 7.078125 12.40625 7.058594 C 12.398438 7.035156 12.382812 7.019531 12.363281 7.011719 C 12.34375 7.011719 12.328125 7 12.328125 6.992188 C 12.273438 6.910156 12.203125 6.84375 12.117188 6.792969 C 12.09375 6.792969 12.070312 6.773438 12.070312 6.757812 C 12.070312 6.742188 12.070312 6.734375 12.054688 6.734375 C 12.039062 6.734375 12.039062 6.734375 12.039062 6.710938 C 12.039062 6.6875 12.039062 6.683594 12.019531 6.683594 C 12.003906 6.683594 12.003906 6.683594 12.003906 6.660156 C 12.003906 6.636719 11.980469 6.621094 11.953125 6.605469 C 11.925781 6.59375 11.902344 6.574219 11.902344 6.5625 C 11.902344 6.554688 11.882812 6.539062 11.859375 6.527344 C 11.835938 6.519531 11.820312 6.5 11.808594 6.476562 C 11.808594 6.460938 11.789062 6.445312 11.78125 6.445312 C 11.769531 6.445312 11.738281 6.421875 11.714844 6.390625 C 11.6875 6.359375 11.664062 6.34375 11.664062 6.355469 C 11.664062 6.363281 11.664062 6.355469 11.644531 6.332031 C 11.640625 6.3125 11.625 6.296875 11.605469 6.292969 C 11.589844 6.292969 11.582031 6.292969 11.589844 6.277344 C 11.597656 6.257812 11.589844 6.253906 11.566406 6.246094 C 11.535156 6.226562 11.503906 6.203125 11.480469 6.171875 C 11.429688 6.109375 11.417969 6.105469 11.328125 6.105469 L 11.230469 6.105469 L 11.230469 6.261719 Z M 9.792969 6.113281 L 9.847656 6.167969 L 9.90625 6.214844 L 9.855469 6.160156 C 9.808594 6.109375 9.792969 6.097656 9.792969 6.113281 Z M 9.964844 6.300781 C 9.980469 6.320312 10 6.339844 10.019531 6.355469 L 10.074219 6.402344 L 10.023438 6.347656 C 9.980469 6.296875 9.964844 6.285156 9.964844 6.300781 Z M 10.355469 14.355469 C 10.371094 14.378906 10.390625 14.398438 10.410156 14.414062 L 10.464844 14.460938 L 10.414062 14.40625 C 10.371094 14.355469 10.355469 14.34375 10.355469 14.355469 Z M 10.355469 14.355469 "/>
</g>
</svg>
