<?xml version="1.0" encoding="UTF-8"?>
<svg xmlns="http://www.w3.org/2000/svg" xmlns:xlink="http://www.w3.org/1999/xlink" width="17px" height="17px" viewBox="0 0 17 17" version="1.1">
<g id="surface1">
<path style=" stroke:none;fill-rule:nonzero;fill:rgb(13.72549%,28.235294%,49.019608%);fill-opacity:1;" d="M 2.492188 4.78125 C 1.335938 4.78125 0.542969 5.597656 0.542969 6.753906 C 0.542969 7.277344 0.679688 7.683594 0.953125 8.046875 C 1.246094 8.433594 1.585938 8.636719 2.335938 8.953125 C 3.128906 9.246094 3.285156 9.363281 3.445312 9.496094 C 3.71875 9.769531 3.898438 10.15625 3.898438 10.5625 C 3.898438 11.402344 3.242188 12.082031 2.449219 12.082031 C 1.949219 12.082031 1.449219 11.832031 1.132812 11.46875 C 0.882812 11.175781 0.726562 10.855469 0.589844 10.335938 C 0.566406 10.269531 0.542969 10.222656 0.5 10.222656 C 0.453125 10.222656 0.40625 10.289062 0.40625 10.382812 C 0.40625 10.496094 0.453125 10.789062 0.519531 11.085938 C 0.589844 11.355469 0.632812 11.539062 0.632812 11.582031 C 0.703125 11.992188 0.703125 11.992188 0.792969 12.082031 C 1.019531 12.285156 1.699219 12.488281 2.199219 12.488281 C 3.445312 12.488281 4.328125 11.515625 4.328125 10.175781 C 4.328125 9.179688 3.808594 8.476562 2.699219 8.023438 C 1.609375 7.59375 1.542969 7.546875 1.292969 7.207031 C 1.109375 6.980469 1.019531 6.6875 1.042969 6.371094 C 1.042969 5.644531 1.519531 5.144531 2.175781 5.144531 C 2.96875 5.144531 3.695312 5.710938 3.921875 6.503906 C 3.964844 6.710938 3.988281 6.753906 4.058594 6.753906 C 4.101562 6.753906 4.148438 6.6875 4.148438 6.597656 C 4.148438 6.550781 4.148438 6.460938 4.125 6.347656 C 4.011719 5.441406 3.988281 5.417969 3.988281 5.257812 C 3.988281 5.078125 3.964844 4.988281 3.875 4.988281 C 3.851562 4.988281 3.851562 4.988281 3.832031 5.007812 C 3.71875 5.121094 3.71875 5.121094 3.648438 5.121094 C 3.625 5.121094 3.582031 5.101562 3.558594 5.101562 C 2.992188 4.804688 2.902344 4.78125 2.492188 4.78125 Z M 6.03125 4.804688 C 5.214844 4.804688 4.554688 5.214844 4.261719 5.871094 L 4.328125 6.414062 C 4.351562 6.484375 4.328125 6.550781 4.328125 6.574219 C 4.328125 6.777344 4.214844 6.9375 4.078125 6.980469 C 4.101562 7.390625 4.261719 7.753906 4.488281 8.046875 C 4.78125 8.433594 5.121094 8.636719 5.871094 8.953125 C 6.640625 9.269531 6.824219 9.363281 6.980469 9.496094 C 7.253906 9.769531 7.433594 10.15625 7.433594 10.5625 C 7.433594 11.402344 6.777344 12.082031 5.984375 12.082031 C 5.484375 12.082031 4.988281 11.832031 4.667969 11.46875 C 4.578125 11.355469 4.488281 11.21875 4.421875 11.0625 C 4.351562 11.242188 4.285156 11.425781 4.191406 11.582031 C 4.261719 11.945312 4.261719 11.992188 4.351562 12.058594 C 4.578125 12.261719 5.257812 12.464844 5.757812 12.464844 C 7.003906 12.464844 7.886719 11.492188 7.886719 10.15625 C 7.867188 9.179688 7.320312 8.476562 6.234375 8.046875 C 5.121094 7.59375 5.078125 7.570312 4.828125 7.230469 C 4.648438 7.003906 4.554688 6.710938 4.578125 6.390625 C 4.578125 5.667969 5.054688 5.167969 5.710938 5.167969 C 6.503906 5.167969 7.230469 5.734375 7.457031 6.527344 C 7.503906 6.730469 7.546875 6.777344 7.59375 6.777344 C 7.636719 6.777344 7.683594 6.710938 7.683594 6.617188 C 7.683594 6.574219 7.660156 6.503906 7.660156 6.390625 C 7.546875 5.484375 7.523438 5.460938 7.523438 5.304688 C 7.523438 5.121094 7.503906 5.03125 7.410156 5.03125 C 7.390625 5.03125 7.390625 5.054688 7.367188 5.054688 C 7.253906 5.167969 7.253906 5.167969 7.183594 5.167969 C 7.164062 5.167969 7.140625 5.144531 7.09375 5.144531 C 6.550781 4.828125 6.4375 4.804688 6.03125 4.804688 Z M 9.179688 4.941406 C 8.976562 4.941406 8.75 4.964844 8.523438 4.964844 C 8.023438 5.007812 8.023438 5.007812 7.796875 5.007812 L 7.707031 5.007812 C 7.730469 5.101562 7.753906 5.167969 7.730469 5.257812 C 7.730469 5.371094 7.730469 5.417969 7.796875 5.847656 L 7.867188 6.4375 C 7.867188 6.484375 7.867188 6.550781 7.867188 6.597656 C 7.867188 6.710938 7.84375 6.824219 7.773438 6.890625 L 7.773438 8.976562 C 7.980469 9.316406 8.070312 9.722656 8.070312 10.175781 C 8.070312 10.699219 7.957031 11.152344 7.753906 11.539062 C 7.707031 12.011719 7.546875 12.125 7.207031 12.261719 C 7.117188 12.285156 7.09375 12.308594 7.09375 12.375 C 7.09375 12.445312 7.117188 12.488281 7.207031 12.488281 C 7.230469 12.488281 7.34375 12.464844 7.433594 12.464844 C 7.59375 12.445312 7.820312 12.421875 8.023438 12.421875 C 8.453125 12.421875 8.90625 12.445312 9.019531 12.464844 C 9.132812 12.488281 9.246094 12.488281 9.292969 12.488281 C 9.363281 12.488281 9.429688 12.445312 9.429688 12.375 C 9.429688 12.308594 9.382812 12.261719 9.269531 12.261719 C 8.636719 12.195312 8.433594 11.898438 8.453125 11.152344 L 8.453125 9.203125 C 8.453125 9.019531 8.476562 9 8.703125 9 L 9.203125 9 C 9.40625 9 9.453125 9.042969 9.542969 9.226562 C 9.566406 9.292969 9.589844 9.339844 9.589844 9.339844 L 10.675781 11.402344 C 11.128906 12.238281 11.515625 12.558594 12.058594 12.558594 C 12.375 12.558594 12.691406 12.445312 12.691406 12.351562 C 12.691406 12.308594 12.671875 12.285156 12.625 12.285156 C 12.148438 12.308594 11.855469 11.992188 11.289062 10.949219 L 10.042969 8.75 C 10.765625 8.296875 11.152344 7.660156 11.152344 6.84375 C 11.152344 6.257812 10.949219 5.757812 10.609375 5.441406 C 10.3125 5.078125 9.882812 4.941406 9.179688 4.941406 Z M 16.457031 5.03125 C 16.410156 5.03125 16.34375 5.054688 16.230469 5.054688 C 16.117188 5.078125 16.003906 5.101562 15.820312 5.101562 C 15.570312 5.101562 15.117188 5.078125 14.960938 5.054688 L 14.757812 5.03125 C 14.664062 5.03125 14.621094 5.078125 14.621094 5.144531 C 14.621094 5.214844 14.644531 5.257812 14.757812 5.28125 C 15.59375 5.417969 15.683594 5.667969 15.664062 8.183594 L 15.664062 10.765625 C 15.664062 10.949219 15.664062 10.96875 15.617188 10.96875 C 15.59375 10.96875 15.570312 10.925781 15.503906 10.835938 L 11.425781 5.167969 C 11.332031 5.054688 11.289062 5.007812 11.175781 5.007812 C 11.152344 5.007812 11.085938 5.007812 11.015625 5.03125 L 10.949219 5.03125 C 10.925781 5.03125 10.722656 5.03125 10.609375 5.007812 C 10.652344 5.054688 10.722656 5.101562 10.765625 5.144531 C 11.152344 5.507812 11.402344 6.121094 11.402344 6.777344 C 11.402344 6.890625 11.402344 6.980469 11.378906 7.070312 L 11.378906 10.515625 L 11.492188 10.722656 C 11.582031 10.902344 11.671875 11.039062 11.742188 11.175781 L 11.742188 7.320312 C 11.742188 7.140625 11.765625 7.09375 11.832031 7.09375 C 11.878906 7.09375 11.878906 7.117188 11.945312 7.164062 L 15.683594 12.398438 C 15.820312 12.601562 15.820312 12.601562 15.890625 12.601562 C 16.003906 12.601562 16.023438 12.511719 16.023438 12.285156 L 16.023438 12.171875 C 16.023438 11.855469 16.023438 11.355469 16.023438 10.675781 L 16.023438 6.824219 C 16.023438 5.507812 16.046875 5.371094 16.480469 5.257812 C 16.546875 5.234375 16.570312 5.214844 16.570312 5.167969 C 16.59375 5.101562 16.546875 5.03125 16.457031 5.03125 Z M 8.929688 5.328125 C 9.339844 5.328125 9.792969 5.507812 10.042969 5.78125 C 10.359375 6.097656 10.539062 6.617188 10.539062 7.140625 C 10.539062 8.046875 10.0625 8.589844 9.292969 8.589844 L 8.792969 8.589844 C 8.5 8.566406 8.476562 8.546875 8.476562 8.207031 L 8.476562 6.007812 C 8.476562 5.644531 8.476562 5.597656 8.523438 5.507812 C 8.613281 5.371094 8.726562 5.328125 8.929688 5.328125 Z M 8.929688 5.328125 "/>
</g>
</svg>
