<?xml version="1.0" encoding="UTF-8"?>
<svg xmlns="http://www.w3.org/2000/svg" xmlns:xlink="http://www.w3.org/1999/xlink" width="17px" height="17px" viewBox="0 0 17 17" version="1.1">
<g id="surface1">
<path style=" stroke:none;fill-rule:nonzero;fill:rgb(18.039216%,17.647059%,38.431373%);fill-opacity:1;" d="M 1.632812 1.609375 L 15.367188 1.609375 L 15.367188 15.414062 L 1.632812 15.414062 Z M 1.632812 1.609375 "/>
<path style=" stroke:none;fill-rule:nonzero;fill:rgb(100%,100%,100%);fill-opacity:1;" d="M 13.847656 3.128906 L 12.238281 3.128906 L 10.085938 5.441406 L 10.085938 3.128906 L 6.980469 3.128906 L 6.980469 6.1875 C 6.980469 6.84375 6.503906 7.230469 5.847656 7.230469 C 5.191406 7.230469 4.738281 6.84375 4.738281 6.1875 L 4.738281 3.128906 L 3.128906 3.128906 L 3.128906 6.210938 C 3.128906 7.59375 4.238281 8.386719 5.484375 8.5 L 3.152344 8.5 L 3.152344 13.871094 L 4.761719 13.871094 L 4.761719 11.878906 L 5.441406 11.878906 L 6.914062 13.871094 L 13.847656 13.871094 L 13.847656 12.785156 L 11.96875 12.785156 L 11.96875 9.609375 L 13.847656 9.609375 L 13.847656 8.183594 L 11.558594 5.824219 L 13.847656 3.445312 Z M 8.5 6.867188 L 8.5 9.363281 C 8.160156 8.773438 7.367188 8.523438 6.210938 8.5 C 7.253906 8.386719 8.207031 7.84375 8.5 6.867188 M 4.738281 9.589844 L 6.210938 9.589844 C 6.824219 9.589844 7.050781 9.816406 7.050781 10.199219 C 7.050781 10.5625 6.800781 10.8125 6.210938 10.8125 L 4.738281 10.8125 Z M 10.382812 12.808594 L 8.5 12.808594 L 8.5 13.554688 L 7.183594 11.808594 C 8.207031 11.628906 8.703125 11.105469 8.703125 10.199219 C 8.703125 9.972656 8.679688 9.769531 8.613281 9.589844 L 10.382812 9.589844 C 10.382812 9.589844 10.382812 12.808594 10.382812 12.808594 Z M 12.261719 8.5 L 10.109375 8.5 L 10.109375 6.1875 Z M 12.261719 8.5 "/>
</g>
</svg>
