<svg xmlns="http://www.w3.org/2000/svg" xmlns:xlink="http://www.w3.org/1999/xlink" xmlns:inkscape="http://www.inkscape.org/namespaces/inkscape" version="1.1" width="615.5875" height="376.32127" viewBox="0 0 615.5875 376.32127">
<defs>
<clipPath id="clip_0">
<path transform="matrix(1,0,0,-1,0,376.32127)" d="M44.825 36.48125H602.825V369.12129H44.825Z"/>
</clipPath>
<clipPath id="clip_1">
<path transform="matrix(1,0,0,-1,0,376.32127)" d="M44.825 36.48125H602.825V369.12129H44.825Z"/>
</clipPath>
<clipPath id="clip_2">
<path transform="matrix(1,0,0,-1,0,376.32127)" d="M44.825 36.48125H602.825V369.12129H44.825Z"/>
</clipPath>
<clipPath id="clip_3">
<path transform="matrix(1,0,0,-1,0,376.32127)" d="M44.825 36.48125H602.825V369.12129H44.825Z"/>
</clipPath>
<clipPath id="clip_4">
<path transform="matrix(1,0,0,-1,0,376.32127)" d="M44.825 36.48125H602.825V369.12129H44.825Z"/>
</clipPath>
<clipPath id="clip_5">
<path transform="matrix(1,0,0,-1,0,376.32127)" d="M44.825 36.48125H602.825V369.12129H44.825Z"/>
</clipPath>
<clipPath id="clip_6">
<path transform="matrix(1,0,0,-1,0,376.32127)" d="M44.825 36.48125H602.825V369.12129H44.825Z"/>
</clipPath>
<clipPath id="clip_7">
<path transform="matrix(1,0,0,-1,0,376.32127)" d="M44.825 36.48125H602.825V369.12129H44.825Z"/>
</clipPath>
<clipPath id="clip_8">
<path transform="matrix(1,0,0,-1,0,376.32127)" d="M44.825 36.48125H602.825V369.12129H44.825Z"/>
</clipPath>
<clipPath id="clip_9">
<path transform="matrix(1,0,0,-1,0,376.32127)" d="M44.825 36.48125H602.825V369.12129H44.825Z"/>
</clipPath>
<clipPath id="clip_10">
<path transform="matrix(1,0,0,-1,0,376.32127)" d="M44.825 36.48125H602.825V369.12129H44.825Z"/>
</clipPath>
<clipPath id="clip_11">
<path transform="matrix(1,0,0,-1,0,376.32127)" d="M44.825 36.48125H602.825V369.12129H44.825Z"/>
</clipPath>
<clipPath id="clip_12">
<path transform="matrix(1,0,0,-1,0,376.32127)" d="M44.825 36.48125H602.825V369.12129H44.825Z"/>
</clipPath>
<clipPath id="clip_13">
<path transform="matrix(1,0,0,-1,0,376.32127)" d="M44.825 36.48125H602.825V369.12129H44.825Z"/>
</clipPath>
<clipPath id="clip_14">
<path transform="matrix(1,0,0,-1,0,376.32127)" d="M44.825 36.48125H602.825V369.12129H44.825Z"/>
</clipPath>
<clipPath id="clip_15">
<path transform="matrix(.01,0,0,-.01,81.825,23.481263)" d="M-665-325H2000V1006H-665Z"/>
</clipPath>
</defs>
<path transform="matrix(1,0,0,-1,0,376.32127)" d="M0 0H615.5875V376.32127H0Z" fill="#ffffff"/>
<path transform="matrix(1,0,0,-1,0,376.32127)" d="M44.825 36.48125H602.825V369.12126H44.825Z" fill="#ffffff"/>
<g clip-path="url(#clip_0)">
<path transform="matrix(1,0,0,-1,0,376.32127)" d="M156.425 139.2101V212.53786L167.585 213.36719 178.745 215.1182 189.905 223.71654 201.065 236.83199 212.225 208.29796 223.385 206.6987 234.545 220.45644 245.705 223.98535 256.865 215.05394 268.025 217.5141 279.185 217.96614 290.345 221.75994 301.505 222.95786 312.665 222.75455 323.825 223.46646 334.985 238.54462 346.145 236.31786 357.305 231.17029 368.465 229.04973 379.625 225.93875 390.785 227.91893 401.945 222.47661 413.105 223.1484 424.265 233.16768 435.425 241.77513 446.585 247.62358 457.745 290.34535 468.905 288.9931 480.065 306.04914 491.225 307.09773 502.385 294.4864 513.545 300.2535 524.705 320.05659 535.865 337.5856 547.025 332.10185 558.185 332.49629 569.345 330.97926 580.505 335.44737V246.47893L569.345 244.28905 558.185 245.5031 547.025 244.72328 535.865 251.85948 524.705 236.98227 513.545 230.84549 502.385 221.66 491.225 232.11989 480.065 231.09239 468.905 218.1302 457.745 219.62973 446.585 178.08838 435.425 172.1819 424.265 161.70058 413.105 157.03958 401.945 157.44853 390.785 161.18497 379.625 159.45584 368.465 162.31295 357.305 163.93007 346.145 171.41443 334.985 173.4618 323.825 161.95905 312.665 163.26694 301.505 163.5375 290.345 162.77436 279.185 162.38712 268.025 162.74394 256.865 159.60787 245.705 165.92664 234.545 155.75894 223.385 143.88898 212.225 144.10993 201.065 165.46422 189.905 148.18717 178.745 140.93517 167.585 139.55167 156.425 139.2101Z" fill="#ff7f0e" fill-opacity=".05"/>
</g>
<g clip-path="url(#clip_1)">
<path transform="matrix(1,0,0,-1,0,376.32127)" d="M156.425 139.2101V65.882328L167.585 65.73614 178.745 66.75214 189.905 72.65779 201.065 94.09646 212.225 79.921878 223.385 81.07924 234.545 91.06144 245.705 107.86792 256.865 104.161808 268.025 107.97379 279.185 106.80809 290.345 103.78877 301.505 104.11716 312.665 103.77933 323.825 100.45162 334.985 108.379 346.145 106.511 357.305 96.68984 368.465 95.57615 379.625 92.97292 390.785 94.451007 401.945 92.420459 413.105 90.93076 424.265 90.233478 435.425 102.58867 446.585 108.55317 457.745 148.91414 468.905 147.26732 480.065 156.13564 491.225 157.14205 502.385 148.83362 513.545 161.43747 524.705 153.90798 535.865 166.13336 547.025 157.34471 558.185 158.50992 569.345 157.59888 580.505 157.5105V246.47893L569.345 244.28905 558.185 245.5031 547.025 244.72328 535.865 251.85948 524.705 236.98227 513.545 230.84549 502.385 221.66 491.225 232.11989 480.065 231.09239 468.905 218.1302 457.745 219.62973 446.585 178.08838 435.425 172.1819 424.265 161.70058 413.105 157.03958 401.945 157.44853 390.785 161.18497 379.625 159.45584 368.465 162.31295 357.305 163.93007 346.145 171.41443 334.985 173.4618 323.825 161.95905 312.665 163.26694 301.505 163.5375 290.345 162.77436 279.185 162.38712 268.025 162.74394 256.865 159.60787 245.705 165.92664 234.545 155.75894 223.385 143.88898 212.225 144.10993 201.065 165.46422 189.905 148.18717 178.745 140.93517 167.585 139.55167 156.425 139.2101Z" fill="#ff7f0e" fill-opacity=".05"/>
</g>
<g clip-path="url(#clip_2)">
<path transform="matrix(1,0,0,-1,0,376.32127)" d="M156.425 139.2101V226.57935L167.585 227.50208 178.745 229.32346 189.905 238.1796 201.065 250.49816 212.225 220.5893 223.385 218.7261 234.545 232.84532 245.705 235.10298 256.865 225.67128 268.025 228.002 279.185 228.60894 290.345 233.05506 301.505 234.33621 312.665 234.14579 323.825 235.24448 334.985 251.0073 346.145 248.74617 357.305 244.04608 368.465 241.82912 379.625 238.66953 390.785 240.69777 401.945 234.92879 413.105 235.80754 424.265 246.85288 435.425 255.10149 446.585 260.93885 457.745 303.88664 468.905 302.5626 480.065 320.40257 491.225 321.45518 502.385 308.43186 513.545 313.5444 524.705 335.96443 535.865 354.00126 547.025 348.8339 558.185 349.15455 569.345 347.57948 580.505 352.48387V246.47893L569.345 244.28905 558.185 245.5031 547.025 244.72328 535.865 251.85948 524.705 236.98227 513.545 230.84549 502.385 221.66 491.225 232.11989 480.065 231.09239 468.905 218.1302 457.745 219.62973 446.585 178.08838 435.425 172.1819 424.265 161.70058 413.105 157.03958 401.945 157.44853 390.785 161.18497 379.625 159.45584 368.465 162.31295 357.305 163.93007 346.145 171.41443 334.985 173.4618 323.825 161.95905 312.665 163.26694 301.505 163.5375 290.345 162.77436 279.185 162.38712 268.025 162.74394 256.865 159.60787 245.705 165.92664 234.545 155.75894 223.385 143.88898 212.225 144.10993 201.065 165.46422 189.905 148.18717 178.745 140.93517 167.585 139.55167 156.425 139.2101Z" fill="#ff7f0e" fill-opacity=".02"/>
</g>
<g clip-path="url(#clip_3)">
<path transform="matrix(1,0,0,-1,0,376.32127)" d="M156.425 139.2101V51.840837L167.585 51.60125 178.745 52.546876 189.905 58.194719 201.065 80.43029 212.225 67.63055 223.385 69.05184 234.545 78.67256 245.705 96.7503 256.865 93.54447 268.025 97.48589 279.185 96.165309 290.345 92.49366 301.505 92.73879 312.665 92.388088 323.825 88.6736 334.985 95.91633 346.145 94.08269 357.305 83.81405 368.465 82.79677 379.625 80.24215 390.785 81.67216 401.945 79.96827 413.105 78.27163 424.265 76.54829 435.425 89.26231 446.585 95.23792 457.745 135.37285 468.905 133.69782 480.065 141.78221 491.225 142.78459 502.385 134.88814 513.545 148.14658 524.705 138.00012 535.865 149.71773 547.025 140.61266 558.185 141.85166 569.345 140.99863 580.505 140.47399V246.47893L569.345 244.28905 558.185 245.5031 547.025 244.72328 535.865 251.85948 524.705 236.98227 513.545 230.84549 502.385 221.66 491.225 232.11989 480.065 231.09239 468.905 218.1302 457.745 219.62973 446.585 178.08838 435.425 172.1819 424.265 161.70058 413.105 157.03958 401.945 157.44853 390.785 161.18497 379.625 159.45584 368.465 162.31295 357.305 163.93007 346.145 171.41443 334.985 173.4618 323.825 161.95905 312.665 163.26694 301.505 163.5375 290.345 162.77436 279.185 162.38712 268.025 162.74394 256.865 159.60787 245.705 165.92664 234.545 155.75894 223.385 143.88898 212.225 144.10993 201.065 165.46422 189.905 148.18717 178.745 140.93517 167.585 139.55167 156.425 139.2101Z" fill="#ff7f0e" fill-opacity=".02"/>
</g>
<path transform="matrix(1,0,0,-1,0,376.32127)" d="M44.825 36.48125V32.98125"/>
<path transform="matrix(1,0,0,-1,0,376.32127)" stroke-width=".8" stroke-linecap="butt" stroke-linejoin="round" fill="none" stroke="#000000" d="M44.825 36.48125V32.98125"/>
<text xml:space="preserve" transform="matrix(1 0 -0 1 39.2625 353.99626)" font-size="10" font-family="ArialMT"><tspan y="0" x="0 5.5600006">40</tspan></text>
<path transform="matrix(1,0,0,-1,0,376.32127)" d="M100.625 36.48125V32.98125"/>
<path transform="matrix(1,0,0,-1,0,376.32127)" stroke-width=".8" stroke-linecap="butt" stroke-linejoin="round" fill="none" stroke="#000000" d="M100.625 36.48125V32.98125"/>
<text xml:space="preserve" transform="matrix(1 0 -0 1 95.0625 353.99626)" font-size="10" font-family="ArialMT"><tspan y="0" x="0 5.5600006">45</tspan></text>
<path transform="matrix(1,0,0,-1,0,376.32127)" d="M156.425 36.48125V32.98125"/>
<path transform="matrix(1,0,0,-1,0,376.32127)" stroke-width=".8" stroke-linecap="butt" stroke-linejoin="round" fill="none" stroke="#000000" d="M156.425 36.48125V32.98125"/>
<text xml:space="preserve" transform="matrix(1 0 -0 1 150.8625 353.99626)" font-size="10" font-family="ArialMT"><tspan y="0" x="0 5.5600006">50</tspan></text>
<path transform="matrix(1,0,0,-1,0,376.32127)" d="M212.225 36.48125V32.98125"/>
<path transform="matrix(1,0,0,-1,0,376.32127)" stroke-width=".8" stroke-linecap="butt" stroke-linejoin="round" fill="none" stroke="#000000" d="M212.225 36.48125V32.98125"/>
<text xml:space="preserve" transform="matrix(1 0 -0 1 206.6625 353.99626)" font-size="10" font-family="ArialMT"><tspan y="0" x="0 5.5600006">55</tspan></text>
<path transform="matrix(1,0,0,-1,0,376.32127)" d="M268.025 36.48125V32.98125"/>
<path transform="matrix(1,0,0,-1,0,376.32127)" stroke-width=".8" stroke-linecap="butt" stroke-linejoin="round" fill="none" stroke="#000000" d="M268.025 36.48125V32.98125"/>
<text xml:space="preserve" transform="matrix(1 0 -0 1 262.4625 353.99626)" font-size="10" font-family="ArialMT"><tspan y="0" x="0 5.5600006">60</tspan></text>
<path transform="matrix(1,0,0,-1,0,376.32127)" d="M323.825 36.48125V32.98125"/>
<path transform="matrix(1,0,0,-1,0,376.32127)" stroke-width=".8" stroke-linecap="butt" stroke-linejoin="round" fill="none" stroke="#000000" d="M323.825 36.48125V32.98125"/>
<text xml:space="preserve" transform="matrix(1 0 -0 1 318.2625 353.99626)" font-size="10" font-family="ArialMT"><tspan y="0" x="0 5.5600006">65</tspan></text>
<path transform="matrix(1,0,0,-1,0,376.32127)" d="M379.625 36.48125V32.98125"/>
<path transform="matrix(1,0,0,-1,0,376.32127)" stroke-width=".8" stroke-linecap="butt" stroke-linejoin="round" fill="none" stroke="#000000" d="M379.625 36.48125V32.98125"/>
<text xml:space="preserve" transform="matrix(1 0 -0 1 374.0625 353.99626)" font-size="10" font-family="ArialMT"><tspan y="0" x="0 5.5600006">70</tspan></text>
<path transform="matrix(1,0,0,-1,0,376.32127)" d="M435.425 36.48125V32.98125"/>
<path transform="matrix(1,0,0,-1,0,376.32127)" stroke-width=".8" stroke-linecap="butt" stroke-linejoin="round" fill="none" stroke="#000000" d="M435.425 36.48125V32.98125"/>
<text xml:space="preserve" transform="matrix(1 0 -0 1 429.8625 353.99626)" font-size="10" font-family="ArialMT"><tspan y="0" x="0 5.5600006">75</tspan></text>
<path transform="matrix(1,0,0,-1,0,376.32127)" d="M491.225 36.48125V32.98125"/>
<path transform="matrix(1,0,0,-1,0,376.32127)" stroke-width=".8" stroke-linecap="butt" stroke-linejoin="round" fill="none" stroke="#000000" d="M491.225 36.48125V32.98125"/>
<text xml:space="preserve" transform="matrix(1 0 -0 1 485.6625 353.99626)" font-size="10" font-family="ArialMT"><tspan y="0" x="0 5.5600006">80</tspan></text>
<path transform="matrix(1,0,0,-1,0,376.32127)" d="M547.025 36.48125V32.98125"/>
<path transform="matrix(1,0,0,-1,0,376.32127)" stroke-width=".8" stroke-linecap="butt" stroke-linejoin="round" fill="none" stroke="#000000" d="M547.025 36.48125V32.98125"/>
<text xml:space="preserve" transform="matrix(1 0 -0 1 541.4625 353.99626)" font-size="10" font-family="ArialMT"><tspan y="0" x="0 5.5600006">85</tspan></text>
<path transform="matrix(1,0,0,-1,0,376.32127)" d="M602.825 36.48125V32.98125"/>
<path transform="matrix(1,0,0,-1,0,376.32127)" stroke-width=".8" stroke-linecap="butt" stroke-linejoin="round" fill="none" stroke="#000000" d="M602.825 36.48125V32.98125"/>
<text xml:space="preserve" transform="matrix(1 0 -0 1 597.2625 353.99626)" font-size="10" font-family="ArialMT"><tspan y="0" x="0 5.5600006">90</tspan></text>
<path transform="matrix(1,0,0,-1,0,376.32127)" d="M55.985 36.48125V34.48125"/>
<path transform="matrix(1,0,0,-1,0,376.32127)" stroke-width=".6" stroke-linecap="butt" stroke-linejoin="round" fill="none" stroke="#000000" d="M55.985 36.48125V34.48125"/>
<path transform="matrix(1,0,0,-1,0,376.32127)" d="M67.145 36.48125V34.48125"/>
<path transform="matrix(1,0,0,-1,0,376.32127)" stroke-width=".6" stroke-linecap="butt" stroke-linejoin="round" fill="none" stroke="#000000" d="M67.145 36.48125V34.48125"/>
<path transform="matrix(1,0,0,-1,0,376.32127)" d="M78.305 36.48125V34.48125"/>
<path transform="matrix(1,0,0,-1,0,376.32127)" stroke-width=".6" stroke-linecap="butt" stroke-linejoin="round" fill="none" stroke="#000000" d="M78.305 36.48125V34.48125"/>
<path transform="matrix(1,0,0,-1,0,376.32127)" d="M89.465 36.48125V34.48125"/>
<path transform="matrix(1,0,0,-1,0,376.32127)" stroke-width=".6" stroke-linecap="butt" stroke-linejoin="round" fill="none" stroke="#000000" d="M89.465 36.48125V34.48125"/>
<path transform="matrix(1,0,0,-1,0,376.32127)" d="M111.785 36.48125V34.48125"/>
<path transform="matrix(1,0,0,-1,0,376.32127)" stroke-width=".6" stroke-linecap="butt" stroke-linejoin="round" fill="none" stroke="#000000" d="M111.785 36.48125V34.48125"/>
<path transform="matrix(1,0,0,-1,0,376.32127)" d="M122.945 36.48125V34.48125"/>
<path transform="matrix(1,0,0,-1,0,376.32127)" stroke-width=".6" stroke-linecap="butt" stroke-linejoin="round" fill="none" stroke="#000000" d="M122.945 36.48125V34.48125"/>
<path transform="matrix(1,0,0,-1,0,376.32127)" d="M134.105 36.48125V34.48125"/>
<path transform="matrix(1,0,0,-1,0,376.32127)" stroke-width=".6" stroke-linecap="butt" stroke-linejoin="round" fill="none" stroke="#000000" d="M134.105 36.48125V34.48125"/>
<path transform="matrix(1,0,0,-1,0,376.32127)" d="M145.265 36.48125V34.48125"/>
<path transform="matrix(1,0,0,-1,0,376.32127)" stroke-width=".6" stroke-linecap="butt" stroke-linejoin="round" fill="none" stroke="#000000" d="M145.265 36.48125V34.48125"/>
<path transform="matrix(1,0,0,-1,0,376.32127)" d="M167.585 36.48125V34.48125"/>
<path transform="matrix(1,0,0,-1,0,376.32127)" stroke-width=".6" stroke-linecap="butt" stroke-linejoin="round" fill="none" stroke="#000000" d="M167.585 36.48125V34.48125"/>
<path transform="matrix(1,0,0,-1,0,376.32127)" d="M178.745 36.48125V34.48125"/>
<path transform="matrix(1,0,0,-1,0,376.32127)" stroke-width=".6" stroke-linecap="butt" stroke-linejoin="round" fill="none" stroke="#000000" d="M178.745 36.48125V34.48125"/>
<path transform="matrix(1,0,0,-1,0,376.32127)" d="M189.905 36.48125V34.48125"/>
<path transform="matrix(1,0,0,-1,0,376.32127)" stroke-width=".6" stroke-linecap="butt" stroke-linejoin="round" fill="none" stroke="#000000" d="M189.905 36.48125V34.48125"/>
<path transform="matrix(1,0,0,-1,0,376.32127)" d="M201.065 36.48125V34.48125"/>
<path transform="matrix(1,0,0,-1,0,376.32127)" stroke-width=".6" stroke-linecap="butt" stroke-linejoin="round" fill="none" stroke="#000000" d="M201.065 36.48125V34.48125"/>
<path transform="matrix(1,0,0,-1,0,376.32127)" d="M223.385 36.48125V34.48125"/>
<path transform="matrix(1,0,0,-1,0,376.32127)" stroke-width=".6" stroke-linecap="butt" stroke-linejoin="round" fill="none" stroke="#000000" d="M223.385 36.48125V34.48125"/>
<path transform="matrix(1,0,0,-1,0,376.32127)" d="M234.545 36.48125V34.48125"/>
<path transform="matrix(1,0,0,-1,0,376.32127)" stroke-width=".6" stroke-linecap="butt" stroke-linejoin="round" fill="none" stroke="#000000" d="M234.545 36.48125V34.48125"/>
<path transform="matrix(1,0,0,-1,0,376.32127)" d="M245.705 36.48125V34.48125"/>
<path transform="matrix(1,0,0,-1,0,376.32127)" stroke-width=".6" stroke-linecap="butt" stroke-linejoin="round" fill="none" stroke="#000000" d="M245.705 36.48125V34.48125"/>
<path transform="matrix(1,0,0,-1,0,376.32127)" d="M256.865 36.48125V34.48125"/>
<path transform="matrix(1,0,0,-1,0,376.32127)" stroke-width=".6" stroke-linecap="butt" stroke-linejoin="round" fill="none" stroke="#000000" d="M256.865 36.48125V34.48125"/>
<path transform="matrix(1,0,0,-1,0,376.32127)" d="M279.185 36.48125V34.48125"/>
<path transform="matrix(1,0,0,-1,0,376.32127)" stroke-width=".6" stroke-linecap="butt" stroke-linejoin="round" fill="none" stroke="#000000" d="M279.185 36.48125V34.48125"/>
<path transform="matrix(1,0,0,-1,0,376.32127)" d="M290.345 36.48125V34.48125"/>
<path transform="matrix(1,0,0,-1,0,376.32127)" stroke-width=".6" stroke-linecap="butt" stroke-linejoin="round" fill="none" stroke="#000000" d="M290.345 36.48125V34.48125"/>
<path transform="matrix(1,0,0,-1,0,376.32127)" d="M301.505 36.48125V34.48125"/>
<path transform="matrix(1,0,0,-1,0,376.32127)" stroke-width=".6" stroke-linecap="butt" stroke-linejoin="round" fill="none" stroke="#000000" d="M301.505 36.48125V34.48125"/>
<path transform="matrix(1,0,0,-1,0,376.32127)" d="M312.665 36.48125V34.48125"/>
<path transform="matrix(1,0,0,-1,0,376.32127)" stroke-width=".6" stroke-linecap="butt" stroke-linejoin="round" fill="none" stroke="#000000" d="M312.665 36.48125V34.48125"/>
<path transform="matrix(1,0,0,-1,0,376.32127)" d="M334.985 36.48125V34.48125"/>
<path transform="matrix(1,0,0,-1,0,376.32127)" stroke-width=".6" stroke-linecap="butt" stroke-linejoin="round" fill="none" stroke="#000000" d="M334.985 36.48125V34.48125"/>
<path transform="matrix(1,0,0,-1,0,376.32127)" d="M346.145 36.48125V34.48125"/>
<path transform="matrix(1,0,0,-1,0,376.32127)" stroke-width=".6" stroke-linecap="butt" stroke-linejoin="round" fill="none" stroke="#000000" d="M346.145 36.48125V34.48125"/>
<path transform="matrix(1,0,0,-1,0,376.32127)" d="M357.305 36.48125V34.48125"/>
<path transform="matrix(1,0,0,-1,0,376.32127)" stroke-width=".6" stroke-linecap="butt" stroke-linejoin="round" fill="none" stroke="#000000" d="M357.305 36.48125V34.48125"/>
<path transform="matrix(1,0,0,-1,0,376.32127)" d="M368.465 36.48125V34.48125"/>
<path transform="matrix(1,0,0,-1,0,376.32127)" stroke-width=".6" stroke-linecap="butt" stroke-linejoin="round" fill="none" stroke="#000000" d="M368.465 36.48125V34.48125"/>
<path transform="matrix(1,0,0,-1,0,376.32127)" d="M390.785 36.48125V34.48125"/>
<path transform="matrix(1,0,0,-1,0,376.32127)" stroke-width=".6" stroke-linecap="butt" stroke-linejoin="round" fill="none" stroke="#000000" d="M390.785 36.48125V34.48125"/>
<path transform="matrix(1,0,0,-1,0,376.32127)" d="M401.945 36.48125V34.48125"/>
<path transform="matrix(1,0,0,-1,0,376.32127)" stroke-width=".6" stroke-linecap="butt" stroke-linejoin="round" fill="none" stroke="#000000" d="M401.945 36.48125V34.48125"/>
<path transform="matrix(1,0,0,-1,0,376.32127)" d="M413.105 36.48125V34.48125"/>
<path transform="matrix(1,0,0,-1,0,376.32127)" stroke-width=".6" stroke-linecap="butt" stroke-linejoin="round" fill="none" stroke="#000000" d="M413.105 36.48125V34.48125"/>
<path transform="matrix(1,0,0,-1,0,376.32127)" d="M424.265 36.48125V34.48125"/>
<path transform="matrix(1,0,0,-1,0,376.32127)" stroke-width=".6" stroke-linecap="butt" stroke-linejoin="round" fill="none" stroke="#000000" d="M424.265 36.48125V34.48125"/>
<path transform="matrix(1,0,0,-1,0,376.32127)" d="M446.585 36.48125V34.48125"/>
<path transform="matrix(1,0,0,-1,0,376.32127)" stroke-width=".6" stroke-linecap="butt" stroke-linejoin="round" fill="none" stroke="#000000" d="M446.585 36.48125V34.48125"/>
<path transform="matrix(1,0,0,-1,0,376.32127)" d="M457.745 36.48125V34.48125"/>
<path transform="matrix(1,0,0,-1,0,376.32127)" stroke-width=".6" stroke-linecap="butt" stroke-linejoin="round" fill="none" stroke="#000000" d="M457.745 36.48125V34.48125"/>
<path transform="matrix(1,0,0,-1,0,376.32127)" d="M468.905 36.48125V34.48125"/>
<path transform="matrix(1,0,0,-1,0,376.32127)" stroke-width=".6" stroke-linecap="butt" stroke-linejoin="round" fill="none" stroke="#000000" d="M468.905 36.48125V34.48125"/>
<path transform="matrix(1,0,0,-1,0,376.32127)" d="M480.065 36.48125V34.48125"/>
<path transform="matrix(1,0,0,-1,0,376.32127)" stroke-width=".6" stroke-linecap="butt" stroke-linejoin="round" fill="none" stroke="#000000" d="M480.065 36.48125V34.48125"/>
<path transform="matrix(1,0,0,-1,0,376.32127)" d="M502.385 36.48125V34.48125"/>
<path transform="matrix(1,0,0,-1,0,376.32127)" stroke-width=".6" stroke-linecap="butt" stroke-linejoin="round" fill="none" stroke="#000000" d="M502.385 36.48125V34.48125"/>
<path transform="matrix(1,0,0,-1,0,376.32127)" d="M513.545 36.48125V34.48125"/>
<path transform="matrix(1,0,0,-1,0,376.32127)" stroke-width=".6" stroke-linecap="butt" stroke-linejoin="round" fill="none" stroke="#000000" d="M513.545 36.48125V34.48125"/>
<path transform="matrix(1,0,0,-1,0,376.32127)" d="M524.705 36.48125V34.48125"/>
<path transform="matrix(1,0,0,-1,0,376.32127)" stroke-width=".6" stroke-linecap="butt" stroke-linejoin="round" fill="none" stroke="#000000" d="M524.705 36.48125V34.48125"/>
<path transform="matrix(1,0,0,-1,0,376.32127)" d="M535.865 36.48125V34.48125"/>
<path transform="matrix(1,0,0,-1,0,376.32127)" stroke-width=".6" stroke-linecap="butt" stroke-linejoin="round" fill="none" stroke="#000000" d="M535.865 36.48125V34.48125"/>
<path transform="matrix(1,0,0,-1,0,376.32127)" d="M558.185 36.48125V34.48125"/>
<path transform="matrix(1,0,0,-1,0,376.32127)" stroke-width=".6" stroke-linecap="butt" stroke-linejoin="round" fill="none" stroke="#000000" d="M558.185 36.48125V34.48125"/>
<path transform="matrix(1,0,0,-1,0,376.32127)" d="M569.345 36.48125V34.48125"/>
<path transform="matrix(1,0,0,-1,0,376.32127)" stroke-width=".6" stroke-linecap="butt" stroke-linejoin="round" fill="none" stroke="#000000" d="M569.345 36.48125V34.48125"/>
<path transform="matrix(1,0,0,-1,0,376.32127)" d="M580.505 36.48125V34.48125"/>
<path transform="matrix(1,0,0,-1,0,376.32127)" stroke-width=".6" stroke-linecap="butt" stroke-linejoin="round" fill="none" stroke="#000000" d="M580.505 36.48125V34.48125"/>
<path transform="matrix(1,0,0,-1,0,376.32127)" d="M591.665 36.48125V34.48125"/>
<path transform="matrix(1,0,0,-1,0,376.32127)" stroke-width=".6" stroke-linecap="butt" stroke-linejoin="round" fill="none" stroke="#000000" d="M591.665 36.48125V34.48125"/>
<text xml:space="preserve" transform="matrix(1 0 -0 1 283.86408 367.13688)" font-size="10" font-family="ArialMT"><tspan y="0" x="0 6.6700007 12.230001 15.560001 20.560002 26.120003 31.680005 34.460004 36.680006 38.900007 44.460008 47.240007 52.240007 57.800008 60.580007 63.910005 69.47 72.078128 74.85812">Percentile cut-offs</tspan></text>
<path transform="matrix(1,0,0,-1,0,376.32127)" d="M44.825 72.13724H41.325"/>
<path transform="matrix(1,0,0,-1,0,376.32127)" stroke-width=".8" stroke-linecap="butt" stroke-linejoin="round" fill="none" stroke="#000000" d="M44.825 72.13724H41.325"/>
<text xml:space="preserve" transform="matrix(1 0 -0 1 20.590626 307.76216)" font-size="10" font-family="ArialMT"><tspan y="0" x="0 3.33 8.89 11.67">-0.5</tspan></text>
<path transform="matrix(1,0,0,-1,0,376.32127)" d="M44.825 108.44058H41.325"/>
<path transform="matrix(1,0,0,-1,0,376.32127)" stroke-width=".8" stroke-linecap="butt" stroke-linejoin="round" fill="none" stroke="#000000" d="M44.825 108.44058H41.325"/>
<text xml:space="preserve" transform="matrix(1 0 -0 1 32.2625 271.4588)" font-size="10" font-family="ArialMT"><tspan y="0" x="0">0</tspan></text>
<path transform="matrix(1,0,0,-1,0,376.32127)" d="M44.825 144.74393H41.325"/>
<path transform="matrix(1,0,0,-1,0,376.32127)" stroke-width=".8" stroke-linecap="butt" stroke-linejoin="round" fill="none" stroke="#000000" d="M44.825 144.74393H41.325"/>
<text xml:space="preserve" transform="matrix(1 0 -0 1 23.91875 235.15546)" font-size="10" font-family="ArialMT"><tspan y="0" x="0 5.5600006 8.34">0.5</tspan></text>
<path transform="matrix(1,0,0,-1,0,376.32127)" d="M44.825 181.04729H41.325"/>
<path transform="matrix(1,0,0,-1,0,376.32127)" stroke-width=".8" stroke-linecap="butt" stroke-linejoin="round" fill="none" stroke="#000000" d="M44.825 181.04729H41.325"/>
<text xml:space="preserve" transform="matrix(1 0 -0 1 32.2625 198.8521)" font-size="10" font-family="ArialMT"><tspan y="0" x="0">1</tspan></text>
<path transform="matrix(1,0,0,-1,0,376.32127)" d="M44.825 217.35063H41.325"/>
<path transform="matrix(1,0,0,-1,0,376.32127)" stroke-width=".8" stroke-linecap="butt" stroke-linejoin="round" fill="none" stroke="#000000" d="M44.825 217.35063H41.325"/>
<text xml:space="preserve" transform="matrix(1 0 -0 1 23.91875 162.54875)" font-size="10" font-family="ArialMT"><tspan y="0" x="0 5.5600006 8.34">1.5</tspan></text>
<path transform="matrix(1,0,0,-1,0,376.32127)" d="M44.825 253.65398H41.325"/>
<path transform="matrix(1,0,0,-1,0,376.32127)" stroke-width=".8" stroke-linecap="butt" stroke-linejoin="round" fill="none" stroke="#000000" d="M44.825 253.65398H41.325"/>
<text xml:space="preserve" transform="matrix(1 0 -0 1 32.2625 126.24541)" font-size="10" font-family="ArialMT"><tspan y="0" x="0">2</tspan></text>
<path transform="matrix(1,0,0,-1,0,376.32127)" d="M44.825 289.9573H41.325"/>
<path transform="matrix(1,0,0,-1,0,376.32127)" stroke-width=".8" stroke-linecap="butt" stroke-linejoin="round" fill="none" stroke="#000000" d="M44.825 289.9573H41.325"/>
<text xml:space="preserve" transform="matrix(1 0 -0 1 23.91875 89.94208)" font-size="10" font-family="ArialMT"><tspan y="0" x="0 5.5600006 8.34">2.5</tspan></text>
<path transform="matrix(1,0,0,-1,0,376.32127)" d="M44.825 326.26069H41.325"/>
<path transform="matrix(1,0,0,-1,0,376.32127)" stroke-width=".8" stroke-linecap="butt" stroke-linejoin="round" fill="none" stroke="#000000" d="M44.825 326.26069H41.325"/>
<text xml:space="preserve" transform="matrix(1 0 -0 1 32.2625 53.638704)" font-size="10" font-family="ArialMT"><tspan y="0" x="0">3</tspan></text>
<path transform="matrix(1,0,0,-1,0,376.32127)" d="M44.825 362.56404H41.325"/>
<path transform="matrix(1,0,0,-1,0,376.32127)" stroke-width=".8" stroke-linecap="butt" stroke-linejoin="round" fill="none" stroke="#000000" d="M44.825 362.56404H41.325"/>
<text xml:space="preserve" transform="matrix(1 0 -0 1 23.91875 17.335358)" font-size="10" font-family="ArialMT"><tspan y="0" x="0 5.5600006 8.34">3.5</tspan></text>
<path transform="matrix(1,0,0,-1,0,376.32127)" d="M44.825 43.094564H42.825"/>
<path transform="matrix(1,0,0,-1,0,376.32127)" stroke-width=".6" stroke-linecap="butt" stroke-linejoin="round" fill="none" stroke="#000000" d="M44.825 43.094564H42.825"/>
<path transform="matrix(1,0,0,-1,0,376.32127)" d="M44.825 50.355234H42.825"/>
<path transform="matrix(1,0,0,-1,0,376.32127)" stroke-width=".6" stroke-linecap="butt" stroke-linejoin="round" fill="none" stroke="#000000" d="M44.825 50.355234H42.825"/>
<path transform="matrix(1,0,0,-1,0,376.32127)" d="M44.825 57.615903H42.825"/>
<path transform="matrix(1,0,0,-1,0,376.32127)" stroke-width=".6" stroke-linecap="butt" stroke-linejoin="round" fill="none" stroke="#000000" d="M44.825 57.615903H42.825"/>
<path transform="matrix(1,0,0,-1,0,376.32127)" d="M44.825 64.87657H42.825"/>
<path transform="matrix(1,0,0,-1,0,376.32127)" stroke-width=".6" stroke-linecap="butt" stroke-linejoin="round" fill="none" stroke="#000000" d="M44.825 64.87657H42.825"/>
<path transform="matrix(1,0,0,-1,0,376.32127)" d="M44.825 79.39791H42.825"/>
<path transform="matrix(1,0,0,-1,0,376.32127)" stroke-width=".6" stroke-linecap="butt" stroke-linejoin="round" fill="none" stroke="#000000" d="M44.825 79.39791H42.825"/>
<path transform="matrix(1,0,0,-1,0,376.32127)" d="M44.825 86.65858H42.825"/>
<path transform="matrix(1,0,0,-1,0,376.32127)" stroke-width=".6" stroke-linecap="butt" stroke-linejoin="round" fill="none" stroke="#000000" d="M44.825 86.65858H42.825"/>
<path transform="matrix(1,0,0,-1,0,376.32127)" d="M44.825 93.91925H42.825"/>
<path transform="matrix(1,0,0,-1,0,376.32127)" stroke-width=".6" stroke-linecap="butt" stroke-linejoin="round" fill="none" stroke="#000000" d="M44.825 93.91925H42.825"/>
<path transform="matrix(1,0,0,-1,0,376.32127)" d="M44.825 101.17992H42.825"/>
<path transform="matrix(1,0,0,-1,0,376.32127)" stroke-width=".6" stroke-linecap="butt" stroke-linejoin="round" fill="none" stroke="#000000" d="M44.825 101.17992H42.825"/>
<path transform="matrix(1,0,0,-1,0,376.32127)" d="M44.825 115.701259H42.825"/>
<path transform="matrix(1,0,0,-1,0,376.32127)" stroke-width=".6" stroke-linecap="butt" stroke-linejoin="round" fill="none" stroke="#000000" d="M44.825 115.701259H42.825"/>
<path transform="matrix(1,0,0,-1,0,376.32127)" d="M44.825 122.96192H42.825"/>
<path transform="matrix(1,0,0,-1,0,376.32127)" stroke-width=".6" stroke-linecap="butt" stroke-linejoin="round" fill="none" stroke="#000000" d="M44.825 122.96192H42.825"/>
<path transform="matrix(1,0,0,-1,0,376.32127)" d="M44.825 130.2226H42.825"/>
<path transform="matrix(1,0,0,-1,0,376.32127)" stroke-width=".6" stroke-linecap="butt" stroke-linejoin="round" fill="none" stroke="#000000" d="M44.825 130.2226H42.825"/>
<path transform="matrix(1,0,0,-1,0,376.32127)" d="M44.825 137.48326H42.825"/>
<path transform="matrix(1,0,0,-1,0,376.32127)" stroke-width=".6" stroke-linecap="butt" stroke-linejoin="round" fill="none" stroke="#000000" d="M44.825 137.48326H42.825"/>
<path transform="matrix(1,0,0,-1,0,376.32127)" d="M44.825 152.00461H42.825"/>
<path transform="matrix(1,0,0,-1,0,376.32127)" stroke-width=".6" stroke-linecap="butt" stroke-linejoin="round" fill="none" stroke="#000000" d="M44.825 152.00461H42.825"/>
<path transform="matrix(1,0,0,-1,0,376.32127)" d="M44.825 159.26528H42.825"/>
<path transform="matrix(1,0,0,-1,0,376.32127)" stroke-width=".6" stroke-linecap="butt" stroke-linejoin="round" fill="none" stroke="#000000" d="M44.825 159.26528H42.825"/>
<path transform="matrix(1,0,0,-1,0,376.32127)" d="M44.825 166.52594H42.825"/>
<path transform="matrix(1,0,0,-1,0,376.32127)" stroke-width=".6" stroke-linecap="butt" stroke-linejoin="round" fill="none" stroke="#000000" d="M44.825 166.52594H42.825"/>
<path transform="matrix(1,0,0,-1,0,376.32127)" d="M44.825 173.7866H42.825"/>
<path transform="matrix(1,0,0,-1,0,376.32127)" stroke-width=".6" stroke-linecap="butt" stroke-linejoin="round" fill="none" stroke="#000000" d="M44.825 173.7866H42.825"/>
<path transform="matrix(1,0,0,-1,0,376.32127)" d="M44.825 188.30796H42.825"/>
<path transform="matrix(1,0,0,-1,0,376.32127)" stroke-width=".6" stroke-linecap="butt" stroke-linejoin="round" fill="none" stroke="#000000" d="M44.825 188.30796H42.825"/>
<path transform="matrix(1,0,0,-1,0,376.32127)" d="M44.825 195.56862H42.825"/>
<path transform="matrix(1,0,0,-1,0,376.32127)" stroke-width=".6" stroke-linecap="butt" stroke-linejoin="round" fill="none" stroke="#000000" d="M44.825 195.56862H42.825"/>
<path transform="matrix(1,0,0,-1,0,376.32127)" d="M44.825 202.82929H42.825"/>
<path transform="matrix(1,0,0,-1,0,376.32127)" stroke-width=".6" stroke-linecap="butt" stroke-linejoin="round" fill="none" stroke="#000000" d="M44.825 202.82929H42.825"/>
<path transform="matrix(1,0,0,-1,0,376.32127)" d="M44.825 210.08995H42.825"/>
<path transform="matrix(1,0,0,-1,0,376.32127)" stroke-width=".6" stroke-linecap="butt" stroke-linejoin="round" fill="none" stroke="#000000" d="M44.825 210.08995H42.825"/>
<path transform="matrix(1,0,0,-1,0,376.32127)" d="M44.825 224.6113H42.825"/>
<path transform="matrix(1,0,0,-1,0,376.32127)" stroke-width=".6" stroke-linecap="butt" stroke-linejoin="round" fill="none" stroke="#000000" d="M44.825 224.6113H42.825"/>
<path transform="matrix(1,0,0,-1,0,376.32127)" d="M44.825 231.87197H42.825"/>
<path transform="matrix(1,0,0,-1,0,376.32127)" stroke-width=".6" stroke-linecap="butt" stroke-linejoin="round" fill="none" stroke="#000000" d="M44.825 231.87197H42.825"/>
<path transform="matrix(1,0,0,-1,0,376.32127)" d="M44.825 239.13263H42.825"/>
<path transform="matrix(1,0,0,-1,0,376.32127)" stroke-width=".6" stroke-linecap="butt" stroke-linejoin="round" fill="none" stroke="#000000" d="M44.825 239.13263H42.825"/>
<path transform="matrix(1,0,0,-1,0,376.32127)" d="M44.825 246.39331H42.825"/>
<path transform="matrix(1,0,0,-1,0,376.32127)" stroke-width=".6" stroke-linecap="butt" stroke-linejoin="round" fill="none" stroke="#000000" d="M44.825 246.39331H42.825"/>
<path transform="matrix(1,0,0,-1,0,376.32127)" d="M44.825 260.91465H42.825"/>
<path transform="matrix(1,0,0,-1,0,376.32127)" stroke-width=".6" stroke-linecap="butt" stroke-linejoin="round" fill="none" stroke="#000000" d="M44.825 260.91465H42.825"/>
<path transform="matrix(1,0,0,-1,0,376.32127)" d="M44.825 268.17533H42.825"/>
<path transform="matrix(1,0,0,-1,0,376.32127)" stroke-width=".6" stroke-linecap="butt" stroke-linejoin="round" fill="none" stroke="#000000" d="M44.825 268.17533H42.825"/>
<path transform="matrix(1,0,0,-1,0,376.32127)" d="M44.825 275.43598H42.825"/>
<path transform="matrix(1,0,0,-1,0,376.32127)" stroke-width=".6" stroke-linecap="butt" stroke-linejoin="round" fill="none" stroke="#000000" d="M44.825 275.43598H42.825"/>
<path transform="matrix(1,0,0,-1,0,376.32127)" d="M44.825 282.69667H42.825"/>
<path transform="matrix(1,0,0,-1,0,376.32127)" stroke-width=".6" stroke-linecap="butt" stroke-linejoin="round" fill="none" stroke="#000000" d="M44.825 282.69667H42.825"/>
<path transform="matrix(1,0,0,-1,0,376.32127)" d="M44.825 297.218H42.825"/>
<path transform="matrix(1,0,0,-1,0,376.32127)" stroke-width=".6" stroke-linecap="butt" stroke-linejoin="round" fill="none" stroke="#000000" d="M44.825 297.218H42.825"/>
<path transform="matrix(1,0,0,-1,0,376.32127)" d="M44.825 304.47868H42.825"/>
<path transform="matrix(1,0,0,-1,0,376.32127)" stroke-width=".6" stroke-linecap="butt" stroke-linejoin="round" fill="none" stroke="#000000" d="M44.825 304.47868H42.825"/>
<path transform="matrix(1,0,0,-1,0,376.32127)" d="M44.825 311.73933H42.825"/>
<path transform="matrix(1,0,0,-1,0,376.32127)" stroke-width=".6" stroke-linecap="butt" stroke-linejoin="round" fill="none" stroke="#000000" d="M44.825 311.73933H42.825"/>
<path transform="matrix(1,0,0,-1,0,376.32127)" d="M44.825 319H42.825"/>
<path transform="matrix(1,0,0,-1,0,376.32127)" stroke-width=".6" stroke-linecap="butt" stroke-linejoin="round" fill="none" stroke="#000000" d="M44.825 319H42.825"/>
<path transform="matrix(1,0,0,-1,0,376.32127)" d="M44.825 333.52134H42.825"/>
<path transform="matrix(1,0,0,-1,0,376.32127)" stroke-width=".6" stroke-linecap="butt" stroke-linejoin="round" fill="none" stroke="#000000" d="M44.825 333.52134H42.825"/>
<path transform="matrix(1,0,0,-1,0,376.32127)" d="M44.825 340.782H42.825"/>
<path transform="matrix(1,0,0,-1,0,376.32127)" stroke-width=".6" stroke-linecap="butt" stroke-linejoin="round" fill="none" stroke="#000000" d="M44.825 340.782H42.825"/>
<path transform="matrix(1,0,0,-1,0,376.32127)" d="M44.825 348.04267H42.825"/>
<path transform="matrix(1,0,0,-1,0,376.32127)" stroke-width=".6" stroke-linecap="butt" stroke-linejoin="round" fill="none" stroke="#000000" d="M44.825 348.04267H42.825"/>
<path transform="matrix(1,0,0,-1,0,376.32127)" d="M44.825 355.30335H42.825"/>
<path transform="matrix(1,0,0,-1,0,376.32127)" stroke-width=".6" stroke-linecap="butt" stroke-linejoin="round" fill="none" stroke="#000000" d="M44.825 355.30335H42.825"/>
<text xml:space="preserve" transform="matrix(0 -1 1 0 14.48125 288.80909)" font-size="10" font-family="ArialMT"><tspan y="0" x="0 7.2200009 12.780001 18.34 20.948126 23.728127 25.948128 30.948128 33.16813 38.72813 44.28813 47.06813 49.84813 53.17813 60.398134 62.618135 65.39813 70.95813 73.73813 79.29813 84.85812 93.74812 96.52812 102.08812 107.64812 113.208118 115.98811 121.54811 127.10811 135.99811 138.7781 143.7781 149.3381 154.8981 157.6781 159.8981 165.4581 171.0181 176.5781 181.5781 187.13809 189.91809 192.13809 197.69809 200.47809 206.03809 209.36809 214.36809 219.92809 222.14809 227.14809">Coefficient (with 90% and 95% confidence intervals)</tspan></text>
<g clip-path="url(#clip_4)">
<path transform="matrix(1,0,0,-1,0,376.32127)" stroke-width="1.5" stroke-linecap="square" stroke-linejoin="round" fill="none" stroke="#1f77b4" d="M156.425 139.2101 167.585 139.55167 178.745 140.93517 189.905 148.18717 201.065 165.46422 212.225 144.10993 223.385 143.88898 234.545 155.75894 245.705 165.92664 256.865 159.60787 268.025 162.74394 279.185 162.38712 290.345 162.77436 301.505 163.5375 312.665 163.26694 323.825 161.95905 334.985 173.4618 346.145 171.41443 357.305 163.93007 368.465 162.31295 379.625 159.45584 390.785 161.18497 401.945 157.44853 413.105 157.03958 424.265 161.70058 435.425 172.1819 446.585 178.08838 457.745 219.62973 468.905 218.1302 480.065 231.09239 491.225 232.11989 502.385 221.66 513.545 230.84549 524.705 236.98227 535.865 251.85948 547.025 244.72328 558.185 245.5031 569.345 244.28905 580.505 246.47893"/>
</g>
<g clip-path="url(#clip_5)">
<path transform="matrix(1,0,0,-1,0,376.32127)" stroke-width=".6" stroke-linecap="butt" stroke-dasharray="2.22,.96" stroke-linejoin="round" fill="none" stroke="#ff7f0e" stroke-opacity=".4" d="M156.425 212.53786 167.585 213.36719 178.745 215.1182 189.905 223.71654 201.065 236.83199 212.225 208.29796 223.385 206.6987 234.545 220.45644 245.705 223.98535 256.865 215.05394 268.025 217.5141 279.185 217.96614 290.345 221.75994 301.505 222.95786 312.665 222.75455 323.825 223.46646 334.985 238.54462 346.145 236.31786 357.305 231.17029 368.465 229.04973 379.625 225.93875 390.785 227.91893 401.945 222.47661 413.105 223.1484 424.265 233.16768 435.425 241.77513 446.585 247.62358 457.745 290.34535 468.905 288.9931 480.065 306.04914 491.225 307.09773 502.385 294.4864 513.545 300.2535 524.705 320.05659 535.865 337.5856 547.025 332.10185 558.185 332.49629 569.345 330.97926 580.505 335.44737"/>
</g>
<g clip-path="url(#clip_6)">
<path transform="matrix(1,0,0,-1,0,376.32127)" stroke-width=".6" stroke-linecap="butt" stroke-dasharray="2.22,.96" stroke-linejoin="round" fill="none" stroke="#ff7f0e" stroke-opacity=".4" d="M156.425 65.882328 167.585 65.73614 178.745 66.75214 189.905 72.65779 201.065 94.09646 212.225 79.921878 223.385 81.07924 234.545 91.06144 245.705 107.86792 256.865 104.161808 268.025 107.97379 279.185 106.80809 290.345 103.78877 301.505 104.11716 312.665 103.77933 323.825 100.45162 334.985 108.379 346.145 106.511 357.305 96.68984 368.465 95.57615 379.625 92.97292 390.785 94.451007 401.945 92.420459 413.105 90.93076 424.265 90.233478 435.425 102.58867 446.585 108.55317 457.745 148.91414 468.905 147.26732 480.065 156.13564 491.225 157.14205 502.385 148.83362 513.545 161.43747 524.705 153.90798 535.865 166.13336 547.025 157.34471 558.185 158.50992 569.345 157.59888 580.505 157.5105"/>
</g>
<g clip-path="url(#clip_7)">
<path transform="matrix(1,0,0,-1,0,376.32127)" stroke-width=".6" stroke-linecap="butt" stroke-dasharray="2.22,.96" stroke-linejoin="round" fill="none" stroke="#ff7f0e" stroke-opacity=".3" d="M156.425 226.57935 167.585 227.50208 178.745 229.32346 189.905 238.1796 201.065 250.49816 212.225 220.5893 223.385 218.7261 234.545 232.84532 245.705 235.10298 256.865 225.67128 268.025 228.002 279.185 228.60894 290.345 233.05506 301.505 234.33621 312.665 234.14579 323.825 235.24448 334.985 251.0073 346.145 248.74617 357.305 244.04608 368.465 241.82912 379.625 238.66953 390.785 240.69777 401.945 234.92879 413.105 235.80754 424.265 246.85288 435.425 255.10149 446.585 260.93885 457.745 303.88664 468.905 302.5626 480.065 320.40257 491.225 321.45518 502.385 308.43186 513.545 313.5444 524.705 335.96443 535.865 354.00126 547.025 348.8339 558.185 349.15455 569.345 347.57948 580.505 352.48387"/>
</g>
<g clip-path="url(#clip_8)">
<path transform="matrix(1,0,0,-1,0,376.32127)" stroke-width=".6" stroke-linecap="butt" stroke-dasharray="2.22,.96" stroke-linejoin="round" fill="none" stroke="#ff7f0e" stroke-opacity=".3" d="M156.425 51.840837 167.585 51.60125 178.745 52.546876 189.905 58.194719 201.065 80.43029 212.225 67.63055 223.385 69.05184 234.545 78.67256 245.705 96.7503 256.865 93.54447 268.025 97.48589 279.185 96.165309 290.345 92.49366 301.505 92.73879 312.665 92.388088 323.825 88.6736 334.985 95.91633 346.145 94.08269 357.305 83.81405 368.465 82.79677 379.625 80.24215 390.785 81.67216 401.945 79.96827 413.105 78.27163 424.265 76.54829 435.425 89.26231 446.585 95.23792 457.745 135.37285 468.905 133.69782 480.065 141.78221 491.225 142.78459 502.385 134.88814 513.545 148.14658 524.705 138.00012 535.865 149.71773 547.025 140.61266 558.185 141.85166 569.345 140.99863 580.505 140.47399"/>
</g>
<g clip-path="url(#clip_9)">
<path transform="matrix(1,0,0,-1,0,376.32127)" stroke-width=".5" stroke-linecap="square" stroke-linejoin="round" fill="none" stroke="#808080" d="M44.825 108.44058H602.825"/>
</g>
<g clip-path="url(#clip_10)">
<path transform="matrix(1,0,0,-1,0,376.32127)" stroke-width=".5" stroke-linecap="butt" stroke-dasharray="1.85,.8" stroke-linejoin="round" fill="none" stroke="#1f77b4" stroke-opacity=".2" d="M44.825 137.48326H602.825"/>
</g>
<g clip-path="url(#clip_11)">
<path transform="matrix(1,0,0,-1,0,376.32127)" stroke-width=".5" stroke-linecap="butt" stroke-dasharray="1.85,.8" stroke-linejoin="round" fill="none" stroke="#1f77b4" stroke-opacity=".2" d="M44.825 253.65398H602.825"/>
</g>
<g clip-path="url(#clip_12)">
<path transform="matrix(1,0,0,-1,0,376.32127)" stroke-width=".5" stroke-linecap="butt" stroke-dasharray="1.85,.8" stroke-linejoin="round" fill="none" stroke="#808080" d=""/>
</g>
<g clip-path="url(#clip_13)">
<path transform="matrix(1,0,0,-1,0,376.32127)" stroke-width=".5" stroke-linecap="butt" stroke-dasharray="1.85,.8" stroke-linejoin="round" fill="none" stroke="#808080" d="M156.425 36.48125V369.12126"/>
</g>
<g clip-path="url(#clip_14)">
<path transform="matrix(1,0,0,-1,0,376.32127)" stroke-width=".5" stroke-linecap="butt" stroke-dasharray="1.85,.8" stroke-linejoin="round" fill="none" stroke="#808080" d="M580.505 36.48125V369.12126"/>
</g>
<path transform="matrix(1,0,0,-1,0,376.32127)" stroke-width=".8" stroke-linecap="square" stroke-miterlimit="10" stroke-linejoin="miter" fill="none" stroke="#000000" d="M44.825 36.48125V369.12126"/>
<path transform="matrix(1,0,0,-1,0,376.32127)" stroke-width=".8" stroke-linecap="square" stroke-miterlimit="10" stroke-linejoin="miter" fill="none" stroke="#000000" d="M44.825 36.48125H602.825"/>
<g>
<path transform="matrix(1,0,0,-1,0,376.32127)" d="M51.825 346.73063H430.27815C431.61146 346.73063 432.27815 347.39729 432.27815 348.73063V362.12126C432.27815 363.4546 431.61146 364.12126 430.27815 364.12126H51.825C50.49167 364.12126 49.825 363.4546 49.825 362.12126V348.73063C49.825 347.39729 50.49167 346.73063 51.825 346.73063Z" fill="#ffffff" fill-opacity=".8"/>
<path transform="matrix(1,0,0,-1,0,376.32127)" stroke-width="1" stroke-linecap="butt" stroke-miterlimit="10" stroke-linejoin="miter" fill="none" stroke="#cccccc" stroke-opacity=".8" d="M51.825 346.73063H430.27815C431.61146 346.73063 432.27815 347.39729 432.27815 348.73063V362.12126C432.27815 363.4546 431.61146 364.12126 430.27815 364.12126H51.825C50.49167 364.12126 49.825 363.4546 49.825 362.12126V348.73063C49.825 347.39729 50.49167 346.73063 51.825 346.73063Z"/>
</g>
<path transform="matrix(1,0,0,-1,0,376.32127)" stroke-width="1.5" stroke-linecap="square" stroke-linejoin="round" fill="none" stroke="#1f77b4" d="M53.825 356.34H63.825 73.825"/>
<text xml:space="preserve" transform="matrix(1 0 -0 1 81.825 23.481263)" font-size="10" font-family="ArialMT"><tspan y="0" x="5.751953 8.531954 14.091954 16.871954 19.651955 26.871956 29.091958 34.65196 40.21196 42.99196 48.55196 54.11196 59.671964 65.231967 70.79196 76.35196 81.91196 87.471958 92.471958 97.471958 100.25195 104.14195 106.37508 113.045078 118.60507 121.38507 126.94507 130.27507 135.83507 141.39507 146.95507 152.51506 158.07506 163.63506 165.85506 170.85506 173.63506 175.85506 181.41506 186.41506 191.41506 194.19506 196.97505 202.53505 208.09505 210.87505 216.43505 221.99504 230.32505 238.65505 243.65505 246.43505 249.76505 254.76505 260.32505 263.10505 266.43504 271.99504 274.60316 277.38316 282.38316 285.71315 288.49314 292.38316 295.16316 301.83317 307.39317 312.39317 315.17317 317.95317 324.62318 331.84318 339.06318"> of High dependency * Anthropogenic loss top dummy (cut-offs) * Post EUDR</tspan></text>
<g clip-path="url(#clip_15)">
<path transform="matrix(.01,0,0,-.01,81.825,23.481263)" d="M156 66V-198H68V491C68 546 75 589 90 620 105 651 131 677 167 697 203 717 243 728 288 728 353 728 402 709 436 671 470 633 487 592 487 548 487 504 473 469 446 443 418 416 387 400 353 394 409 388 453 367 484 332 514 297 530 254 530 203 530 147 511 98 475 54 439 10 386-11 318-11 247-11 193 14 156 66ZM233 422C293 422 336 432 364 453 391 473 405 503 405 543 405 575 393 601 370 623 346 645 317 656 283 656 253 656 226 648 204 632 182 616 168 598 163 578 158 558 156 524 156 476V279C156 223 159 181 167 155 175 129 191 105 217 84 243 63 273 53 307 53 347 53 379 66 403 94 426 122 438 156 438 198 438 232 429 262 412 289 394 315 373 333 348 343 322 353 288 358 246 358H233V422Z"/>
</g>
</svg>
